M48
;Layer_Color=9474304
;FILE_FORMAT=2:5
INCH,LZ
;TYPE=PLATED
T1F00S00C0.00827
;TYPE=NON_PLATED
T2F00S00C0.04528
T3F00S00C0.06496
%
T01
X03185Y0266
X03255
X03325
X03395
X03465
X03535
X03605
X03675
X03745
X03815
X03885
X03955
X04025
X04095
X04165
X04235
X04305
X04375
X03115
X03045
X02975
X02905
X02835
X02765
X02695
X02625
X02555
X02485
X02415
X02345
X02275
X0230315Y0269685
Y0271654
Y0273622
Y027559
Y0277559
Y0279528
Y0281496
Y0283465
Y0285433
Y0287402
Y028937
Y0291339
Y0293307
Y0295276
Y0297244
Y0299213
Y0301181
Y030315
Y0305118
Y0307087
Y0309055
Y0311024
X0224Y0259
X0220472Y0260295
X0238Y0259
Y0315
X0245
X0252
X0259
X0266
X0273
X028
X0287
X0294
X0301
X0308
X0231
X0230315Y0320866
Y0322835
Y0324803
Y0326772
Y032874
Y0330709
Y0332677
Y0334646
Y0336614
Y0338583
Y0340551
X0231Y0343
X0224
X0220472Y0349941
X0224Y0315
X0315
X0322
X0329
X0336
X0343
X035
X0357
X0364
X0371
X0378
X0385
X0392
X0399
X0406
X0413
X042
X0427
X0434
X0441
T02
X0230669Y0348425
T03
X0230669Y0261811
M30
