M48
;Layer_Color=9474304
;FILE_FORMAT=2:5
INCH,LZ
;TYPE=NON_PLATED
T4F00S00C0.00929
%
T04
X03185Y0266
X03255
X03325
X03395
X03465
X03535
X03605
X03675
X03745
X03815
X03885
X03955
X04025
X04095
X04165
X04235
X04305
X04375
X03115
X03045
X02975
X02905
X02835
X02765
X02695
X02625
X02555
X02485
X02415
X02345
X02275
X0224Y0259
X0238
Y0315
X0231
X0224
X0245
X0252
X0259
X0266
X0273
X028
X0287
X0294
X0301
X0308
X0231Y0343
X0224
X0315Y0315
X0322
X0329
X0336
X0343
X035
X0357
X0364
X0371
X0378
X0385
X0392
X0399
X0406
X0413
X042
X0427
X0434
X0441
M30
