G04*
G04 #@! TF.GenerationSoftware,Altium Limited,Altium Designer,21.7.2 (23)*
G04*
G04 Layer_Color=16711935*
%FSLAX25Y25*%
%MOIN*%
G70*
G04*
G04 #@! TF.SameCoordinates,A9D511C6-54FE-4BBE-B258-F20D7088C63A*
G04*
G04*
G04 #@! TF.FilePolarity,Negative*
G04*
G01*
G75*
%ADD22R,0.06221X0.01693*%
%ADD23C,0.06811*%
%ADD24C,0.04842*%
D22*
X452362Y287402D02*
D03*
Y281496D02*
D03*
Y277559D02*
D03*
Y279528D02*
D03*
Y285433D02*
D03*
Y283465D02*
D03*
Y273622D02*
D03*
Y271654D02*
D03*
Y269685D02*
D03*
Y275590D02*
D03*
Y289370D02*
D03*
Y291339D02*
D03*
Y293307D02*
D03*
Y295276D02*
D03*
Y297244D02*
D03*
Y299213D02*
D03*
Y307087D02*
D03*
Y309055D02*
D03*
Y305118D02*
D03*
Y303150D02*
D03*
Y311024D02*
D03*
Y301181D02*
D03*
Y322835D02*
D03*
Y324803D02*
D03*
Y326772D02*
D03*
Y328740D02*
D03*
Y330709D02*
D03*
Y332677D02*
D03*
Y334646D02*
D03*
Y336614D02*
D03*
Y338583D02*
D03*
Y340551D02*
D03*
Y320866D02*
D03*
D23*
X230669Y261811D02*
D03*
D24*
Y348425D02*
D03*
M02*
