G04*
G04 #@! TF.GenerationSoftware,Altium Limited,Altium Designer,21.7.2 (23)*
G04*
G04 Layer_Physical_Order=2*
G04 Layer_Color=32768*
%FSLAX25Y25*%
%MOIN*%
G70*
G04*
G04 #@! TF.SameCoordinates,A9D511C6-54FE-4BBE-B258-F20D7088C63A*
G04*
G04*
G04 #@! TF.FilePolarity,Negative*
G04*
G01*
G75*
%ADD31C,0.04000*%
%ADD32C,0.08858*%
%ADD33C,0.06890*%
%ADD34C,0.03189*%
D31*
X203095Y255709D02*
G03*
X203346Y255457I252J0D01*
G01*
X244094D02*
G03*
X244346Y255709I0J252D01*
G01*
X246063Y262741D02*
G03*
X244346Y261024I0J-1717D01*
G01*
X246063Y262741D02*
G03*
X246066Y262741I2J161D01*
G01*
X441535Y262741D02*
G03*
X441787Y262992I0J252D01*
G01*
X443898Y265792D02*
G03*
X441787Y263681I0J-2111D01*
G01*
X456299Y265792D02*
G03*
X456477Y265865I0J252D01*
G01*
X457461Y266850D02*
G03*
X457535Y267028I-178J178D01*
G01*
Y311319D02*
G03*
X457461Y311497I-252J0D01*
G01*
X456477Y312481D02*
G03*
X456299Y312555I-178J-178D01*
G01*
X443758Y314567D02*
G03*
X445866Y312555I2108J98D01*
G01*
Y316579D02*
G03*
X443758Y314567I-0J-2111D01*
G01*
X445866Y316579D02*
G03*
X445868Y316579I1J252D01*
G01*
X456299D02*
G03*
X456477Y316653I0J252D01*
G01*
X457461Y317637D02*
G03*
X457535Y317815I-178J178D01*
G01*
Y343406D02*
G03*
X457461Y343583I-252J0D01*
G01*
X456477Y344568D02*
G03*
X456299Y344641I-178J-178D01*
G01*
X441787Y346752D02*
G03*
X443898Y344641I2111J0D01*
G01*
X441787Y347441D02*
G03*
X441535Y347692I-252J0D01*
G01*
X246065Y347692D02*
G03*
X246063Y347692I-2J-252D01*
G01*
X244346Y349410D02*
G03*
X246063Y347692I1717J0D01*
G01*
X244346Y354724D02*
G03*
X244094Y354976I-252J0D01*
G01*
X203346D02*
G03*
X203095Y354724I0J-252D01*
G01*
Y347441D02*
G03*
X203937Y346599I842J0D01*
G01*
X221008Y344882D02*
G03*
X219291Y346599I-1717J0D01*
G01*
Y264031D02*
G03*
X221008Y265748I0J1717D01*
G01*
X204134Y264031D02*
G03*
X203095Y262992I0J-1039D01*
G01*
X203346Y255457D02*
X244094D01*
X244346Y255709D02*
Y261024D01*
X246063Y262741D02*
X246066Y262741D01*
X246063D02*
X246066D01*
X438583Y262741D01*
X441535D01*
X441787Y262992D02*
Y263681D01*
X443898Y265792D02*
X456299D01*
X456477Y265865D02*
X457461Y266850D01*
X457535Y267028D02*
Y311319D01*
X456477Y312481D02*
X457461Y311497D01*
X445866Y312555D02*
X456299D01*
X445866Y316579D02*
X445868Y316579D01*
X445866D02*
X456299D01*
X456477Y316653D02*
X457461Y317637D01*
X457535Y317815D02*
Y343406D01*
X456477Y344568D02*
X457461Y343583D01*
X443898Y344641D02*
X456299D01*
X441787Y346752D02*
Y347441D01*
X410236Y347692D02*
X441535D01*
X246065Y347692D02*
X410236Y347692D01*
X244346Y349410D02*
Y354724D01*
X203346Y354976D02*
X244094D01*
X203095Y347441D02*
Y354724D01*
X203937Y346599D02*
X219291D01*
X221008Y265748D02*
Y344882D01*
X204134Y264031D02*
X219291D01*
X203095Y255709D02*
Y262992D01*
D32*
X230669Y261811D02*
D03*
D33*
Y348425D02*
D03*
D34*
X230315Y311024D02*
D03*
Y309055D02*
D03*
Y307087D02*
D03*
Y305118D02*
D03*
Y303150D02*
D03*
Y301181D02*
D03*
Y299213D02*
D03*
Y297244D02*
D03*
Y295276D02*
D03*
Y293307D02*
D03*
Y291339D02*
D03*
Y269685D02*
D03*
Y271654D02*
D03*
Y273622D02*
D03*
Y275590D02*
D03*
Y277559D02*
D03*
Y279528D02*
D03*
Y281496D02*
D03*
Y283465D02*
D03*
Y285433D02*
D03*
Y287402D02*
D03*
Y289370D02*
D03*
Y340551D02*
D03*
Y338583D02*
D03*
Y336614D02*
D03*
Y334646D02*
D03*
Y332677D02*
D03*
Y330709D02*
D03*
Y328740D02*
D03*
Y326772D02*
D03*
Y324803D02*
D03*
Y322835D02*
D03*
Y320866D02*
D03*
M02*
