M48
;Layer_Color=9474304
;FILE_FORMAT=2:5
INCH,LZ
;TYPE=PLATED
T1F00S00C0.00827
;TYPE=NON_PLATED
%
T01
X0448425Y0268701
Y0270669
Y0272638
Y0274606
Y0276575
Y0278543
Y0280512
Y028248
Y0284449
Y0286417
Y0288386
Y0290354
Y0292323
Y0294291
Y029626
Y0298228
Y0300197
Y0302165
Y0304134
Y0306102
Y0308071
Y0310039
X0232835
Y0312008
Y0308071
Y0306102
Y0304134
Y0302165
Y0300197
Y0298228
Y029626
Y0294291
Y0292323
Y0290354
Y0288386
Y0286417
Y0284449
Y028248
Y0280512
Y0278543
Y0276575
Y0274606
Y0272638
Y0270669
Y0268701
Y0319882
Y032185
Y0323819
Y0325787
Y0327756
Y0329724
Y0331693
Y0333661
Y033563
Y0337598
Y0339567
Y0341535
X0448425
Y0339567
Y0337598
Y033563
Y0333661
Y0331693
Y0329724
Y0327756
Y0325787
Y0323819
Y032185
Y0319882
M30
