G04*
G04 #@! TF.GenerationSoftware,Altium Limited,Altium Designer,21.7.2 (23)*
G04*
G04 Layer_Color=8388736*
%FSLAX25Y25*%
%MOIN*%
G70*
G04*
G04 #@! TF.SameCoordinates,AC63ED2E-E8E0-4B6E-8806-03F55A2ED641*
G04*
G04*
G04 #@! TF.FilePolarity,Negative*
G04*
G01*
G75*
%ADD20R,0.06221X0.01496*%
%ADD21R,0.11142X0.05039*%
%ADD22R,0.06221X0.01693*%
%ADD23C,0.06811*%
%ADD24C,0.04842*%
%ADD25C,0.00400*%
D20*
X226378Y291339D02*
D03*
X236772Y292323D02*
D03*
X226378Y293307D02*
D03*
X236772Y294291D02*
D03*
X226378Y295276D02*
D03*
X236772Y296260D02*
D03*
X226378Y297244D02*
D03*
X236772Y298228D02*
D03*
Y268701D02*
D03*
X226378Y269685D02*
D03*
X236772Y270669D02*
D03*
X226378Y271654D02*
D03*
X236772Y272638D02*
D03*
X226378Y273622D02*
D03*
X236772Y274606D02*
D03*
X226378Y275590D02*
D03*
X236772Y276575D02*
D03*
X226378Y277559D02*
D03*
X236772Y278543D02*
D03*
X226378Y279528D02*
D03*
X236772Y280512D02*
D03*
X226378Y281496D02*
D03*
X236772Y282480D02*
D03*
X226378Y283465D02*
D03*
X236772Y284449D02*
D03*
X226378Y285433D02*
D03*
X236772Y286417D02*
D03*
X226378Y287402D02*
D03*
X236772Y288386D02*
D03*
X226378Y289370D02*
D03*
X236772Y290354D02*
D03*
X226378Y299213D02*
D03*
X236772Y300197D02*
D03*
X226378Y301181D02*
D03*
X236772Y302165D02*
D03*
X226378Y303150D02*
D03*
X236772Y304134D02*
D03*
X226378Y305118D02*
D03*
X236772Y306102D02*
D03*
X226378Y307087D02*
D03*
X236772Y308071D02*
D03*
X226378Y309055D02*
D03*
X236772Y310039D02*
D03*
X226378Y311024D02*
D03*
X236772Y319882D02*
D03*
X226378Y320866D02*
D03*
X236772Y321850D02*
D03*
X226378Y322835D02*
D03*
X236772Y323819D02*
D03*
X226378Y324803D02*
D03*
X236772Y325787D02*
D03*
X226378Y326772D02*
D03*
X236772Y327756D02*
D03*
X226378Y328740D02*
D03*
X236772Y329724D02*
D03*
X226378Y330709D02*
D03*
X236772Y331693D02*
D03*
X226378Y332677D02*
D03*
X236772Y333661D02*
D03*
X226378Y334646D02*
D03*
X236772Y335630D02*
D03*
X226378Y336614D02*
D03*
X236772Y337598D02*
D03*
X226378Y338583D02*
D03*
X236772Y339567D02*
D03*
X226378Y340551D02*
D03*
X236772Y341535D02*
D03*
D21*
X211102Y260295D02*
D03*
Y349941D02*
D03*
D22*
X452362Y341535D02*
D03*
Y339567D02*
D03*
Y337598D02*
D03*
Y335630D02*
D03*
Y333661D02*
D03*
Y331693D02*
D03*
Y329724D02*
D03*
Y327756D02*
D03*
Y325787D02*
D03*
Y323819D02*
D03*
Y321850D02*
D03*
Y319882D02*
D03*
Y310039D02*
D03*
Y308071D02*
D03*
Y306102D02*
D03*
Y304134D02*
D03*
Y302165D02*
D03*
Y300197D02*
D03*
Y290354D02*
D03*
Y288386D02*
D03*
Y286417D02*
D03*
Y284449D02*
D03*
Y282480D02*
D03*
Y280512D02*
D03*
Y278543D02*
D03*
Y276575D02*
D03*
Y274606D02*
D03*
Y272638D02*
D03*
Y270669D02*
D03*
Y268701D02*
D03*
Y298228D02*
D03*
Y296260D02*
D03*
Y294291D02*
D03*
Y292323D02*
D03*
D23*
X230669Y261811D02*
D03*
D24*
Y348425D02*
D03*
D25*
X224000Y259000D02*
D03*
X227500Y266000D02*
D03*
X224000Y315000D02*
D03*
Y343000D02*
D03*
X234500Y266000D02*
D03*
X231000Y315000D02*
D03*
Y343000D02*
D03*
X238000Y259000D02*
D03*
X241500Y266000D02*
D03*
X238000Y315000D02*
D03*
X248500Y266000D02*
D03*
X245000Y315000D02*
D03*
X255500Y266000D02*
D03*
X252000Y315000D02*
D03*
X262500Y266000D02*
D03*
X259000Y315000D02*
D03*
X269500Y266000D02*
D03*
X266000Y315000D02*
D03*
X276500Y266000D02*
D03*
X273000Y315000D02*
D03*
X283500Y266000D02*
D03*
X280000Y315000D02*
D03*
X290500Y266000D02*
D03*
X287000Y315000D02*
D03*
X297500Y266000D02*
D03*
X294000Y315000D02*
D03*
X304500Y266000D02*
D03*
X301000Y315000D02*
D03*
X311500Y266000D02*
D03*
X308000Y315000D02*
D03*
X318500Y266000D02*
D03*
X315000Y315000D02*
D03*
X325500Y266000D02*
D03*
X322000Y315000D02*
D03*
X332500Y266000D02*
D03*
X329000Y315000D02*
D03*
X339500Y266000D02*
D03*
X336000Y315000D02*
D03*
X346500Y266000D02*
D03*
X343000Y315000D02*
D03*
X353500Y266000D02*
D03*
X350000Y315000D02*
D03*
X360500Y266000D02*
D03*
X357000Y315000D02*
D03*
X367500Y266000D02*
D03*
X364000Y315000D02*
D03*
X374500Y266000D02*
D03*
X371000Y315000D02*
D03*
X381500Y266000D02*
D03*
X378000Y315000D02*
D03*
X388500Y266000D02*
D03*
X385000Y315000D02*
D03*
X395500Y266000D02*
D03*
X392000Y315000D02*
D03*
X402500Y266000D02*
D03*
X399000Y315000D02*
D03*
X409500Y266000D02*
D03*
X406000Y315000D02*
D03*
X416500Y266000D02*
D03*
X413000Y315000D02*
D03*
X423500Y266000D02*
D03*
X420000Y315000D02*
D03*
X430500Y266000D02*
D03*
X427000Y315000D02*
D03*
X437500Y266000D02*
D03*
X434000Y315000D02*
D03*
X441000D02*
D03*
M02*
