G04*
G04 #@! TF.GenerationSoftware,Altium Limited,Altium Designer,21.7.2 (23)*
G04*
G04 Layer_Color=65535*
%FSLAX25Y25*%
%MOIN*%
G70*
G04*
G04 #@! TF.SameCoordinates,AC63ED2E-E8E0-4B6E-8806-03F55A2ED641*
G04*
G04*
G04 #@! TF.FilePolarity,Positive*
G04*
G01*
G75*
%ADD10C,0.00557*%
%ADD11C,0.00783*%
%ADD12C,0.00787*%
%ADD13C,0.00139*%
%ADD14C,0.00500*%
%ADD15C,0.01000*%
%ADD16C,0.00400*%
G36*
X326478Y293214D02*
X326199D01*
Y293075D01*
X325921D01*
Y293214D01*
X326060D01*
Y293353D01*
X326478D01*
Y293214D01*
D02*
G37*
G36*
X362940Y293075D02*
X362801D01*
Y292935D01*
X362523D01*
Y293075D01*
X362662D01*
Y293214D01*
X362940D01*
Y293075D01*
D02*
G37*
G36*
X386599Y293214D02*
X386460D01*
Y293075D01*
X386320D01*
Y292935D01*
X386181D01*
Y292796D01*
X386042D01*
Y292657D01*
X385903D01*
Y292796D01*
Y292935D01*
X386042D01*
Y293075D01*
X386181D01*
Y293214D01*
X386320D01*
Y293353D01*
X386599D01*
Y293214D01*
D02*
G37*
G36*
X362523Y292796D02*
X362383D01*
Y292657D01*
X362244D01*
Y292796D01*
Y292935D01*
X362523D01*
Y292796D01*
D02*
G37*
G36*
X325921Y292935D02*
X325782D01*
Y292796D01*
X325642D01*
Y292657D01*
X325503D01*
Y292518D01*
X325364D01*
Y292657D01*
Y292796D01*
X325503D01*
Y292935D01*
X325642D01*
Y293075D01*
X325921D01*
Y292935D01*
D02*
G37*
G36*
X385903Y292518D02*
Y292379D01*
Y292240D01*
X385764D01*
Y292379D01*
Y292518D01*
Y292657D01*
X385903D01*
Y292518D01*
D02*
G37*
G36*
X362244D02*
Y292379D01*
X362105D01*
Y292240D01*
X361966D01*
Y292379D01*
Y292518D01*
X362105D01*
Y292657D01*
X362244D01*
Y292518D01*
D02*
G37*
G36*
X325364Y292379D02*
Y292240D01*
X325225D01*
Y292101D01*
Y291961D01*
X325086D01*
Y292101D01*
Y292240D01*
Y292379D01*
X325225D01*
Y292518D01*
X325364D01*
Y292379D01*
D02*
G37*
G36*
X361966Y292101D02*
Y291961D01*
Y291822D01*
X361827D01*
Y291961D01*
Y292101D01*
Y292240D01*
X361966D01*
Y292101D01*
D02*
G37*
G36*
X325086Y291822D02*
Y291683D01*
Y291544D01*
Y291405D01*
X324947D01*
Y291544D01*
Y291683D01*
Y291822D01*
Y291961D01*
X325086D01*
Y291822D01*
D02*
G37*
G36*
X357651D02*
X357930D01*
Y291683D01*
X358069D01*
Y291544D01*
Y291405D01*
Y291266D01*
X357930D01*
Y291405D01*
Y291544D01*
X357791D01*
Y291683D01*
X357512D01*
Y291822D01*
X352085D01*
Y291683D01*
Y291544D01*
Y291405D01*
Y291266D01*
Y291126D01*
Y290987D01*
Y290848D01*
Y290709D01*
Y290570D01*
X352502D01*
Y290430D01*
X351806D01*
Y290570D01*
Y290709D01*
Y290848D01*
Y290987D01*
Y291126D01*
Y291266D01*
Y291405D01*
Y291544D01*
Y291683D01*
Y291822D01*
X351946D01*
Y291961D01*
X357651D01*
Y291822D01*
D02*
G37*
G36*
X385764Y292101D02*
Y291961D01*
Y291822D01*
Y291683D01*
Y291544D01*
Y291405D01*
Y291266D01*
Y291126D01*
Y290987D01*
Y290848D01*
Y290709D01*
Y290570D01*
X385625D01*
Y290709D01*
Y290848D01*
Y290987D01*
Y291126D01*
Y291266D01*
Y291405D01*
Y291544D01*
Y291683D01*
Y291822D01*
Y291961D01*
Y292101D01*
Y292240D01*
X385764D01*
Y292101D01*
D02*
G37*
G36*
X358069Y290848D02*
Y290709D01*
Y290570D01*
X357791D01*
Y290709D01*
X357930D01*
Y290848D01*
Y290987D01*
X358069D01*
Y290848D01*
D02*
G37*
G36*
X324947Y290987D02*
Y290848D01*
Y290709D01*
Y290570D01*
Y290430D01*
Y290291D01*
Y290152D01*
Y290013D01*
Y289874D01*
Y289735D01*
Y289595D01*
Y289456D01*
Y289317D01*
Y289178D01*
Y289039D01*
Y288900D01*
Y288760D01*
Y288621D01*
Y288482D01*
X324808D01*
Y288621D01*
Y288760D01*
Y288900D01*
Y289039D01*
Y289178D01*
Y289317D01*
Y289456D01*
Y289595D01*
Y289735D01*
Y289874D01*
Y290013D01*
Y290152D01*
Y290291D01*
Y290430D01*
Y290570D01*
Y290709D01*
Y290848D01*
Y290987D01*
Y291126D01*
X324947D01*
Y290987D01*
D02*
G37*
G36*
X357791Y288900D02*
X357930D01*
Y288760D01*
X358069D01*
Y288621D01*
Y288482D01*
Y288343D01*
X357930D01*
Y288482D01*
Y288621D01*
X357791D01*
Y288760D01*
X357512D01*
Y288900D01*
X352085D01*
Y288760D01*
Y288621D01*
Y288482D01*
Y288343D01*
Y288204D01*
Y288065D01*
Y287925D01*
Y287786D01*
Y287647D01*
Y287508D01*
X357651D01*
Y287369D01*
X351946D01*
Y287508D01*
X351806D01*
Y287647D01*
Y287786D01*
Y287925D01*
Y288065D01*
Y288204D01*
Y288343D01*
Y288482D01*
Y288621D01*
Y288760D01*
Y288900D01*
Y289039D01*
X357791D01*
Y288900D01*
D02*
G37*
G36*
X369898Y291822D02*
X370455D01*
Y291683D01*
X370594D01*
Y291544D01*
X370733D01*
Y291405D01*
Y291266D01*
Y291126D01*
X370873D01*
Y290987D01*
Y290848D01*
Y290709D01*
Y290570D01*
Y290430D01*
Y290291D01*
Y290152D01*
Y290013D01*
Y289874D01*
Y289735D01*
Y289595D01*
Y289456D01*
Y289317D01*
Y289178D01*
Y289039D01*
Y288900D01*
Y288760D01*
Y288621D01*
Y288482D01*
Y288343D01*
Y288204D01*
X370733D01*
Y288343D01*
Y288482D01*
Y288621D01*
Y288760D01*
Y288900D01*
Y289039D01*
Y289178D01*
Y289317D01*
Y289456D01*
Y289595D01*
Y289735D01*
Y289874D01*
Y290013D01*
Y290152D01*
Y290291D01*
Y290430D01*
Y290570D01*
Y290709D01*
Y290848D01*
Y290987D01*
Y291126D01*
X370594D01*
Y291266D01*
Y291405D01*
X370455D01*
Y291544D01*
X370177D01*
Y291683D01*
X369759D01*
Y291822D01*
X365167D01*
Y291683D01*
X364471D01*
Y291544D01*
X364332D01*
Y291405D01*
X364193D01*
Y291266D01*
X364053D01*
Y291126D01*
Y290987D01*
Y290848D01*
Y290709D01*
Y290570D01*
Y290430D01*
Y290291D01*
Y290152D01*
Y290013D01*
Y289874D01*
Y289735D01*
Y289595D01*
Y289456D01*
Y289317D01*
Y289178D01*
Y289039D01*
Y288900D01*
Y288760D01*
Y288621D01*
Y288482D01*
Y288343D01*
Y288204D01*
Y288065D01*
X364193D01*
Y287925D01*
X364332D01*
Y287786D01*
X364471D01*
Y287647D01*
X364749D01*
Y287508D01*
X369898D01*
Y287369D01*
X364749D01*
Y287508D01*
X364332D01*
Y287647D01*
X364193D01*
Y287786D01*
X364053D01*
Y287925D01*
X363914D01*
Y288065D01*
Y288204D01*
Y288343D01*
X363775D01*
Y288482D01*
Y288621D01*
Y288760D01*
Y288900D01*
Y289039D01*
Y289178D01*
Y289317D01*
Y289456D01*
Y289595D01*
Y289735D01*
Y289874D01*
Y290013D01*
Y290152D01*
Y290291D01*
Y290430D01*
Y290570D01*
Y290709D01*
Y290848D01*
Y290987D01*
X363914D01*
Y291126D01*
Y291266D01*
Y291405D01*
X364053D01*
Y291544D01*
Y291683D01*
X364332D01*
Y291822D01*
X364888D01*
Y291961D01*
X369898D01*
Y291822D01*
D02*
G37*
G36*
X368785Y291266D02*
X369063D01*
Y291126D01*
X369342D01*
Y290987D01*
Y290848D01*
X369481D01*
Y290709D01*
Y290570D01*
Y290430D01*
Y290291D01*
Y290152D01*
Y290013D01*
Y289874D01*
Y289735D01*
Y289595D01*
Y289456D01*
Y289317D01*
Y289178D01*
Y289039D01*
Y288900D01*
Y288760D01*
Y288621D01*
Y288482D01*
X369342D01*
Y288343D01*
Y288204D01*
X369063D01*
Y288065D01*
X365723D01*
Y288204D01*
X365584D01*
Y288343D01*
X365445D01*
Y288482D01*
Y288621D01*
X365306D01*
Y288760D01*
Y288900D01*
Y289039D01*
Y289178D01*
Y289317D01*
Y289456D01*
Y289595D01*
Y289735D01*
Y289874D01*
Y290013D01*
Y290152D01*
Y290291D01*
Y290430D01*
Y290570D01*
Y290709D01*
Y290848D01*
X365445D01*
Y290987D01*
Y291126D01*
X365584D01*
Y291266D01*
X366002D01*
Y291405D01*
X368785D01*
Y291266D01*
D02*
G37*
G36*
X333158Y291822D02*
X333575D01*
Y291683D01*
X333854D01*
Y291544D01*
Y291405D01*
X333993D01*
Y291266D01*
Y291126D01*
Y290987D01*
X334132D01*
Y290848D01*
Y290709D01*
Y290570D01*
Y290430D01*
Y290291D01*
Y290152D01*
Y290013D01*
Y289874D01*
Y289735D01*
Y289595D01*
Y289456D01*
Y289317D01*
Y289178D01*
Y289039D01*
Y288900D01*
Y288760D01*
Y288621D01*
Y288482D01*
X333993D01*
Y288343D01*
Y288204D01*
Y288065D01*
X333854D01*
Y288204D01*
Y288343D01*
Y288482D01*
Y288621D01*
X333993D01*
Y288760D01*
Y288900D01*
Y289039D01*
Y289178D01*
Y289317D01*
Y289456D01*
Y289595D01*
Y289735D01*
Y289874D01*
Y290013D01*
Y290152D01*
Y290291D01*
Y290430D01*
Y290570D01*
Y290709D01*
Y290848D01*
Y290987D01*
X333854D01*
Y291126D01*
Y291266D01*
X333714D01*
Y291405D01*
Y291544D01*
X333436D01*
Y291683D01*
X332879D01*
Y291822D01*
X328426D01*
Y291683D01*
X327730D01*
Y291544D01*
X327591D01*
Y291405D01*
X327452D01*
Y291266D01*
X327312D01*
Y291126D01*
Y290987D01*
Y290848D01*
X327173D01*
Y290709D01*
Y290570D01*
Y290430D01*
Y290291D01*
Y290152D01*
Y290013D01*
Y289874D01*
Y289735D01*
Y289595D01*
Y289456D01*
Y289317D01*
Y289178D01*
Y289039D01*
Y288900D01*
Y288760D01*
Y288621D01*
X327312D01*
Y288482D01*
Y288343D01*
Y288204D01*
X327452D01*
Y288065D01*
X327591D01*
Y287925D01*
X327730D01*
Y287786D01*
X328426D01*
Y287647D01*
X327591D01*
Y287786D01*
X327452D01*
Y287925D01*
X327312D01*
Y288065D01*
X327173D01*
Y288204D01*
Y288343D01*
X327034D01*
Y288482D01*
Y288621D01*
Y288760D01*
Y288900D01*
Y289039D01*
Y289178D01*
Y289317D01*
Y289456D01*
Y289595D01*
Y289735D01*
Y289874D01*
Y290013D01*
Y290152D01*
Y290291D01*
Y290430D01*
Y290570D01*
Y290709D01*
Y290848D01*
Y290987D01*
Y291126D01*
Y291266D01*
X327173D01*
Y291405D01*
Y291544D01*
X327312D01*
Y291683D01*
X327591D01*
Y291822D01*
X328008D01*
Y291961D01*
X333158D01*
Y291822D01*
D02*
G37*
G36*
X361827Y291544D02*
Y291405D01*
Y291266D01*
Y291126D01*
Y290987D01*
Y290848D01*
Y290709D01*
Y290570D01*
Y290430D01*
Y290291D01*
Y290152D01*
Y290013D01*
Y289874D01*
Y289735D01*
Y289595D01*
Y289456D01*
Y289317D01*
Y289178D01*
Y289039D01*
Y288900D01*
Y288760D01*
Y288621D01*
Y288482D01*
Y288343D01*
Y288204D01*
Y288065D01*
Y287925D01*
Y287786D01*
Y287647D01*
X361687D01*
Y287786D01*
Y287925D01*
Y288065D01*
Y288204D01*
Y288343D01*
Y288482D01*
Y288621D01*
Y288760D01*
Y288900D01*
Y289039D01*
Y289178D01*
Y289317D01*
Y289456D01*
Y289595D01*
Y289735D01*
Y289874D01*
Y290013D01*
Y290152D01*
Y290291D01*
Y290430D01*
Y290570D01*
Y290709D01*
Y290848D01*
Y290987D01*
Y291126D01*
Y291266D01*
Y291405D01*
Y291544D01*
Y291683D01*
X361827D01*
Y291544D01*
D02*
G37*
G36*
X358069Y287786D02*
Y287647D01*
X357930D01*
Y287786D01*
Y287925D01*
X358069D01*
Y287786D01*
D02*
G37*
G36*
X370733Y287925D02*
Y287786D01*
X370594D01*
Y287647D01*
X370455D01*
Y287508D01*
X369898D01*
Y287647D01*
X370316D01*
Y287786D01*
X370455D01*
Y287925D01*
X370594D01*
Y288065D01*
X370733D01*
Y287925D01*
D02*
G37*
G36*
X385903Y290291D02*
Y290152D01*
Y290013D01*
X386042D01*
Y289874D01*
Y289735D01*
X386181D01*
Y289595D01*
X386320D01*
Y289456D01*
X386460D01*
Y289317D01*
X386738D01*
Y289178D01*
X387016D01*
Y289039D01*
X387851D01*
Y288900D01*
X393279D01*
Y288760D01*
X393418D01*
Y288621D01*
Y288482D01*
Y288343D01*
Y288204D01*
Y288065D01*
Y287925D01*
Y287786D01*
Y287647D01*
Y287508D01*
X393140D01*
Y287369D01*
X385903D01*
Y287230D01*
X385764D01*
Y287369D01*
Y287508D01*
X393001D01*
Y287647D01*
X393279D01*
Y287786D01*
Y287925D01*
Y288065D01*
Y288204D01*
Y288343D01*
Y288482D01*
Y288621D01*
X393140D01*
Y288760D01*
X387434D01*
Y288900D01*
X386877D01*
Y289039D01*
X386599D01*
Y289178D01*
X386320D01*
Y289317D01*
X386181D01*
Y289456D01*
X386042D01*
Y289595D01*
Y289735D01*
X385903D01*
Y289874D01*
Y290013D01*
X385764D01*
Y290152D01*
Y290291D01*
Y290430D01*
X385903D01*
Y290291D01*
D02*
G37*
G36*
X395088Y293631D02*
X395227D01*
Y293492D01*
X395367D01*
Y293353D01*
Y293214D01*
Y293075D01*
Y292935D01*
Y292796D01*
Y292657D01*
Y292518D01*
Y292379D01*
Y292240D01*
Y292101D01*
Y291961D01*
X395227D01*
Y291822D01*
X388408D01*
Y291683D01*
X388130D01*
Y291544D01*
X387990D01*
Y291405D01*
Y291266D01*
Y291126D01*
Y290987D01*
Y290848D01*
X388130D01*
Y290709D01*
X388269D01*
Y290570D01*
X393975D01*
Y290430D01*
X394531D01*
Y290291D01*
X394810D01*
Y290152D01*
X395088D01*
Y290013D01*
X395227D01*
Y289874D01*
X395367D01*
Y289735D01*
Y289595D01*
X395506D01*
Y289456D01*
Y289317D01*
X395645D01*
Y289178D01*
Y289039D01*
Y288900D01*
Y288760D01*
Y288621D01*
Y288482D01*
Y288343D01*
Y288204D01*
X395784D01*
Y288065D01*
Y287925D01*
Y287786D01*
Y287647D01*
Y287508D01*
X395645D01*
Y287369D01*
Y287230D01*
Y287090D01*
Y286951D01*
Y286812D01*
X395506D01*
Y286673D01*
Y286534D01*
X395367D01*
Y286395D01*
Y286255D01*
X395227D01*
Y286116D01*
X395088D01*
Y285977D01*
X394810D01*
Y285838D01*
X394531D01*
Y285699D01*
X393975D01*
Y285560D01*
X386042D01*
Y285699D01*
X385764D01*
Y285838D01*
X385625D01*
Y285977D01*
Y286116D01*
Y286255D01*
Y286395D01*
Y286534D01*
Y286673D01*
Y286812D01*
Y286951D01*
Y287090D01*
Y287230D01*
X385764D01*
Y287090D01*
Y286951D01*
Y286812D01*
Y286673D01*
Y286534D01*
Y286395D01*
Y286255D01*
Y286116D01*
Y285977D01*
Y285838D01*
X386042D01*
Y285699D01*
X393696D01*
Y285838D01*
X394253D01*
Y285977D01*
X394671D01*
Y286116D01*
X394810D01*
Y286255D01*
X394949D01*
Y286395D01*
X395227D01*
Y286534D01*
Y286673D01*
X395367D01*
Y286812D01*
Y286951D01*
X395506D01*
Y287090D01*
Y287230D01*
Y287369D01*
Y287508D01*
Y287647D01*
Y287786D01*
Y287925D01*
Y288065D01*
Y288204D01*
Y288343D01*
Y288482D01*
Y288621D01*
Y288760D01*
Y288900D01*
Y289039D01*
Y289178D01*
Y289317D01*
X395367D01*
Y289456D01*
X395227D01*
Y289595D01*
Y289735D01*
X395088D01*
Y289874D01*
X394949D01*
Y290013D01*
X394810D01*
Y290152D01*
X394531D01*
Y290291D01*
X393975D01*
Y290430D01*
X388130D01*
Y290570D01*
X387990D01*
Y290709D01*
X387851D01*
Y290848D01*
Y290987D01*
Y291126D01*
Y291266D01*
Y291405D01*
Y291544D01*
Y291683D01*
X387990D01*
Y291822D01*
X388130D01*
Y291961D01*
X395088D01*
Y292101D01*
X395227D01*
Y292240D01*
Y292379D01*
Y292518D01*
Y292657D01*
Y292796D01*
Y292935D01*
Y293075D01*
Y293214D01*
Y293353D01*
Y293492D01*
X394949D01*
Y293631D01*
X387712D01*
Y293492D01*
X387016D01*
Y293631D01*
X387573D01*
Y293771D01*
X395088D01*
Y293631D01*
D02*
G37*
G36*
X384511D02*
X384650D01*
Y293492D01*
X384790D01*
Y293353D01*
Y293214D01*
Y293075D01*
Y292935D01*
Y292796D01*
Y292657D01*
Y292518D01*
Y292379D01*
Y292240D01*
Y292101D01*
Y291961D01*
X384650D01*
Y291822D01*
X384511D01*
Y291683D01*
X380475D01*
Y291544D01*
Y291405D01*
Y291266D01*
Y291126D01*
Y290987D01*
Y290848D01*
Y290709D01*
Y290570D01*
Y290430D01*
Y290291D01*
Y290152D01*
Y290013D01*
Y289874D01*
Y289735D01*
Y289595D01*
Y289456D01*
Y289317D01*
Y289178D01*
Y289039D01*
Y288900D01*
Y288760D01*
Y288621D01*
Y288482D01*
Y288343D01*
Y288204D01*
Y288065D01*
Y287925D01*
Y287786D01*
Y287647D01*
Y287508D01*
Y287369D01*
Y287230D01*
Y287090D01*
Y286951D01*
Y286812D01*
Y286673D01*
Y286534D01*
Y286395D01*
Y286255D01*
Y286116D01*
Y285977D01*
Y285838D01*
Y285699D01*
X380336D01*
Y285560D01*
X378388D01*
Y285699D01*
X378109D01*
Y285838D01*
Y285977D01*
Y286116D01*
Y286255D01*
Y286395D01*
Y286534D01*
Y286673D01*
Y286812D01*
Y286951D01*
Y287090D01*
Y287230D01*
Y287369D01*
Y287508D01*
Y287647D01*
Y287786D01*
Y287925D01*
Y288065D01*
Y288204D01*
Y288343D01*
Y288482D01*
Y288621D01*
Y288760D01*
Y288900D01*
Y289039D01*
Y289178D01*
Y289317D01*
Y289456D01*
Y289595D01*
Y289735D01*
Y289874D01*
Y290013D01*
Y290152D01*
Y290291D01*
Y290430D01*
Y290570D01*
Y290709D01*
Y290848D01*
Y290987D01*
Y291126D01*
Y291266D01*
Y291405D01*
Y291544D01*
Y291683D01*
X374213D01*
Y291822D01*
X373934D01*
Y291961D01*
X373795D01*
Y292101D01*
Y292240D01*
Y292379D01*
Y292518D01*
Y292657D01*
Y292796D01*
Y292935D01*
Y293075D01*
Y293214D01*
Y293353D01*
Y293492D01*
X373934D01*
Y293353D01*
Y293214D01*
Y293075D01*
Y292935D01*
Y292796D01*
Y292657D01*
Y292518D01*
Y292379D01*
Y292240D01*
Y292101D01*
Y291961D01*
X374213D01*
Y291822D01*
X378249D01*
Y291683D01*
Y291544D01*
Y291405D01*
Y291266D01*
Y291126D01*
Y290987D01*
Y290848D01*
Y290709D01*
Y290570D01*
Y290430D01*
Y290291D01*
Y290152D01*
Y290013D01*
Y289874D01*
Y289735D01*
Y289595D01*
Y289456D01*
Y289317D01*
Y289178D01*
Y289039D01*
Y288900D01*
Y288760D01*
Y288621D01*
Y288482D01*
Y288343D01*
Y288204D01*
Y288065D01*
Y287925D01*
Y287786D01*
Y287647D01*
Y287508D01*
Y287369D01*
Y287230D01*
Y287090D01*
Y286951D01*
Y286812D01*
Y286673D01*
Y286534D01*
Y286395D01*
Y286255D01*
Y286116D01*
Y285977D01*
Y285838D01*
X378388D01*
Y285699D01*
X380058D01*
Y285838D01*
X380336D01*
Y285977D01*
Y286116D01*
Y286255D01*
Y286395D01*
Y286534D01*
Y286673D01*
Y286812D01*
Y286951D01*
Y287090D01*
Y287230D01*
Y287369D01*
Y287508D01*
Y287647D01*
Y287786D01*
Y287925D01*
Y288065D01*
Y288204D01*
Y288343D01*
Y288482D01*
Y288621D01*
Y288760D01*
Y288900D01*
Y289039D01*
Y289178D01*
Y289317D01*
Y289456D01*
Y289595D01*
Y289735D01*
Y289874D01*
Y290013D01*
Y290152D01*
Y290291D01*
Y290430D01*
Y290570D01*
Y290709D01*
Y290848D01*
Y290987D01*
Y291126D01*
Y291266D01*
Y291405D01*
Y291544D01*
Y291683D01*
Y291822D01*
X384372D01*
Y291961D01*
X384511D01*
Y292101D01*
X384650D01*
Y292240D01*
Y292379D01*
Y292518D01*
Y292657D01*
Y292796D01*
Y292935D01*
Y293075D01*
Y293214D01*
Y293353D01*
Y293492D01*
X384372D01*
Y293631D01*
X374074D01*
Y293771D01*
X384511D01*
Y293631D01*
D02*
G37*
G36*
X364888Y306435D02*
X365027D01*
Y306296D01*
X365167D01*
Y306157D01*
X365306D01*
Y306017D01*
Y305878D01*
Y305739D01*
Y305600D01*
Y305461D01*
Y305322D01*
Y305183D01*
Y305043D01*
Y304904D01*
Y304765D01*
X365445D01*
Y304626D01*
X365584D01*
Y304487D01*
X365862D01*
Y304347D01*
X366002D01*
Y304208D01*
X366419D01*
Y304069D01*
X366558D01*
Y303930D01*
X366837D01*
Y303791D01*
X367115D01*
Y303652D01*
X367393D01*
Y303512D01*
X367672D01*
Y303373D01*
X367950D01*
Y303234D01*
X368228D01*
Y303095D01*
X368646D01*
Y303234D01*
X368924D01*
Y303373D01*
X369203D01*
Y303512D01*
X369759D01*
Y303652D01*
X374908D01*
Y303512D01*
X375326D01*
Y303373D01*
X375744D01*
Y303234D01*
X376022D01*
Y303095D01*
X376161D01*
Y302956D01*
X376439D01*
Y302817D01*
X376579D01*
Y302677D01*
X376718D01*
Y302538D01*
X376857D01*
Y302399D01*
Y302260D01*
X376996D01*
Y302121D01*
X377135D01*
Y301981D01*
Y301842D01*
X377274D01*
Y301703D01*
Y301564D01*
Y301425D01*
X377414D01*
Y301286D01*
Y301147D01*
Y301007D01*
Y300868D01*
Y300729D01*
Y300590D01*
Y300451D01*
Y300311D01*
Y300172D01*
Y300033D01*
Y299894D01*
X377553D01*
Y299755D01*
Y299616D01*
Y299477D01*
Y299337D01*
Y299198D01*
Y299059D01*
Y298920D01*
Y298781D01*
Y298641D01*
Y298502D01*
X377414D01*
Y298363D01*
Y298224D01*
Y298085D01*
Y297946D01*
Y297807D01*
Y297667D01*
Y297528D01*
X377274D01*
Y297389D01*
Y297250D01*
Y297111D01*
X377135D01*
Y296972D01*
Y296832D01*
X376996D01*
Y296693D01*
Y296554D01*
X376857D01*
Y296415D01*
X376718D01*
Y296276D01*
X376579D01*
Y296136D01*
X376439D01*
Y295997D01*
X376300D01*
Y295858D01*
X376161D01*
Y295719D01*
X375883D01*
Y295580D01*
X375465D01*
Y295441D01*
X374908D01*
Y295301D01*
X371429D01*
Y295162D01*
Y295023D01*
X371290D01*
Y294884D01*
Y294745D01*
X371151D01*
Y294605D01*
Y294466D01*
X371012D01*
Y294327D01*
X370873D01*
Y294188D01*
Y294049D01*
X370733D01*
Y293910D01*
Y293771D01*
Y293631D01*
X371151D01*
Y293492D01*
X371568D01*
Y293353D01*
X371847D01*
Y293214D01*
X372125D01*
Y293075D01*
X372264D01*
Y292935D01*
X372404D01*
Y292796D01*
X372543D01*
Y292657D01*
X372682D01*
Y292518D01*
Y292379D01*
X372821D01*
Y292240D01*
Y292101D01*
X372960D01*
Y291961D01*
Y291822D01*
Y291683D01*
Y291544D01*
X373099D01*
Y291405D01*
Y291266D01*
Y291126D01*
Y290987D01*
Y290848D01*
Y290709D01*
Y290570D01*
Y290430D01*
Y290291D01*
Y290152D01*
Y290013D01*
Y289874D01*
Y289735D01*
Y289595D01*
Y289456D01*
Y289317D01*
Y289178D01*
Y289039D01*
Y288900D01*
Y288760D01*
Y288621D01*
Y288482D01*
Y288343D01*
Y288204D01*
Y288065D01*
Y287925D01*
Y287786D01*
Y287647D01*
X372960D01*
Y287508D01*
Y287369D01*
Y287230D01*
X372821D01*
Y287090D01*
Y286951D01*
Y286812D01*
X372682D01*
Y286673D01*
X372543D01*
Y286534D01*
X372404D01*
Y286395D01*
X372264D01*
Y286255D01*
X372125D01*
Y286116D01*
X371986D01*
Y285977D01*
X371708D01*
Y285838D01*
X371290D01*
Y285699D01*
X370455D01*
Y285560D01*
X364332D01*
Y285699D01*
X363497D01*
Y285838D01*
X363079D01*
Y285977D01*
X362801D01*
Y286116D01*
X362662D01*
Y286255D01*
X362383D01*
Y286395D01*
X362244D01*
Y286534D01*
Y286673D01*
X362105D01*
Y286812D01*
X361966D01*
Y286951D01*
Y287090D01*
X361827D01*
Y287230D01*
Y287369D01*
Y287508D01*
X361966D01*
Y287369D01*
Y287230D01*
Y287090D01*
X362105D01*
Y286951D01*
Y286812D01*
X362244D01*
Y286673D01*
X362383D01*
Y286534D01*
X362523D01*
Y286395D01*
X362801D01*
Y286255D01*
X362940D01*
Y286116D01*
X363218D01*
Y285977D01*
X363775D01*
Y285838D01*
X364749D01*
Y285699D01*
X369898D01*
Y285838D01*
X371012D01*
Y285977D01*
X371429D01*
Y286116D01*
X371708D01*
Y286255D01*
X371986D01*
Y286395D01*
X372125D01*
Y286534D01*
X372264D01*
Y286673D01*
X372404D01*
Y286812D01*
X372543D01*
Y286951D01*
X372682D01*
Y287090D01*
Y287230D01*
Y287369D01*
X372821D01*
Y287508D01*
Y287647D01*
Y287786D01*
X372960D01*
Y287925D01*
Y288065D01*
Y288204D01*
Y288343D01*
Y288482D01*
Y288621D01*
Y288760D01*
Y288900D01*
Y289039D01*
Y289178D01*
Y289317D01*
Y289456D01*
Y289595D01*
Y289735D01*
Y289874D01*
Y290013D01*
Y290152D01*
Y290291D01*
Y290430D01*
Y290570D01*
Y290709D01*
Y290848D01*
Y290987D01*
Y291126D01*
Y291266D01*
Y291405D01*
Y291544D01*
X372821D01*
Y291683D01*
Y291822D01*
Y291961D01*
Y292101D01*
X372682D01*
Y292240D01*
X372543D01*
Y292379D01*
Y292518D01*
X372404D01*
Y292657D01*
X372264D01*
Y292796D01*
X372125D01*
Y292935D01*
X371986D01*
Y293075D01*
X371708D01*
Y293214D01*
X371429D01*
Y293353D01*
X371012D01*
Y293492D01*
X370177D01*
Y293631D01*
X364749D01*
Y293492D01*
X363775D01*
Y293631D01*
X364610D01*
Y293771D01*
X368785D01*
Y293910D01*
X368924D01*
Y294049D01*
X369063D01*
Y294188D01*
Y294327D01*
X369203D01*
Y294466D01*
Y294605D01*
X369342D01*
Y294745D01*
Y294884D01*
X369481D01*
Y295023D01*
Y295162D01*
Y295301D01*
Y295441D01*
X369203D01*
Y295580D01*
X368924D01*
Y295719D01*
X368646D01*
Y295858D01*
X368368D01*
Y295997D01*
X368228D01*
Y296136D01*
X368089D01*
Y296276D01*
X367950D01*
Y296415D01*
X367811D01*
Y296554D01*
Y296693D01*
X367672D01*
Y296832D01*
X367532D01*
Y296972D01*
Y297111D01*
X367393D01*
Y297250D01*
Y297389D01*
Y297528D01*
Y297667D01*
X367254D01*
Y297807D01*
Y297946D01*
Y298085D01*
Y298224D01*
Y298363D01*
Y298502D01*
Y298641D01*
Y298781D01*
Y298920D01*
Y299059D01*
Y299198D01*
Y299337D01*
Y299477D01*
Y299616D01*
Y299755D01*
Y299894D01*
Y300033D01*
Y300172D01*
Y300311D01*
Y300451D01*
Y300590D01*
Y300729D01*
Y300868D01*
Y301007D01*
Y301147D01*
Y301286D01*
Y301425D01*
X367393D01*
Y301564D01*
Y301703D01*
Y301842D01*
X367115D01*
Y301981D01*
X366837D01*
Y302121D01*
X366558D01*
Y302260D01*
X366280D01*
Y302399D01*
X366141D01*
Y302538D01*
X365862D01*
Y302677D01*
X365584D01*
Y302817D01*
X365306D01*
Y302956D01*
X365027D01*
Y303095D01*
X364749D01*
Y303234D01*
X361827D01*
Y303373D01*
X361548D01*
Y303512D01*
X361409D01*
Y303652D01*
X361270D01*
Y303791D01*
X361131D01*
Y303930D01*
Y304069D01*
Y304208D01*
Y304347D01*
Y304487D01*
Y304626D01*
Y304765D01*
Y304904D01*
Y305043D01*
Y305183D01*
Y305322D01*
Y305461D01*
Y305600D01*
Y305739D01*
Y305878D01*
Y306017D01*
Y306157D01*
X361270D01*
Y306296D01*
X361409D01*
Y306435D01*
X361548D01*
Y306574D01*
X364888D01*
Y306435D01*
D02*
G37*
G36*
X345822Y293631D02*
X346518D01*
Y293492D01*
X347075D01*
Y293353D01*
X347214D01*
Y293214D01*
X347492D01*
Y293075D01*
X347631D01*
Y292935D01*
X347771D01*
Y292796D01*
X347910D01*
Y292657D01*
Y292518D01*
X348049D01*
Y292379D01*
Y292240D01*
Y292101D01*
X348188D01*
Y291961D01*
Y291822D01*
Y291683D01*
Y291544D01*
Y291405D01*
Y291266D01*
Y291126D01*
Y290987D01*
Y290848D01*
Y290709D01*
Y290570D01*
Y290430D01*
Y290291D01*
Y290152D01*
Y290013D01*
Y289874D01*
Y289735D01*
X348049D01*
Y289595D01*
Y289456D01*
Y289317D01*
X347910D01*
Y289178D01*
Y289039D01*
X347771D01*
Y288900D01*
X347631D01*
Y288760D01*
X347492D01*
Y288621D01*
X347353D01*
Y288482D01*
X347075D01*
Y288343D01*
X346796D01*
Y288204D01*
Y288065D01*
Y287925D01*
X346936D01*
Y287786D01*
X347075D01*
Y287647D01*
X347214D01*
Y287508D01*
X347353D01*
Y287369D01*
X347492D01*
Y287230D01*
X347631D01*
Y287090D01*
X347771D01*
Y286951D01*
X347910D01*
Y286812D01*
X348049D01*
Y286673D01*
Y286534D01*
X348188D01*
Y286395D01*
X348327D01*
Y286255D01*
X348466D01*
Y286116D01*
Y285977D01*
Y285838D01*
Y285699D01*
X348327D01*
Y285560D01*
X346240D01*
Y285699D01*
X345961D01*
Y285838D01*
X345822D01*
Y285977D01*
X345683D01*
Y286116D01*
X345544D01*
Y286255D01*
Y286395D01*
X345265D01*
Y286534D01*
Y286673D01*
X345126D01*
Y286812D01*
X344987D01*
Y286951D01*
X344848D01*
Y287090D01*
X344709D01*
Y287230D01*
X344570D01*
Y287369D01*
X344430D01*
Y287508D01*
X344291D01*
Y287647D01*
Y287786D01*
X344152D01*
Y287925D01*
X343874D01*
Y288065D01*
X340255D01*
Y287925D01*
Y287786D01*
Y287647D01*
Y287508D01*
Y287369D01*
Y287230D01*
Y287090D01*
Y286951D01*
Y286812D01*
Y286673D01*
Y286534D01*
Y286395D01*
Y286255D01*
Y286116D01*
Y285977D01*
Y285838D01*
X340116D01*
Y285699D01*
X339977D01*
Y285560D01*
X338168D01*
Y285699D01*
X337889D01*
Y285838D01*
Y285977D01*
Y286116D01*
Y286255D01*
Y286395D01*
Y286534D01*
Y286673D01*
Y286812D01*
Y286951D01*
Y287090D01*
Y287230D01*
Y287369D01*
Y287508D01*
Y287647D01*
Y287786D01*
Y287925D01*
Y288065D01*
Y288204D01*
Y288343D01*
Y288482D01*
Y288621D01*
Y288760D01*
Y288900D01*
Y289039D01*
Y289178D01*
Y289317D01*
Y289456D01*
Y289595D01*
Y289735D01*
Y289874D01*
Y290013D01*
Y290152D01*
Y290291D01*
Y290430D01*
Y290570D01*
Y290709D01*
Y290848D01*
Y290987D01*
Y291126D01*
Y291266D01*
Y291405D01*
Y291544D01*
Y291683D01*
Y291822D01*
Y291961D01*
Y292101D01*
Y292240D01*
Y292379D01*
Y292518D01*
Y292657D01*
Y292796D01*
Y292935D01*
Y293075D01*
Y293214D01*
Y293353D01*
Y293492D01*
Y293631D01*
X338168D01*
Y293771D01*
X345822D01*
Y293631D01*
D02*
G37*
G36*
X333297D02*
X334271D01*
Y293492D01*
X334688D01*
Y293353D01*
X335106D01*
Y293214D01*
X335245D01*
Y293075D01*
X335524D01*
Y292935D01*
X335663D01*
Y292796D01*
X335802D01*
Y292657D01*
X335941D01*
Y292518D01*
Y292379D01*
X336080D01*
Y292240D01*
Y292101D01*
Y291961D01*
X336219D01*
Y291822D01*
Y291683D01*
Y291544D01*
X336359D01*
Y291405D01*
Y291266D01*
Y291126D01*
Y290987D01*
Y290848D01*
Y290709D01*
Y290570D01*
Y290430D01*
Y290291D01*
Y290152D01*
Y290013D01*
Y289874D01*
Y289735D01*
Y289595D01*
Y289456D01*
Y289317D01*
Y289178D01*
Y289039D01*
Y288900D01*
Y288760D01*
Y288621D01*
Y288482D01*
Y288343D01*
Y288204D01*
Y288065D01*
Y287925D01*
X336219D01*
Y287786D01*
Y287647D01*
Y287508D01*
Y287369D01*
X336080D01*
Y287230D01*
Y287090D01*
X335941D01*
Y286951D01*
Y286812D01*
X335802D01*
Y286673D01*
X335663D01*
Y286534D01*
X335524D01*
Y286395D01*
X335384D01*
Y286255D01*
X335106D01*
Y286116D01*
X334688D01*
Y285977D01*
X334271D01*
Y285838D01*
Y285699D01*
Y285560D01*
X334410D01*
Y285420D01*
X334549D01*
Y285281D01*
Y285142D01*
X334688D01*
Y285003D01*
X334828D01*
Y284864D01*
X334967D01*
Y284724D01*
X335106D01*
Y284585D01*
X335245D01*
Y284446D01*
Y284307D01*
X335384D01*
Y284168D01*
Y284029D01*
X335245D01*
Y283890D01*
X332740D01*
Y284029D01*
Y284168D01*
X332601D01*
Y284307D01*
X332462D01*
Y284446D01*
X332323D01*
Y284585D01*
X332184D01*
Y284724D01*
X332044D01*
Y284864D01*
Y285003D01*
X331905D01*
Y285142D01*
X331766D01*
Y285281D01*
X331627D01*
Y285420D01*
X331488D01*
Y285560D01*
X331348D01*
Y285699D01*
X328704D01*
Y285838D01*
X326895D01*
Y285977D01*
X326478D01*
Y286116D01*
X326199D01*
Y286255D01*
X325921D01*
Y286395D01*
X325782D01*
Y286534D01*
X325503D01*
Y286673D01*
Y286812D01*
X325364D01*
Y286951D01*
X325225D01*
Y287090D01*
Y287230D01*
X325086D01*
Y287369D01*
Y287508D01*
X324947D01*
Y287647D01*
Y287786D01*
Y287925D01*
Y288065D01*
Y288204D01*
X325086D01*
Y288065D01*
Y287925D01*
Y287786D01*
Y287647D01*
Y287508D01*
X325225D01*
Y287369D01*
Y287230D01*
X325364D01*
Y287090D01*
Y286951D01*
X325503D01*
Y286812D01*
X325642D01*
Y286673D01*
X325782D01*
Y286534D01*
X326060D01*
Y286395D01*
X326199D01*
Y286255D01*
X326617D01*
Y286116D01*
X327173D01*
Y285977D01*
X331488D01*
Y285838D01*
X331627D01*
Y285699D01*
Y285560D01*
X331766D01*
Y285420D01*
X331905D01*
Y285281D01*
X332044D01*
Y285142D01*
X332184D01*
Y285003D01*
Y284864D01*
X332323D01*
Y284724D01*
X332462D01*
Y284585D01*
X332601D01*
Y284446D01*
Y284307D01*
X332740D01*
Y284168D01*
X332879D01*
Y284029D01*
X335106D01*
Y284168D01*
Y284307D01*
Y284446D01*
X334967D01*
Y284585D01*
X334828D01*
Y284724D01*
X334688D01*
Y284864D01*
X334549D01*
Y285003D01*
Y285142D01*
X334410D01*
Y285281D01*
X334271D01*
Y285420D01*
X334132D01*
Y285560D01*
X333993D01*
Y285699D01*
X333854D01*
Y285838D01*
X333714D01*
Y285977D01*
X333993D01*
Y286116D01*
X334549D01*
Y286255D01*
X334828D01*
Y286395D01*
X335106D01*
Y286534D01*
X335384D01*
Y286673D01*
X335524D01*
Y286812D01*
X335663D01*
Y286951D01*
Y287090D01*
X335802D01*
Y287230D01*
X335941D01*
Y287369D01*
Y287508D01*
Y287647D01*
X336080D01*
Y287786D01*
Y287925D01*
Y288065D01*
Y288204D01*
Y288343D01*
Y288482D01*
Y288621D01*
Y288760D01*
Y288900D01*
Y289039D01*
Y289178D01*
Y289317D01*
Y289456D01*
Y289595D01*
Y289735D01*
Y289874D01*
Y290013D01*
Y290152D01*
Y290291D01*
Y290430D01*
Y290570D01*
Y290709D01*
Y290848D01*
Y290987D01*
Y291126D01*
Y291266D01*
Y291405D01*
Y291544D01*
Y291683D01*
Y291822D01*
X335941D01*
Y291961D01*
Y292101D01*
Y292240D01*
X335802D01*
Y292379D01*
Y292518D01*
X335663D01*
Y292657D01*
X335524D01*
Y292796D01*
X335384D01*
Y292935D01*
X335245D01*
Y293075D01*
X334967D01*
Y293214D01*
X334688D01*
Y293353D01*
X334132D01*
Y293492D01*
X333158D01*
Y293631D01*
X328008D01*
Y293492D01*
X326895D01*
Y293631D01*
X327869D01*
Y293771D01*
X333297D01*
Y293631D01*
D02*
G37*
G36*
X367723Y281235D02*
X367224D01*
X367320Y281687D01*
X367816D01*
X367723Y281235D01*
D02*
G37*
G36*
X359768D02*
X359269D01*
X359365Y281687D01*
X359861D01*
X359768Y281235D01*
D02*
G37*
G36*
X332125Y281235D02*
X331626D01*
X331722Y281687D01*
X332218D01*
X332125Y281235D01*
D02*
G37*
G36*
X364382Y281731D02*
X364419Y281728D01*
X364463Y281724D01*
X364511Y281716D01*
X364563Y281709D01*
X364678Y281683D01*
X364737Y281665D01*
X364793Y281646D01*
X364852Y281620D01*
X364907Y281591D01*
X364959Y281557D01*
X365007Y281520D01*
X365011Y281517D01*
X365018Y281509D01*
X365030Y281498D01*
X365048Y281483D01*
X365067Y281461D01*
X365089Y281435D01*
X365111Y281406D01*
X365133Y281372D01*
X365159Y281332D01*
X365185Y281291D01*
X365207Y281243D01*
X365229Y281195D01*
X365248Y281139D01*
X365263Y281084D01*
X365274Y281021D01*
X365281Y280958D01*
X364778Y280936D01*
Y280939D01*
Y280943D01*
X364774Y280965D01*
X364763Y280999D01*
X364752Y281039D01*
X364734Y281084D01*
X364711Y281132D01*
X364682Y281176D01*
X364641Y281217D01*
X364637Y281221D01*
X364619Y281232D01*
X364593Y281250D01*
X364556Y281269D01*
X364511Y281283D01*
X364452Y281302D01*
X364382Y281313D01*
X364304Y281317D01*
X364267D01*
X364230Y281313D01*
X364182Y281306D01*
X364134Y281298D01*
X364082Y281283D01*
X364034Y281265D01*
X363994Y281239D01*
X363990Y281235D01*
X363979Y281224D01*
X363964Y281209D01*
X363949Y281187D01*
X363931Y281158D01*
X363916Y281124D01*
X363905Y281084D01*
X363901Y281043D01*
Y281039D01*
Y281025D01*
X363905Y281006D01*
X363912Y280980D01*
X363923Y280950D01*
X363938Y280921D01*
X363956Y280891D01*
X363986Y280862D01*
X363990Y280858D01*
X364005Y280847D01*
X364027Y280832D01*
X364064Y280810D01*
X364090Y280795D01*
X364116Y280780D01*
X364145Y280762D01*
X364182Y280743D01*
X364219Y280725D01*
X364264Y280703D01*
X364312Y280680D01*
X364364Y280658D01*
X364367Y280655D01*
X364382Y280651D01*
X364404Y280640D01*
X364434Y280629D01*
X364471Y280610D01*
X364511Y280592D01*
X364600Y280547D01*
X364697Y280499D01*
X364789Y280447D01*
X364833Y280421D01*
X364870Y280396D01*
X364904Y280370D01*
X364930Y280347D01*
X364933Y280344D01*
X364937Y280340D01*
X364948Y280329D01*
X364959Y280318D01*
X364989Y280277D01*
X365022Y280225D01*
X365055Y280162D01*
X365081Y280085D01*
X365104Y279996D01*
X365107Y279952D01*
X365111Y279900D01*
Y279896D01*
Y279885D01*
Y279866D01*
X365107Y279844D01*
X365104Y279815D01*
X365096Y279778D01*
X365089Y279741D01*
X365078Y279700D01*
X365063Y279656D01*
X365044Y279607D01*
X365022Y279559D01*
X364996Y279511D01*
X364967Y279463D01*
X364930Y279411D01*
X364889Y279367D01*
X364841Y279319D01*
X364837Y279315D01*
X364830Y279308D01*
X364811Y279297D01*
X364793Y279282D01*
X364763Y279263D01*
X364730Y279241D01*
X364693Y279223D01*
X364645Y279200D01*
X364597Y279174D01*
X364541Y279156D01*
X364478Y279134D01*
X364412Y279115D01*
X364341Y279100D01*
X364264Y279089D01*
X364182Y279082D01*
X364093Y279078D01*
X364038D01*
X364008Y279082D01*
X363975Y279086D01*
X363938D01*
X363897Y279093D01*
X363808Y279104D01*
X363712Y279123D01*
X363612Y279149D01*
X363520Y279186D01*
X363516D01*
X363509Y279189D01*
X363498Y279197D01*
X363479Y279208D01*
X363439Y279230D01*
X363387Y279267D01*
X363331Y279308D01*
X363276Y279363D01*
X363224Y279422D01*
X363179Y279493D01*
Y279496D01*
X363176Y279500D01*
X363172Y279511D01*
X363165Y279530D01*
X363157Y279548D01*
X363150Y279570D01*
X363131Y279626D01*
X363113Y279693D01*
X363098Y279770D01*
X363091Y279855D01*
X363087Y279948D01*
X363590Y279977D01*
Y279974D01*
Y279966D01*
Y279955D01*
X363594Y279940D01*
X363598Y279896D01*
X363605Y279848D01*
X363612Y279792D01*
X363627Y279737D01*
X363646Y279689D01*
X363672Y279652D01*
X363679Y279644D01*
X363694Y279630D01*
X363723Y279611D01*
X363768Y279585D01*
X363794Y279574D01*
X363827Y279559D01*
X363860Y279548D01*
X363901Y279541D01*
X363942Y279530D01*
X363990Y279526D01*
X364042Y279519D01*
X364138D01*
X364160Y279522D01*
X364186D01*
X364241Y279530D01*
X364301Y279541D01*
X364364Y279559D01*
X364423Y279581D01*
X364471Y279611D01*
X364475Y279615D01*
X364489Y279626D01*
X364508Y279648D01*
X364530Y279674D01*
X364552Y279707D01*
X364571Y279744D01*
X364585Y279785D01*
X364589Y279833D01*
Y279837D01*
Y279852D01*
X364585Y279874D01*
X364578Y279900D01*
X364567Y279929D01*
X364548Y279963D01*
X364526Y279996D01*
X364493Y280026D01*
X364489Y280029D01*
X364478Y280037D01*
X364456Y280051D01*
X364423Y280070D01*
X364401Y280085D01*
X364375Y280100D01*
X364345Y280114D01*
X364312Y280129D01*
X364271Y280148D01*
X364230Y280170D01*
X364178Y280192D01*
X364127Y280214D01*
X364123D01*
X364112Y280222D01*
X364097Y280225D01*
X364079Y280236D01*
X364053Y280247D01*
X364023Y280259D01*
X363960Y280288D01*
X363890Y280325D01*
X363816Y280359D01*
X363749Y280396D01*
X363716Y280414D01*
X363690Y280429D01*
X363683Y280433D01*
X363668Y280444D01*
X363642Y280466D01*
X363612Y280492D01*
X363579Y280521D01*
X363542Y280562D01*
X363509Y280606D01*
X363475Y280655D01*
X363472Y280662D01*
X363464Y280680D01*
X363450Y280710D01*
X363439Y280747D01*
X363424Y280795D01*
X363409Y280851D01*
X363402Y280913D01*
X363398Y280980D01*
Y280984D01*
Y280995D01*
Y281013D01*
X363402Y281036D01*
X363405Y281062D01*
X363409Y281095D01*
X363416Y281132D01*
X363427Y281169D01*
X363453Y281254D01*
X363475Y281298D01*
X363498Y281346D01*
X363524Y281391D01*
X363553Y281435D01*
X363590Y281480D01*
X363631Y281520D01*
X363635Y281524D01*
X363642Y281531D01*
X363657Y281539D01*
X363675Y281554D01*
X363698Y281568D01*
X363727Y281587D01*
X363764Y281609D01*
X363805Y281628D01*
X363849Y281646D01*
X363897Y281668D01*
X363953Y281687D01*
X364016Y281702D01*
X364082Y281716D01*
X364153Y281728D01*
X364227Y281731D01*
X364308Y281735D01*
X364352D01*
X364382Y281731D01*
D02*
G37*
G36*
X356823D02*
X356860Y281728D01*
X356904Y281724D01*
X356952Y281716D01*
X357004Y281709D01*
X357119Y281683D01*
X357178Y281665D01*
X357234Y281646D01*
X357293Y281620D01*
X357348Y281591D01*
X357400Y281557D01*
X357448Y281520D01*
X357452Y281517D01*
X357459Y281509D01*
X357470Y281498D01*
X357489Y281483D01*
X357507Y281461D01*
X357530Y281435D01*
X357552Y281406D01*
X357574Y281372D01*
X357600Y281332D01*
X357626Y281291D01*
X357648Y281243D01*
X357670Y281195D01*
X357689Y281139D01*
X357703Y281084D01*
X357715Y281021D01*
X357722Y280958D01*
X357219Y280936D01*
Y280939D01*
Y280943D01*
X357215Y280965D01*
X357204Y280999D01*
X357193Y281039D01*
X357174Y281084D01*
X357152Y281132D01*
X357123Y281176D01*
X357082Y281217D01*
X357078Y281221D01*
X357060Y281232D01*
X357034Y281250D01*
X356997Y281269D01*
X356952Y281283D01*
X356893Y281302D01*
X356823Y281313D01*
X356745Y281317D01*
X356708D01*
X356671Y281313D01*
X356623Y281306D01*
X356575Y281298D01*
X356523Y281283D01*
X356475Y281265D01*
X356434Y281239D01*
X356431Y281235D01*
X356420Y281224D01*
X356405Y281209D01*
X356390Y281187D01*
X356371Y281158D01*
X356357Y281124D01*
X356346Y281084D01*
X356342Y281043D01*
Y281039D01*
Y281025D01*
X356346Y281006D01*
X356353Y280980D01*
X356364Y280950D01*
X356379Y280921D01*
X356397Y280891D01*
X356427Y280862D01*
X356431Y280858D01*
X356446Y280847D01*
X356468Y280832D01*
X356505Y280810D01*
X356531Y280795D01*
X356557Y280780D01*
X356586Y280762D01*
X356623Y280743D01*
X356660Y280725D01*
X356704Y280703D01*
X356753Y280680D01*
X356804Y280658D01*
X356808Y280655D01*
X356823Y280651D01*
X356845Y280640D01*
X356875Y280629D01*
X356912Y280610D01*
X356952Y280592D01*
X357041Y280547D01*
X357137Y280499D01*
X357230Y280447D01*
X357274Y280421D01*
X357311Y280396D01*
X357345Y280370D01*
X357370Y280347D01*
X357374Y280344D01*
X357378Y280340D01*
X357389Y280329D01*
X357400Y280318D01*
X357430Y280277D01*
X357463Y280225D01*
X357496Y280162D01*
X357522Y280085D01*
X357544Y279996D01*
X357548Y279952D01*
X357552Y279900D01*
Y279896D01*
Y279885D01*
Y279866D01*
X357548Y279844D01*
X357544Y279815D01*
X357537Y279778D01*
X357530Y279741D01*
X357519Y279700D01*
X357504Y279656D01*
X357485Y279607D01*
X357463Y279559D01*
X357437Y279511D01*
X357407Y279463D01*
X357370Y279411D01*
X357330Y279367D01*
X357282Y279319D01*
X357278Y279315D01*
X357271Y279308D01*
X357252Y279297D01*
X357234Y279282D01*
X357204Y279263D01*
X357171Y279241D01*
X357134Y279223D01*
X357086Y279200D01*
X357037Y279174D01*
X356982Y279156D01*
X356919Y279134D01*
X356853Y279115D01*
X356782Y279100D01*
X356704Y279089D01*
X356623Y279082D01*
X356534Y279078D01*
X356479D01*
X356449Y279082D01*
X356416Y279086D01*
X356379D01*
X356338Y279093D01*
X356249Y279104D01*
X356153Y279123D01*
X356053Y279149D01*
X355961Y279186D01*
X355957D01*
X355950Y279189D01*
X355939Y279197D01*
X355920Y279208D01*
X355879Y279230D01*
X355828Y279267D01*
X355772Y279308D01*
X355717Y279363D01*
X355665Y279422D01*
X355620Y279493D01*
Y279496D01*
X355617Y279500D01*
X355613Y279511D01*
X355606Y279530D01*
X355598Y279548D01*
X355591Y279570D01*
X355572Y279626D01*
X355554Y279693D01*
X355539Y279770D01*
X355532Y279855D01*
X355528Y279948D01*
X356031Y279977D01*
Y279974D01*
Y279966D01*
Y279955D01*
X356035Y279940D01*
X356038Y279896D01*
X356046Y279848D01*
X356053Y279792D01*
X356068Y279737D01*
X356087Y279689D01*
X356113Y279652D01*
X356120Y279644D01*
X356135Y279630D01*
X356164Y279611D01*
X356209Y279585D01*
X356235Y279574D01*
X356268Y279559D01*
X356301Y279548D01*
X356342Y279541D01*
X356383Y279530D01*
X356431Y279526D01*
X356483Y279519D01*
X356579D01*
X356601Y279522D01*
X356627D01*
X356682Y279530D01*
X356741Y279541D01*
X356804Y279559D01*
X356864Y279581D01*
X356912Y279611D01*
X356915Y279615D01*
X356930Y279626D01*
X356949Y279648D01*
X356971Y279674D01*
X356993Y279707D01*
X357012Y279744D01*
X357026Y279785D01*
X357030Y279833D01*
Y279837D01*
Y279852D01*
X357026Y279874D01*
X357019Y279900D01*
X357008Y279929D01*
X356989Y279963D01*
X356967Y279996D01*
X356934Y280026D01*
X356930Y280029D01*
X356919Y280037D01*
X356897Y280051D01*
X356864Y280070D01*
X356841Y280085D01*
X356816Y280100D01*
X356786Y280114D01*
X356753Y280129D01*
X356712Y280148D01*
X356671Y280170D01*
X356619Y280192D01*
X356568Y280214D01*
X356564D01*
X356553Y280222D01*
X356538Y280225D01*
X356520Y280236D01*
X356494Y280247D01*
X356464Y280259D01*
X356401Y280288D01*
X356331Y280325D01*
X356257Y280359D01*
X356190Y280396D01*
X356157Y280414D01*
X356131Y280429D01*
X356124Y280433D01*
X356109Y280444D01*
X356083Y280466D01*
X356053Y280492D01*
X356020Y280521D01*
X355983Y280562D01*
X355950Y280606D01*
X355916Y280655D01*
X355913Y280662D01*
X355905Y280680D01*
X355890Y280710D01*
X355879Y280747D01*
X355865Y280795D01*
X355850Y280851D01*
X355842Y280913D01*
X355839Y280980D01*
Y280984D01*
Y280995D01*
Y281013D01*
X355842Y281036D01*
X355846Y281062D01*
X355850Y281095D01*
X355857Y281132D01*
X355868Y281169D01*
X355894Y281254D01*
X355916Y281298D01*
X355939Y281346D01*
X355964Y281391D01*
X355994Y281435D01*
X356031Y281480D01*
X356072Y281520D01*
X356076Y281524D01*
X356083Y281531D01*
X356098Y281539D01*
X356116Y281554D01*
X356138Y281568D01*
X356168Y281587D01*
X356205Y281609D01*
X356246Y281628D01*
X356290Y281646D01*
X356338Y281668D01*
X356394Y281687D01*
X356457Y281702D01*
X356523Y281716D01*
X356593Y281728D01*
X356667Y281731D01*
X356749Y281735D01*
X356793D01*
X356823Y281731D01*
D02*
G37*
G36*
X374472Y281021D02*
X374516Y281017D01*
X374568Y281010D01*
X374627Y280991D01*
X374687Y280969D01*
X374746Y280936D01*
X374801Y280891D01*
X374809Y280884D01*
X374823Y280869D01*
X374842Y280839D01*
X374868Y280799D01*
X374894Y280747D01*
X374912Y280688D01*
X374927Y280621D01*
X374934Y280543D01*
Y280540D01*
Y280525D01*
X374931Y280499D01*
X374923Y280458D01*
X374916Y280410D01*
X374905Y280344D01*
X374897Y280307D01*
X374890Y280266D01*
X374879Y280222D01*
X374868Y280173D01*
X374642Y279126D01*
X374146D01*
X374372Y280177D01*
Y280181D01*
X374376Y280188D01*
Y280199D01*
X374379Y280214D01*
X374387Y280255D01*
X374398Y280299D01*
X374405Y280347D01*
X374413Y280396D01*
X374420Y280433D01*
X374424Y280447D01*
Y280458D01*
Y280462D01*
Y280473D01*
X374420Y280492D01*
X374416Y280514D01*
X374409Y280536D01*
X374398Y280562D01*
X374383Y280588D01*
X374365Y280610D01*
X374361Y280614D01*
X374354Y280617D01*
X374342Y280629D01*
X374324Y280640D01*
X374302Y280647D01*
X374276Y280658D01*
X374242Y280662D01*
X374205Y280666D01*
X374187D01*
X374165Y280662D01*
X374131Y280655D01*
X374095Y280643D01*
X374054Y280625D01*
X374009Y280603D01*
X373958Y280573D01*
X373950Y280569D01*
X373935Y280555D01*
X373909Y280536D01*
X373880Y280506D01*
X373847Y280473D01*
X373810Y280433D01*
X373776Y280384D01*
X373743Y280329D01*
X373739Y280325D01*
X373732Y280307D01*
X373721Y280277D01*
X373713Y280255D01*
X373706Y280233D01*
X373699Y280203D01*
X373688Y280173D01*
X373676Y280136D01*
X373665Y280096D01*
X373654Y280051D01*
X373639Y280000D01*
X373628Y279944D01*
X373614Y279885D01*
X373454Y279126D01*
X372959D01*
X373347Y280984D01*
X373821D01*
X373773Y280740D01*
X373776D01*
X373780Y280747D01*
X373802Y280766D01*
X373839Y280791D01*
X373884Y280825D01*
X373935Y280858D01*
X373991Y280895D01*
X374050Y280928D01*
X374109Y280958D01*
X374117Y280962D01*
X374135Y280969D01*
X374168Y280980D01*
X374209Y280991D01*
X374257Y281002D01*
X374313Y281013D01*
X374372Y281021D01*
X374435Y281025D01*
X374457D01*
X374472Y281021D01*
D02*
G37*
G36*
X361344D02*
X361389Y281017D01*
X361440Y281010D01*
X361500Y280991D01*
X361559Y280969D01*
X361618Y280936D01*
X361674Y280891D01*
X361681Y280884D01*
X361696Y280869D01*
X361714Y280839D01*
X361740Y280799D01*
X361766Y280747D01*
X361785Y280688D01*
X361799Y280621D01*
X361807Y280543D01*
Y280540D01*
Y280525D01*
X361803Y280499D01*
X361796Y280458D01*
X361788Y280410D01*
X361777Y280344D01*
X361770Y280307D01*
X361762Y280266D01*
X361751Y280222D01*
X361740Y280173D01*
X361514Y279126D01*
X361019D01*
X361244Y280177D01*
Y280181D01*
X361248Y280188D01*
Y280199D01*
X361252Y280214D01*
X361259Y280255D01*
X361270Y280299D01*
X361278Y280347D01*
X361285Y280396D01*
X361293Y280433D01*
X361296Y280447D01*
Y280458D01*
Y280462D01*
Y280473D01*
X361293Y280492D01*
X361289Y280514D01*
X361281Y280536D01*
X361270Y280562D01*
X361256Y280588D01*
X361237Y280610D01*
X361233Y280614D01*
X361226Y280617D01*
X361215Y280629D01*
X361196Y280640D01*
X361174Y280647D01*
X361148Y280658D01*
X361115Y280662D01*
X361078Y280666D01*
X361059D01*
X361037Y280662D01*
X361004Y280655D01*
X360967Y280643D01*
X360926Y280625D01*
X360882Y280603D01*
X360830Y280573D01*
X360823Y280569D01*
X360808Y280555D01*
X360782Y280536D01*
X360752Y280506D01*
X360719Y280473D01*
X360682Y280433D01*
X360649Y280384D01*
X360615Y280329D01*
X360612Y280325D01*
X360604Y280307D01*
X360593Y280277D01*
X360586Y280255D01*
X360578Y280233D01*
X360571Y280203D01*
X360560Y280173D01*
X360549Y280136D01*
X360538Y280096D01*
X360527Y280051D01*
X360512Y280000D01*
X360501Y279944D01*
X360486Y279885D01*
X360327Y279126D01*
X359831D01*
X360220Y280984D01*
X360693D01*
X360645Y280740D01*
X360649D01*
X360652Y280747D01*
X360675Y280766D01*
X360712Y280791D01*
X360756Y280825D01*
X360808Y280858D01*
X360863Y280895D01*
X360923Y280928D01*
X360982Y280958D01*
X360989Y280962D01*
X361008Y280969D01*
X361041Y280980D01*
X361082Y280991D01*
X361130Y281002D01*
X361185Y281013D01*
X361244Y281021D01*
X361307Y281025D01*
X361330D01*
X361344Y281021D01*
D02*
G37*
G36*
X335888Y281021D02*
X335933Y281017D01*
X335984Y281010D01*
X336044Y280991D01*
X336103Y280969D01*
X336162Y280936D01*
X336218Y280891D01*
X336225Y280884D01*
X336240Y280869D01*
X336258Y280839D01*
X336284Y280799D01*
X336310Y280747D01*
X336329Y280688D01*
X336343Y280621D01*
X336351Y280543D01*
Y280540D01*
Y280525D01*
X336347Y280499D01*
X336340Y280458D01*
X336332Y280410D01*
X336321Y280344D01*
X336314Y280307D01*
X336306Y280266D01*
X336295Y280222D01*
X336284Y280173D01*
X336058Y279126D01*
X335563D01*
X335788Y280177D01*
Y280181D01*
X335792Y280188D01*
Y280199D01*
X335796Y280214D01*
X335803Y280255D01*
X335814Y280299D01*
X335822Y280347D01*
X335829Y280396D01*
X335837Y280433D01*
X335840Y280447D01*
Y280458D01*
Y280462D01*
Y280473D01*
X335837Y280492D01*
X335833Y280514D01*
X335825Y280536D01*
X335814Y280562D01*
X335800Y280588D01*
X335781Y280610D01*
X335777Y280614D01*
X335770Y280617D01*
X335759Y280629D01*
X335740Y280640D01*
X335718Y280647D01*
X335692Y280658D01*
X335659Y280662D01*
X335622Y280666D01*
X335603D01*
X335581Y280662D01*
X335548Y280655D01*
X335511Y280643D01*
X335470Y280625D01*
X335426Y280603D01*
X335374Y280573D01*
X335367Y280569D01*
X335352Y280555D01*
X335326Y280536D01*
X335296Y280506D01*
X335263Y280473D01*
X335226Y280433D01*
X335193Y280384D01*
X335159Y280329D01*
X335156Y280325D01*
X335148Y280307D01*
X335137Y280277D01*
X335130Y280255D01*
X335122Y280233D01*
X335115Y280203D01*
X335104Y280173D01*
X335093Y280136D01*
X335082Y280096D01*
X335071Y280051D01*
X335056Y280000D01*
X335045Y279944D01*
X335030Y279885D01*
X334871Y279126D01*
X334375D01*
X334764Y280984D01*
X335237D01*
X335189Y280740D01*
X335193D01*
X335196Y280747D01*
X335219Y280766D01*
X335256Y280791D01*
X335300Y280825D01*
X335352Y280858D01*
X335407Y280895D01*
X335467Y280928D01*
X335526Y280958D01*
X335533Y280962D01*
X335552Y280969D01*
X335585Y280980D01*
X335626Y280991D01*
X335674Y281002D01*
X335729Y281013D01*
X335788Y281021D01*
X335851Y281025D01*
X335874D01*
X335888Y281021D01*
D02*
G37*
G36*
X340254Y279126D02*
X339784D01*
X339825Y279323D01*
X339818Y279315D01*
X339803Y279300D01*
X339773Y279278D01*
X339740Y279248D01*
X339699Y279219D01*
X339655Y279186D01*
X339607Y279160D01*
X339555Y279134D01*
X339548Y279130D01*
X339533Y279126D01*
X339503Y279115D01*
X339466Y279108D01*
X339422Y279097D01*
X339374Y279086D01*
X339315Y279082D01*
X339255Y279078D01*
X339229D01*
X339207Y279082D01*
X339181Y279086D01*
X339155Y279089D01*
X339089Y279104D01*
X339015Y279126D01*
X338937Y279160D01*
X338896Y279182D01*
X338859Y279211D01*
X338822Y279241D01*
X338789Y279274D01*
X338785Y279278D01*
X338782Y279286D01*
X338774Y279297D01*
X338763Y279311D01*
X338748Y279330D01*
X338734Y279356D01*
X338719Y279385D01*
X338700Y279422D01*
X338685Y279459D01*
X338667Y279504D01*
X338652Y279552D01*
X338641Y279604D01*
X338626Y279659D01*
X338619Y279718D01*
X338615Y279785D01*
X338612Y279855D01*
Y279859D01*
Y279874D01*
Y279900D01*
X338615Y279929D01*
X338619Y279970D01*
X338626Y280014D01*
X338634Y280066D01*
X338645Y280125D01*
X338656Y280185D01*
X338674Y280247D01*
X338693Y280314D01*
X338719Y280384D01*
X338748Y280455D01*
X338782Y280525D01*
X338822Y280595D01*
X338867Y280662D01*
X338871Y280666D01*
X338878Y280677D01*
X338893Y280695D01*
X338915Y280717D01*
X338937Y280747D01*
X338970Y280777D01*
X339007Y280810D01*
X339048Y280843D01*
X339092Y280876D01*
X339144Y280910D01*
X339200Y280939D01*
X339259Y280969D01*
X339322Y280991D01*
X339392Y281010D01*
X339462Y281021D01*
X339540Y281025D01*
X339559D01*
X339577Y281021D01*
X339603D01*
X339633Y281017D01*
X339670Y281010D01*
X339710Y280999D01*
X339755Y280988D01*
X339799Y280973D01*
X339847Y280950D01*
X339895Y280928D01*
X339940Y280899D01*
X339988Y280865D01*
X340032Y280825D01*
X340073Y280777D01*
X340110Y280725D01*
X340321Y281687D01*
X340817D01*
X340254Y279126D01*
D02*
G37*
G36*
X366750Y281021D02*
X366780Y281017D01*
X366813Y281010D01*
X366854Y281002D01*
X366898Y280988D01*
X366942Y280969D01*
X366750Y280558D01*
X366746D01*
X366739Y280562D01*
X366724Y280566D01*
X366706Y280573D01*
X366657Y280580D01*
X366602Y280584D01*
X366580D01*
X366554Y280580D01*
X366521Y280573D01*
X366480Y280558D01*
X366436Y280543D01*
X366387Y280518D01*
X366336Y280484D01*
X366328Y280481D01*
X366313Y280466D01*
X366291Y280444D01*
X366262Y280418D01*
X366228Y280381D01*
X366191Y280336D01*
X366158Y280285D01*
X366128Y280225D01*
X366125Y280218D01*
X366121Y280207D01*
X366117Y280196D01*
X366110Y280177D01*
X366103Y280155D01*
X366091Y280129D01*
X366084Y280100D01*
X366073Y280066D01*
X366058Y280029D01*
X366047Y279985D01*
X366036Y279937D01*
X366021Y279889D01*
X366006Y279833D01*
X365995Y279770D01*
X365980Y279707D01*
X365858Y279126D01*
X365363D01*
X365751Y280984D01*
X366217D01*
X366143Y280625D01*
X366147Y280629D01*
X366154Y280643D01*
X366169Y280662D01*
X366188Y280688D01*
X366213Y280717D01*
X366243Y280751D01*
X366276Y280788D01*
X366313Y280825D01*
X366399Y280899D01*
X366443Y280932D01*
X366495Y280962D01*
X366543Y280988D01*
X366598Y281006D01*
X366654Y281021D01*
X366709Y281025D01*
X366728D01*
X366750Y281021D01*
D02*
G37*
G36*
X330309Y281021D02*
X330338D01*
X330372Y281017D01*
X330453Y281010D01*
X330538Y280991D01*
X330631Y280969D01*
X330716Y280936D01*
X330753Y280913D01*
X330790Y280891D01*
X330793D01*
X330797Y280884D01*
X330819Y280869D01*
X330853Y280839D01*
X330890Y280799D01*
X330930Y280747D01*
X330967Y280688D01*
X331001Y280617D01*
X331027Y280536D01*
X330564Y280458D01*
Y280462D01*
X330557Y280473D01*
X330549Y280492D01*
X330534Y280514D01*
X330520Y280540D01*
X330497Y280562D01*
X330471Y280588D01*
X330442Y280606D01*
X330438Y280610D01*
X330423Y280617D01*
X330398Y280629D01*
X330368Y280643D01*
X330327Y280655D01*
X330283Y280666D01*
X330231Y280673D01*
X330172Y280677D01*
X330146D01*
X330116Y280673D01*
X330083Y280669D01*
X330046Y280662D01*
X330009Y280655D01*
X329972Y280640D01*
X329942Y280621D01*
X329939Y280617D01*
X329931Y280614D01*
X329920Y280603D01*
X329909Y280588D01*
X329887Y280551D01*
X329879Y280529D01*
X329876Y280503D01*
Y280499D01*
Y280492D01*
X329879Y280477D01*
X329883Y280462D01*
X329891Y280444D01*
X329905Y280425D01*
X329920Y280407D01*
X329942Y280388D01*
X329946D01*
X329954Y280381D01*
X329968Y280373D01*
X329994Y280366D01*
X330031Y280351D01*
X330053Y280344D01*
X330083Y280333D01*
X330113Y280325D01*
X330146Y280314D01*
X330183Y280299D01*
X330227Y280288D01*
X330231D01*
X330242Y280285D01*
X330261Y280277D01*
X330287Y280270D01*
X330316Y280259D01*
X330349Y280247D01*
X330427Y280222D01*
X330508Y280192D01*
X330590Y280155D01*
X330627Y280136D01*
X330664Y280118D01*
X330694Y280100D01*
X330719Y280081D01*
X330723D01*
X330727Y280074D01*
X330749Y280055D01*
X330775Y280022D01*
X330808Y279981D01*
X330841Y279929D01*
X330871Y279870D01*
X330890Y279803D01*
X330893Y279767D01*
X330897Y279730D01*
Y279726D01*
Y279718D01*
Y279704D01*
X330893Y279685D01*
X330890Y279663D01*
X330886Y279637D01*
X330867Y279574D01*
X330841Y279504D01*
X330823Y279463D01*
X330801Y279426D01*
X330775Y279385D01*
X330745Y279348D01*
X330712Y279308D01*
X330671Y279271D01*
X330668Y279267D01*
X330660Y279263D01*
X330649Y279252D01*
X330631Y279241D01*
X330608Y279226D01*
X330579Y279211D01*
X330545Y279193D01*
X330508Y279174D01*
X330468Y279156D01*
X330420Y279137D01*
X330372Y279123D01*
X330312Y279108D01*
X330253Y279097D01*
X330190Y279086D01*
X330120Y279082D01*
X330046Y279078D01*
X330009D01*
X329979Y279082D01*
X329946D01*
X329905Y279086D01*
X329865Y279089D01*
X329817Y279097D01*
X329717Y279115D01*
X329613Y279137D01*
X329513Y279174D01*
X329469Y279197D01*
X329424Y279223D01*
X329421D01*
X329413Y279230D01*
X329402Y279237D01*
X329387Y279248D01*
X329350Y279286D01*
X329306Y279330D01*
X329258Y279389D01*
X329206Y279463D01*
X329162Y279544D01*
X329128Y279641D01*
X329613Y279718D01*
X329617Y279711D01*
X329624Y279693D01*
X329639Y279667D01*
X329658Y279633D01*
X329680Y279596D01*
X329706Y279559D01*
X329739Y279526D01*
X329772Y279500D01*
X329776Y279496D01*
X329791Y279489D01*
X329813Y279482D01*
X329842Y279470D01*
X329879Y279456D01*
X329924Y279448D01*
X329976Y279441D01*
X330035Y279437D01*
X330065D01*
X330094Y279441D01*
X330135Y279448D01*
X330179Y279456D01*
X330227Y279467D01*
X330272Y279485D01*
X330312Y279511D01*
X330316Y279515D01*
X330324Y279522D01*
X330335Y279533D01*
X330349Y279548D01*
X330375Y279589D01*
X330383Y279611D01*
X330386Y279641D01*
Y279644D01*
Y279648D01*
X330383Y279670D01*
X330372Y279700D01*
X330349Y279730D01*
X330346Y279733D01*
X330342Y279737D01*
X330327Y279744D01*
X330309Y279755D01*
X330279Y279770D01*
X330242Y279789D01*
X330198Y279807D01*
X330138Y279826D01*
X330135D01*
X330120Y279833D01*
X330094Y279840D01*
X330065Y279852D01*
X330031Y279863D01*
X329991Y279877D01*
X329898Y279911D01*
X329802Y279952D01*
X329709Y279989D01*
X329665Y280011D01*
X329628Y280029D01*
X329598Y280048D01*
X329572Y280063D01*
X329565Y280070D01*
X329546Y280088D01*
X329521Y280118D01*
X329491Y280159D01*
X329458Y280210D01*
X329432Y280273D01*
X329413Y280344D01*
X329410Y280381D01*
X329406Y280421D01*
Y280425D01*
Y280433D01*
Y280444D01*
X329410Y280458D01*
X329413Y280499D01*
X329428Y280551D01*
X329447Y280610D01*
X329476Y280673D01*
X329517Y280736D01*
X329539Y280769D01*
X329569Y280799D01*
X329572Y280802D01*
X329580Y280810D01*
X329595Y280821D01*
X329613Y280836D01*
X329635Y280851D01*
X329665Y280869D01*
X329698Y280891D01*
X329739Y280913D01*
X329787Y280932D01*
X329835Y280954D01*
X329891Y280973D01*
X329954Y280991D01*
X330020Y281002D01*
X330090Y281013D01*
X330168Y281021D01*
X330250Y281025D01*
X330283D01*
X330309Y281021D01*
D02*
G37*
G36*
X344842Y278945D02*
Y278941D01*
X344835Y278934D01*
X344828Y278923D01*
X344820Y278904D01*
X344794Y278860D01*
X344761Y278808D01*
X344724Y278749D01*
X344687Y278690D01*
X344650Y278638D01*
X344617Y278594D01*
X344613Y278590D01*
X344602Y278575D01*
X344587Y278557D01*
X344565Y278534D01*
X344535Y278508D01*
X344502Y278483D01*
X344465Y278457D01*
X344424Y278431D01*
X344421Y278427D01*
X344406Y278423D01*
X344380Y278412D01*
X344346Y278401D01*
X344306Y278390D01*
X344261Y278383D01*
X344210Y278375D01*
X344150Y278372D01*
X344121D01*
X344091Y278375D01*
X344047Y278379D01*
X343995Y278386D01*
X343932Y278397D01*
X343865Y278412D01*
X343795Y278431D01*
X343836Y278804D01*
X343840D01*
X343851Y278801D01*
X343869Y278797D01*
X343891Y278790D01*
X343917Y278786D01*
X343947Y278779D01*
X344010Y278775D01*
X344021D01*
X344032Y278779D01*
X344047Y278782D01*
X344091Y278793D01*
X344117Y278804D01*
X344143Y278819D01*
X344173Y278838D01*
X344202Y278860D01*
X344235Y278890D01*
X344269Y278923D01*
X344298Y278964D01*
X344332Y279012D01*
X344361Y279064D01*
X344391Y279126D01*
X344069Y280984D01*
X344568D01*
X344691Y280055D01*
Y280051D01*
X344694Y280040D01*
Y280022D01*
X344698Y279996D01*
X344702Y279970D01*
X344705Y279937D01*
X344717Y279859D01*
X344724Y279778D01*
X344735Y279696D01*
X344742Y279622D01*
X344746Y279589D01*
Y279563D01*
X344750Y279570D01*
X344757Y279589D01*
X344765Y279607D01*
X344776Y279633D01*
X344787Y279667D01*
X344802Y279700D01*
X344816Y279741D01*
X344857Y279829D01*
X344901Y279929D01*
X344957Y280040D01*
X345016Y280155D01*
X345460Y280984D01*
X345989D01*
X344842Y278945D01*
D02*
G37*
G36*
X378246Y281021D02*
X378275D01*
X378309Y281017D01*
X378386Y281006D01*
X378475Y280991D01*
X378560Y280965D01*
X378645Y280928D01*
X378682Y280906D01*
X378716Y280880D01*
X378719D01*
X378723Y280873D01*
X378742Y280854D01*
X378771Y280825D01*
X378805Y280780D01*
X378834Y280729D01*
X378864Y280669D01*
X378882Y280603D01*
X378890Y280566D01*
Y280525D01*
Y280521D01*
Y280510D01*
Y280495D01*
X378886Y280473D01*
Y280447D01*
X378882Y280418D01*
X378871Y280347D01*
Y280344D01*
X378868Y280325D01*
X378864Y280314D01*
Y280296D01*
X378856Y280277D01*
X378853Y280251D01*
X378845Y280222D01*
X378838Y280185D01*
X378831Y280144D01*
X378823Y280100D01*
X378812Y280048D01*
X378797Y279989D01*
X378782Y279922D01*
X378768Y279852D01*
Y279848D01*
X378764Y279837D01*
X378760Y279822D01*
X378756Y279800D01*
X378753Y279770D01*
X378745Y279741D01*
X378734Y279670D01*
X378719Y279593D01*
X378708Y279519D01*
X378701Y279448D01*
X378697Y279415D01*
Y279389D01*
Y279385D01*
Y279367D01*
X378701Y279345D01*
Y279311D01*
X378708Y279274D01*
X378716Y279230D01*
X378723Y279178D01*
X378738Y279126D01*
X378253D01*
Y279130D01*
X378250Y279145D01*
X378242Y279163D01*
X378235Y279189D01*
X378231Y279223D01*
X378224Y279256D01*
X378216Y279334D01*
X378213Y279330D01*
X378198Y279315D01*
X378172Y279293D01*
X378142Y279263D01*
X378105Y279234D01*
X378061Y279204D01*
X378013Y279171D01*
X377961Y279145D01*
X377954Y279141D01*
X377935Y279134D01*
X377909Y279123D01*
X377872Y279112D01*
X377828Y279100D01*
X377780Y279089D01*
X377728Y279082D01*
X377672Y279078D01*
X377650D01*
X377635Y279082D01*
X377591Y279086D01*
X377539Y279097D01*
X377480Y279115D01*
X377413Y279141D01*
X377350Y279178D01*
X377291Y279226D01*
X377284Y279234D01*
X377269Y279252D01*
X377243Y279286D01*
X377217Y279334D01*
X377191Y279389D01*
X377166Y279456D01*
X377151Y279533D01*
X377143Y279619D01*
Y279622D01*
Y279630D01*
Y279644D01*
X377147Y279663D01*
Y279685D01*
X377151Y279711D01*
X377166Y279770D01*
X377184Y279840D01*
X377214Y279911D01*
X377254Y279981D01*
X377276Y280014D01*
X377306Y280044D01*
X377310Y280048D01*
X377313Y280051D01*
X377325Y280059D01*
X377339Y280070D01*
X377358Y280081D01*
X377380Y280096D01*
X377410Y280111D01*
X377443Y280129D01*
X377480Y280144D01*
X377524Y280162D01*
X377572Y280177D01*
X377628Y280192D01*
X377687Y280207D01*
X377750Y280218D01*
X377820Y280229D01*
X377898Y280236D01*
X377913D01*
X377931Y280240D01*
X377957D01*
X377983Y280244D01*
X378016Y280247D01*
X378091Y280259D01*
X378172Y280266D01*
X378250Y280281D01*
X378287Y280288D01*
X378320Y280296D01*
X378349Y280303D01*
X378375Y280310D01*
Y280314D01*
X378379Y280329D01*
X378386Y280347D01*
X378394Y280370D01*
X378405Y280425D01*
X378409Y280451D01*
Y280477D01*
Y280481D01*
Y280492D01*
X378405Y280503D01*
X378401Y280521D01*
X378394Y280543D01*
X378379Y280566D01*
X378364Y280588D01*
X378342Y280610D01*
X378338Y280614D01*
X378331Y280617D01*
X378316Y280629D01*
X378294Y280640D01*
X378264Y280647D01*
X378235Y280658D01*
X378194Y280662D01*
X378150Y280666D01*
X378128D01*
X378102Y280662D01*
X378072Y280658D01*
X378039Y280651D01*
X378002Y280643D01*
X377968Y280629D01*
X377935Y280610D01*
X377931Y280606D01*
X377924Y280599D01*
X377909Y280588D01*
X377894Y280569D01*
X377876Y280547D01*
X377857Y280521D01*
X377843Y280492D01*
X377832Y280458D01*
X377343Y280499D01*
Y280503D01*
X377347Y280510D01*
X377350Y280521D01*
X377358Y280540D01*
X377380Y280584D01*
X377410Y280640D01*
X377450Y280699D01*
X377499Y280766D01*
X377561Y280828D01*
X377632Y280884D01*
X377635D01*
X377643Y280891D01*
X377654Y280899D01*
X377669Y280906D01*
X377691Y280917D01*
X377717Y280928D01*
X377746Y280939D01*
X377780Y280954D01*
X377817Y280969D01*
X377861Y280980D01*
X377906Y280991D01*
X377954Y281002D01*
X378065Y281017D01*
X378187Y281025D01*
X378220D01*
X378246Y281021D01*
D02*
G37*
G36*
X375882Y280351D02*
X376540Y280984D01*
X377191D01*
X376444Y280314D01*
X376847Y279126D01*
X376344D01*
X376085Y279989D01*
X375741Y279678D01*
X375623Y279126D01*
X375127D01*
X375663Y281687D01*
X376159D01*
X375882Y280351D01*
D02*
G37*
G36*
X372078Y281021D02*
X372108D01*
X372141Y281017D01*
X372219Y281006D01*
X372307Y280991D01*
X372393Y280965D01*
X372478Y280928D01*
X372515Y280906D01*
X372548Y280880D01*
X372552D01*
X372555Y280873D01*
X372574Y280854D01*
X372603Y280825D01*
X372637Y280780D01*
X372666Y280729D01*
X372696Y280669D01*
X372714Y280603D01*
X372722Y280566D01*
Y280525D01*
Y280521D01*
Y280510D01*
Y280495D01*
X372718Y280473D01*
Y280447D01*
X372714Y280418D01*
X372703Y280347D01*
Y280344D01*
X372700Y280325D01*
X372696Y280314D01*
Y280296D01*
X372689Y280277D01*
X372685Y280251D01*
X372677Y280222D01*
X372670Y280185D01*
X372663Y280144D01*
X372655Y280100D01*
X372644Y280048D01*
X372629Y279989D01*
X372615Y279922D01*
X372600Y279852D01*
Y279848D01*
X372596Y279837D01*
X372592Y279822D01*
X372589Y279800D01*
X372585Y279770D01*
X372578Y279741D01*
X372566Y279670D01*
X372552Y279593D01*
X372540Y279519D01*
X372533Y279448D01*
X372529Y279415D01*
Y279389D01*
Y279385D01*
Y279367D01*
X372533Y279345D01*
Y279311D01*
X372540Y279274D01*
X372548Y279230D01*
X372555Y279178D01*
X372570Y279126D01*
X372085D01*
Y279130D01*
X372082Y279145D01*
X372074Y279163D01*
X372067Y279189D01*
X372063Y279223D01*
X372056Y279256D01*
X372048Y279334D01*
X372045Y279330D01*
X372030Y279315D01*
X372004Y279293D01*
X371974Y279263D01*
X371937Y279234D01*
X371893Y279204D01*
X371845Y279171D01*
X371793Y279145D01*
X371786Y279141D01*
X371767Y279134D01*
X371741Y279123D01*
X371704Y279112D01*
X371660Y279100D01*
X371612Y279089D01*
X371560Y279082D01*
X371504Y279078D01*
X371482D01*
X371467Y279082D01*
X371423Y279086D01*
X371371Y279097D01*
X371312Y279115D01*
X371246Y279141D01*
X371183Y279178D01*
X371123Y279226D01*
X371116Y279234D01*
X371101Y279252D01*
X371075Y279286D01*
X371049Y279334D01*
X371024Y279389D01*
X370998Y279456D01*
X370983Y279533D01*
X370975Y279619D01*
Y279622D01*
Y279630D01*
Y279644D01*
X370979Y279663D01*
Y279685D01*
X370983Y279711D01*
X370998Y279770D01*
X371016Y279840D01*
X371046Y279911D01*
X371086Y279981D01*
X371109Y280014D01*
X371138Y280044D01*
X371142Y280048D01*
X371146Y280051D01*
X371157Y280059D01*
X371171Y280070D01*
X371190Y280081D01*
X371212Y280096D01*
X371242Y280111D01*
X371275Y280129D01*
X371312Y280144D01*
X371357Y280162D01*
X371405Y280177D01*
X371460Y280192D01*
X371519Y280207D01*
X371582Y280218D01*
X371653Y280229D01*
X371730Y280236D01*
X371745D01*
X371763Y280240D01*
X371789D01*
X371815Y280244D01*
X371849Y280247D01*
X371923Y280259D01*
X372004Y280266D01*
X372082Y280281D01*
X372119Y280288D01*
X372152Y280296D01*
X372182Y280303D01*
X372207Y280310D01*
Y280314D01*
X372211Y280329D01*
X372219Y280347D01*
X372226Y280370D01*
X372237Y280425D01*
X372241Y280451D01*
Y280477D01*
Y280481D01*
Y280492D01*
X372237Y280503D01*
X372233Y280521D01*
X372226Y280543D01*
X372211Y280566D01*
X372196Y280588D01*
X372174Y280610D01*
X372170Y280614D01*
X372163Y280617D01*
X372148Y280629D01*
X372126Y280640D01*
X372096Y280647D01*
X372067Y280658D01*
X372026Y280662D01*
X371982Y280666D01*
X371960D01*
X371934Y280662D01*
X371904Y280658D01*
X371871Y280651D01*
X371834Y280643D01*
X371800Y280629D01*
X371767Y280610D01*
X371763Y280606D01*
X371756Y280599D01*
X371741Y280588D01*
X371726Y280569D01*
X371708Y280547D01*
X371690Y280521D01*
X371675Y280492D01*
X371664Y280458D01*
X371175Y280499D01*
Y280503D01*
X371179Y280510D01*
X371183Y280521D01*
X371190Y280540D01*
X371212Y280584D01*
X371242Y280640D01*
X371283Y280699D01*
X371331Y280766D01*
X371393Y280828D01*
X371464Y280884D01*
X371467D01*
X371475Y280891D01*
X371486Y280899D01*
X371501Y280906D01*
X371523Y280917D01*
X371549Y280928D01*
X371579Y280939D01*
X371612Y280954D01*
X371649Y280969D01*
X371693Y280980D01*
X371738Y280991D01*
X371786Y281002D01*
X371897Y281017D01*
X372019Y281025D01*
X372052D01*
X372078Y281021D01*
D02*
G37*
G36*
X369403Y279556D02*
X370713D01*
X370624Y279126D01*
X368789D01*
X369325Y281687D01*
X369851D01*
X369403Y279556D01*
D02*
G37*
G36*
X367279Y279126D02*
X366783D01*
X367172Y280984D01*
X367671D01*
X367279Y279126D01*
D02*
G37*
G36*
X359324D02*
X358828D01*
X359217Y280984D01*
X359716D01*
X359324Y279126D01*
D02*
G37*
G36*
X355565Y281258D02*
X354818D01*
X354374Y279126D01*
X353848D01*
X354292Y281258D01*
X353545D01*
X353630Y281687D01*
X355650D01*
X355565Y281258D01*
D02*
G37*
G36*
X352768Y279126D02*
X352246D01*
X352783Y281687D01*
X353308Y281687D01*
X352768Y279126D01*
D02*
G37*
G36*
X351247Y281683D02*
X351314D01*
X351380Y281679D01*
X351439Y281676D01*
X351469Y281672D01*
X351491Y281668D01*
X351499D01*
X351524Y281665D01*
X351558Y281657D01*
X351602Y281646D01*
X351650Y281631D01*
X351706Y281613D01*
X351758Y281591D01*
X351809Y281561D01*
X351817Y281557D01*
X351832Y281546D01*
X351854Y281528D01*
X351883Y281505D01*
X351917Y281476D01*
X351950Y281439D01*
X351983Y281398D01*
X352009Y281350D01*
X352013Y281343D01*
X352020Y281328D01*
X352031Y281302D01*
X352046Y281265D01*
X352057Y281224D01*
X352068Y281172D01*
X352076Y281121D01*
X352080Y281062D01*
Y281058D01*
Y281050D01*
Y281039D01*
Y281025D01*
X352072Y280988D01*
X352065Y280936D01*
X352050Y280880D01*
X352028Y280817D01*
X351998Y280754D01*
X351957Y280692D01*
X351954Y280684D01*
X351935Y280666D01*
X351906Y280640D01*
X351869Y280603D01*
X351817Y280566D01*
X351754Y280525D01*
X351680Y280488D01*
X351591Y280455D01*
X351595D01*
X351599Y280451D01*
X351610Y280447D01*
X351624Y280444D01*
X351661Y280433D01*
X351706Y280410D01*
X351754Y280384D01*
X351806Y280351D01*
X351857Y280310D01*
X351902Y280262D01*
X351906Y280255D01*
X351920Y280240D01*
X351939Y280210D01*
X351957Y280173D01*
X351980Y280125D01*
X351994Y280074D01*
X352009Y280014D01*
X352013Y279952D01*
Y279948D01*
Y279940D01*
Y279929D01*
X352009Y279911D01*
Y279892D01*
X352006Y279866D01*
X351998Y279811D01*
X351980Y279741D01*
X351957Y279667D01*
X351924Y279589D01*
X351880Y279511D01*
Y279507D01*
X351872Y279504D01*
X351865Y279493D01*
X351857Y279478D01*
X351828Y279441D01*
X351787Y279397D01*
X351735Y279348D01*
X351673Y279300D01*
X351599Y279256D01*
X351517Y279215D01*
X351513D01*
X351506Y279211D01*
X351495Y279208D01*
X351476Y279200D01*
X351450Y279193D01*
X351425Y279186D01*
X351391Y279178D01*
X351354Y279171D01*
X351310Y279163D01*
X351262Y279156D01*
X351210Y279149D01*
X351154Y279141D01*
X351095Y279134D01*
X351029Y279130D01*
X350962Y279126D01*
X349682D01*
X350218Y281687D01*
X351188D01*
X351247Y281683D01*
D02*
G37*
G36*
X331681Y279126D02*
X331186D01*
X331574Y280984D01*
X332074D01*
X331681Y279126D01*
D02*
G37*
G36*
X326072Y281683D02*
X326135D01*
X326187Y281679D01*
X326205D01*
X326224Y281676D01*
X326231D01*
X326250Y281672D01*
X326279Y281668D01*
X326320Y281661D01*
X326364Y281653D01*
X326413Y281642D01*
X326509Y281609D01*
X326516Y281605D01*
X326531Y281602D01*
X326553Y281591D01*
X326587Y281576D01*
X326620Y281554D01*
X326660Y281531D01*
X326697Y281505D01*
X326738Y281472D01*
X326742Y281469D01*
X326757Y281457D01*
X326775Y281439D01*
X326801Y281413D01*
X326827Y281383D01*
X326857Y281346D01*
X326886Y281306D01*
X326916Y281261D01*
X326920Y281258D01*
X326927Y281239D01*
X326942Y281213D01*
X326957Y281180D01*
X326975Y281139D01*
X326997Y281091D01*
X327016Y281036D01*
X327030Y280976D01*
X327034Y280969D01*
X327038Y280947D01*
X327045Y280913D01*
X327053Y280873D01*
X327060Y280821D01*
X327064Y280758D01*
X327071Y280695D01*
Y280625D01*
Y280621D01*
Y280606D01*
Y280584D01*
X327067Y280555D01*
Y280518D01*
X327064Y280477D01*
X327056Y280429D01*
X327053Y280377D01*
X327042Y280322D01*
X327034Y280262D01*
X327005Y280140D01*
X326964Y280014D01*
X326942Y279952D01*
X326912Y279889D01*
Y279885D01*
X326905Y279874D01*
X326897Y279859D01*
X326883Y279837D01*
X326868Y279807D01*
X326849Y279778D01*
X326801Y279704D01*
X326746Y279622D01*
X326675Y279537D01*
X326598Y279456D01*
X326513Y279378D01*
X326509D01*
X326505Y279371D01*
X326494Y279363D01*
X326479Y279356D01*
X326461Y279341D01*
X326438Y279330D01*
X326383Y279297D01*
X326316Y279263D01*
X326235Y279226D01*
X326143Y279193D01*
X326039Y279163D01*
X326031D01*
X326020Y279160D01*
X326009Y279156D01*
X325991D01*
X325969Y279152D01*
X325943Y279149D01*
X325913Y279145D01*
X325880Y279141D01*
X325843Y279137D01*
X325802Y279134D01*
X325754D01*
X325706Y279130D01*
X325650Y279126D01*
X324629D01*
X325166Y281687D01*
X326009D01*
X326072Y281683D01*
D02*
G37*
G36*
X342563Y280828D02*
X342570Y280832D01*
X342585Y280847D01*
X342611Y280865D01*
X342648Y280888D01*
X342685Y280910D01*
X342730Y280936D01*
X342774Y280958D01*
X342818Y280976D01*
X342826Y280980D01*
X342841Y280984D01*
X342866Y280991D01*
X342896Y281002D01*
X342937Y281010D01*
X342981Y281017D01*
X343033Y281021D01*
X343085Y281025D01*
X343114D01*
X343133Y281021D01*
X343159Y281017D01*
X343188Y281013D01*
X343255Y280999D01*
X343329Y280976D01*
X343410Y280939D01*
X343447Y280917D01*
X343488Y280891D01*
X343525Y280862D01*
X343558Y280825D01*
X343562Y280821D01*
X343566Y280817D01*
X343573Y280802D01*
X343588Y280788D01*
X343599Y280769D01*
X343614Y280743D01*
X343632Y280714D01*
X343647Y280680D01*
X343666Y280640D01*
X343681Y280599D01*
X343695Y280551D01*
X343710Y280499D01*
X343721Y280444D01*
X343729Y280384D01*
X343732Y280322D01*
X343736Y280251D01*
Y280247D01*
Y280240D01*
Y280225D01*
Y280207D01*
X343732Y280185D01*
Y280159D01*
X343725Y280096D01*
X343714Y280022D01*
X343699Y279937D01*
X343681Y279848D01*
X343651Y279759D01*
Y279755D01*
X343647Y279748D01*
X343643Y279737D01*
X343636Y279718D01*
X343618Y279678D01*
X343592Y279622D01*
X343562Y279559D01*
X343521Y279496D01*
X343481Y279430D01*
X343429Y279371D01*
X343422Y279363D01*
X343403Y279345D01*
X343377Y279319D01*
X343340Y279289D01*
X343296Y279252D01*
X343244Y279215D01*
X343192Y279178D01*
X343133Y279149D01*
X343126Y279145D01*
X343107Y279137D01*
X343077Y279126D01*
X343037Y279115D01*
X342989Y279100D01*
X342933Y279089D01*
X342878Y279082D01*
X342815Y279078D01*
X342796D01*
X342778Y279082D01*
X342748Y279086D01*
X342715Y279089D01*
X342678Y279097D01*
X342637Y279108D01*
X342593Y279123D01*
X342545Y279141D01*
X342496Y279163D01*
X342448Y279193D01*
X342397Y279226D01*
X342352Y279263D01*
X342308Y279311D01*
X342263Y279363D01*
X342226Y279426D01*
X342163Y279126D01*
X341712D01*
X342249Y281687D01*
X342744D01*
X342563Y280828D01*
D02*
G37*
G36*
X337705Y281021D02*
X337735Y281017D01*
X337768Y281013D01*
X337805Y281006D01*
X337846Y280999D01*
X337934Y280973D01*
X337979Y280958D01*
X338023Y280936D01*
X338068Y280910D01*
X338112Y280884D01*
X338153Y280851D01*
X338193Y280814D01*
X338197Y280810D01*
X338201Y280802D01*
X338212Y280791D01*
X338227Y280777D01*
X338242Y280754D01*
X338256Y280729D01*
X338275Y280695D01*
X338297Y280662D01*
X338316Y280621D01*
X338334Y280577D01*
X338349Y280529D01*
X338364Y280473D01*
X338378Y280418D01*
X338389Y280355D01*
X338393Y280292D01*
X338397Y280222D01*
Y280218D01*
Y280214D01*
Y280192D01*
Y280155D01*
X338393Y280114D01*
X338389Y280063D01*
X338382Y280007D01*
X338360Y279896D01*
X337102D01*
Y279892D01*
Y279877D01*
X337098Y279863D01*
Y279848D01*
Y279844D01*
Y279840D01*
Y279818D01*
X337106Y279785D01*
X337113Y279741D01*
X337124Y279693D01*
X337143Y279644D01*
X337169Y279593D01*
X337202Y279548D01*
X337206Y279544D01*
X337220Y279530D01*
X337243Y279515D01*
X337276Y279493D01*
X337313Y279474D01*
X337357Y279456D01*
X337409Y279441D01*
X337464Y279437D01*
X337490D01*
X337505Y279441D01*
X337527Y279445D01*
X337553Y279452D01*
X337609Y279470D01*
X337638Y279482D01*
X337672Y279500D01*
X337705Y279522D01*
X337735Y279548D01*
X337768Y279578D01*
X337801Y279611D01*
X337831Y279652D01*
X337857Y279696D01*
X338304Y279622D01*
Y279619D01*
X338297Y279611D01*
X338290Y279596D01*
X338279Y279578D01*
X338267Y279556D01*
X338249Y279530D01*
X338212Y279467D01*
X338160Y279400D01*
X338097Y279334D01*
X338027Y279267D01*
X337949Y279211D01*
X337946D01*
X337938Y279204D01*
X337927Y279200D01*
X337912Y279189D01*
X337890Y279182D01*
X337868Y279171D01*
X337805Y279145D01*
X337735Y279119D01*
X337649Y279100D01*
X337561Y279086D01*
X337461Y279078D01*
X337424D01*
X337398Y279082D01*
X337365Y279086D01*
X337328Y279089D01*
X337287Y279097D01*
X337243Y279108D01*
X337146Y279137D01*
X337094Y279156D01*
X337043Y279178D01*
X336995Y279204D01*
X336943Y279237D01*
X336895Y279274D01*
X336850Y279315D01*
X336847Y279319D01*
X336839Y279326D01*
X336828Y279341D01*
X336813Y279360D01*
X336795Y279382D01*
X336776Y279411D01*
X336754Y279445D01*
X336736Y279482D01*
X336713Y279526D01*
X336691Y279570D01*
X336673Y279622D01*
X336654Y279678D01*
X336639Y279737D01*
X336628Y279803D01*
X336621Y279870D01*
X336617Y279940D01*
Y279944D01*
Y279959D01*
Y279977D01*
X336621Y280003D01*
X336625Y280037D01*
X336628Y280077D01*
X336636Y280122D01*
X336643Y280170D01*
X336669Y280273D01*
X336687Y280329D01*
X336706Y280388D01*
X336732Y280447D01*
X336758Y280506D01*
X336791Y280566D01*
X336828Y280621D01*
X336832Y280625D01*
X336843Y280640D01*
X336858Y280658D01*
X336880Y280684D01*
X336913Y280714D01*
X336947Y280751D01*
X336991Y280784D01*
X337039Y280825D01*
X337094Y280862D01*
X337157Y280899D01*
X337224Y280932D01*
X337298Y280962D01*
X337376Y280988D01*
X337461Y281006D01*
X337553Y281021D01*
X337649Y281025D01*
X337683D01*
X337705Y281021D01*
D02*
G37*
G36*
X328355D02*
X328385Y281017D01*
X328418Y281013D01*
X328455Y281006D01*
X328496Y280999D01*
X328585Y280973D01*
X328629Y280958D01*
X328673Y280936D01*
X328718Y280910D01*
X328762Y280884D01*
X328803Y280851D01*
X328843Y280814D01*
X328847Y280810D01*
X328851Y280802D01*
X328862Y280791D01*
X328877Y280777D01*
X328892Y280754D01*
X328906Y280729D01*
X328925Y280695D01*
X328947Y280662D01*
X328966Y280621D01*
X328984Y280577D01*
X328999Y280529D01*
X329014Y280473D01*
X329029Y280418D01*
X329040Y280355D01*
X329043Y280292D01*
X329047Y280222D01*
Y280218D01*
Y280214D01*
Y280192D01*
Y280155D01*
X329043Y280114D01*
X329040Y280063D01*
X329032Y280007D01*
X329010Y279896D01*
X327752D01*
Y279892D01*
Y279877D01*
X327748Y279863D01*
Y279848D01*
Y279844D01*
Y279840D01*
Y279818D01*
X327756Y279785D01*
X327763Y279741D01*
X327774Y279693D01*
X327793Y279644D01*
X327819Y279593D01*
X327852Y279548D01*
X327856Y279544D01*
X327870Y279530D01*
X327893Y279515D01*
X327926Y279493D01*
X327963Y279474D01*
X328007Y279456D01*
X328059Y279441D01*
X328115Y279437D01*
X328140D01*
X328155Y279441D01*
X328177Y279445D01*
X328203Y279452D01*
X328259Y279470D01*
X328289Y279482D01*
X328322Y279500D01*
X328355Y279522D01*
X328385Y279548D01*
X328418Y279578D01*
X328451Y279611D01*
X328481Y279652D01*
X328507Y279696D01*
X328955Y279622D01*
Y279619D01*
X328947Y279611D01*
X328940Y279596D01*
X328929Y279578D01*
X328918Y279556D01*
X328899Y279530D01*
X328862Y279467D01*
X328810Y279400D01*
X328747Y279334D01*
X328677Y279267D01*
X328599Y279211D01*
X328596D01*
X328588Y279204D01*
X328577Y279200D01*
X328562Y279189D01*
X328540Y279182D01*
X328518Y279171D01*
X328455Y279145D01*
X328385Y279119D01*
X328300Y279100D01*
X328211Y279086D01*
X328111Y279078D01*
X328074D01*
X328048Y279082D01*
X328015Y279086D01*
X327978Y279089D01*
X327937Y279097D01*
X327893Y279108D01*
X327796Y279137D01*
X327745Y279156D01*
X327693Y279178D01*
X327645Y279204D01*
X327593Y279237D01*
X327545Y279274D01*
X327500Y279315D01*
X327497Y279319D01*
X327489Y279326D01*
X327478Y279341D01*
X327463Y279360D01*
X327445Y279382D01*
X327426Y279411D01*
X327404Y279445D01*
X327386Y279482D01*
X327363Y279526D01*
X327341Y279570D01*
X327323Y279622D01*
X327304Y279678D01*
X327290Y279737D01*
X327278Y279803D01*
X327271Y279870D01*
X327267Y279940D01*
Y279944D01*
Y279959D01*
Y279977D01*
X327271Y280003D01*
X327275Y280037D01*
X327278Y280077D01*
X327286Y280122D01*
X327293Y280170D01*
X327319Y280273D01*
X327338Y280329D01*
X327356Y280388D01*
X327382Y280447D01*
X327408Y280506D01*
X327441Y280566D01*
X327478Y280621D01*
X327482Y280625D01*
X327493Y280640D01*
X327508Y280658D01*
X327530Y280684D01*
X327563Y280714D01*
X327597Y280751D01*
X327641Y280784D01*
X327689Y280825D01*
X327745Y280862D01*
X327807Y280899D01*
X327874Y280932D01*
X327948Y280962D01*
X328026Y280988D01*
X328111Y281006D01*
X328203Y281021D01*
X328300Y281025D01*
X328333D01*
X328355Y281021D01*
D02*
G37*
G36*
X348579Y281731D02*
X348620Y281728D01*
X348668Y281720D01*
X348720Y281709D01*
X348775Y281698D01*
X348835Y281683D01*
X348898Y281665D01*
X348960Y281639D01*
X349023Y281609D01*
X349090Y281576D01*
X349149Y281535D01*
X349212Y281491D01*
X349268Y281439D01*
X349271Y281435D01*
X349279Y281424D01*
X349293Y281409D01*
X349312Y281383D01*
X349334Y281354D01*
X349360Y281321D01*
X349386Y281276D01*
X349415Y281232D01*
X349441Y281176D01*
X349467Y281117D01*
X349493Y281054D01*
X349515Y280984D01*
X349534Y280910D01*
X349549Y280828D01*
X349556Y280743D01*
X349560Y280655D01*
Y280651D01*
Y280640D01*
Y280617D01*
X349556Y280592D01*
Y280558D01*
X349552Y280518D01*
X349545Y280473D01*
X349541Y280425D01*
X349530Y280373D01*
X349523Y280314D01*
X349493Y280196D01*
X349452Y280066D01*
X349430Y280003D01*
X349401Y279937D01*
Y279933D01*
X349393Y279922D01*
X349386Y279903D01*
X349371Y279881D01*
X349356Y279852D01*
X349338Y279818D01*
X349316Y279778D01*
X349290Y279737D01*
X349231Y279648D01*
X349160Y279556D01*
X349075Y279463D01*
X348983Y279378D01*
X348986D01*
X348990Y279371D01*
X349012Y279352D01*
X349045Y279323D01*
X349090Y279286D01*
X349145Y279241D01*
X349205Y279200D01*
X349271Y279156D01*
X349338Y279115D01*
X349090Y278786D01*
X349086D01*
X349079Y278793D01*
X349068Y278801D01*
X349049Y278808D01*
X349027Y278823D01*
X349001Y278838D01*
X348942Y278882D01*
X348872Y278934D01*
X348798Y279001D01*
X348716Y279082D01*
X348639Y279174D01*
X348635D01*
X348616Y279167D01*
X348594Y279160D01*
X348561Y279149D01*
X348524Y279137D01*
X348479Y279126D01*
X348383Y279108D01*
X348376D01*
X348361Y279104D01*
X348335Y279100D01*
X348302Y279097D01*
X348261Y279089D01*
X348213Y279086D01*
X348165Y279082D01*
X348091D01*
X348069Y279086D01*
X348035D01*
X347995Y279089D01*
X347950Y279097D01*
X347899Y279108D01*
X347843Y279119D01*
X347784Y279134D01*
X347725Y279152D01*
X347662Y279178D01*
X347599Y279204D01*
X347536Y279237D01*
X347473Y279278D01*
X347414Y279323D01*
X347358Y279374D01*
X347355Y279378D01*
X347347Y279389D01*
X347332Y279404D01*
X347314Y279426D01*
X347292Y279456D01*
X347266Y279493D01*
X347240Y279533D01*
X347214Y279578D01*
X347188Y279633D01*
X347162Y279689D01*
X347136Y279752D01*
X347114Y279818D01*
X347096Y279892D01*
X347081Y279970D01*
X347073Y280051D01*
X347070Y280136D01*
Y280140D01*
Y280155D01*
Y280173D01*
X347073Y280203D01*
Y280240D01*
X347081Y280281D01*
X347084Y280329D01*
X347092Y280381D01*
X347103Y280436D01*
X347114Y280499D01*
X347144Y280632D01*
X347188Y280773D01*
X347218Y280847D01*
X347247Y280921D01*
X347251Y280925D01*
X347255Y280939D01*
X347266Y280958D01*
X347281Y280988D01*
X347299Y281021D01*
X347321Y281058D01*
X347347Y281099D01*
X347380Y281147D01*
X347414Y281191D01*
X347451Y281243D01*
X347492Y281291D01*
X347540Y281343D01*
X347639Y281439D01*
X347695Y281483D01*
X347754Y281524D01*
X347758Y281528D01*
X347769Y281531D01*
X347787Y281542D01*
X347813Y281557D01*
X347843Y281572D01*
X347880Y281591D01*
X347924Y281609D01*
X347972Y281631D01*
X348024Y281650D01*
X348080Y281668D01*
X348143Y281687D01*
X348209Y281702D01*
X348276Y281716D01*
X348350Y281728D01*
X348424Y281731D01*
X348502Y281735D01*
X348546D01*
X348579Y281731D01*
D02*
G37*
G36*
X333209Y281021D02*
X333254Y281013D01*
X333306Y280999D01*
X333365Y280984D01*
X333420Y280958D01*
X333480Y280925D01*
X333487Y280921D01*
X333506Y280906D01*
X333535Y280884D01*
X333568Y280854D01*
X333605Y280817D01*
X333646Y280769D01*
X333687Y280717D01*
X333720Y280655D01*
X333787Y280984D01*
X334253D01*
X333961Y279430D01*
Y279426D01*
X333957Y279415D01*
X333953Y279397D01*
X333946Y279371D01*
X333938Y279341D01*
X333931Y279304D01*
X333912Y279226D01*
X333890Y279141D01*
X333868Y279052D01*
X333846Y278971D01*
X333835Y278938D01*
X333824Y278904D01*
X333820Y278897D01*
X333813Y278878D01*
X333802Y278849D01*
X333787Y278812D01*
X333768Y278775D01*
X333746Y278731D01*
X333724Y278690D01*
X333698Y278653D01*
X333694Y278649D01*
X333687Y278638D01*
X333668Y278620D01*
X333650Y278597D01*
X333624Y278571D01*
X333591Y278545D01*
X333557Y278520D01*
X333517Y278494D01*
X333513Y278490D01*
X333498Y278483D01*
X333476Y278471D01*
X333446Y278460D01*
X333406Y278442D01*
X333365Y278427D01*
X333313Y278412D01*
X333261Y278401D01*
X333254D01*
X333235Y278397D01*
X333206Y278394D01*
X333165Y278386D01*
X333117Y278383D01*
X333062Y278375D01*
X333002Y278372D01*
X332902D01*
X332876Y278375D01*
X332843D01*
X332806Y278379D01*
X332762Y278383D01*
X332717Y278390D01*
X332621Y278405D01*
X332525Y278431D01*
X332429Y278464D01*
X332388Y278486D01*
X332347Y278508D01*
X332344D01*
X332340Y278516D01*
X332318Y278534D01*
X332284Y278568D01*
X332247Y278616D01*
X332229Y278645D01*
X332210Y278675D01*
X332196Y278712D01*
X332177Y278753D01*
X332166Y278797D01*
X332155Y278845D01*
X332151Y278901D01*
X332148Y278956D01*
Y278964D01*
Y278978D01*
Y279001D01*
X332151Y279027D01*
X332684Y278953D01*
Y278949D01*
Y278938D01*
Y278923D01*
X332688Y278908D01*
X332695Y278867D01*
X332703Y278849D01*
X332710Y278830D01*
X332714Y278823D01*
X332729Y278808D01*
X332754Y278782D01*
X332791Y278760D01*
X332795D01*
X332803Y278756D01*
X332817Y278753D01*
X332832Y278745D01*
X332858Y278742D01*
X332884Y278734D01*
X332913Y278731D01*
X332980D01*
X333010Y278734D01*
X333047Y278738D01*
X333091Y278745D01*
X333136Y278760D01*
X333180Y278775D01*
X333221Y278797D01*
X333224Y278801D01*
X333235Y278808D01*
X333246Y278819D01*
X333265Y278834D01*
X333287Y278856D01*
X333306Y278882D01*
X333328Y278916D01*
X333346Y278953D01*
Y278956D01*
X333350Y278967D01*
X333358Y278986D01*
X333369Y279015D01*
X333376Y279056D01*
X333391Y279108D01*
X333406Y279171D01*
X333420Y279248D01*
X333439Y279334D01*
X333435Y279330D01*
X333428Y279326D01*
X333413Y279315D01*
X333391Y279300D01*
X333365Y279286D01*
X333339Y279267D01*
X333302Y279245D01*
X333265Y279226D01*
X333180Y279186D01*
X333087Y279152D01*
X333036Y279137D01*
X332984Y279130D01*
X332932Y279123D01*
X332876Y279119D01*
X332851D01*
X332832Y279123D01*
X332806Y279126D01*
X332780Y279130D01*
X332717Y279141D01*
X332647Y279163D01*
X332573Y279200D01*
X332536Y279219D01*
X332499Y279245D01*
X332462Y279274D01*
X332429Y279308D01*
Y279311D01*
X332421Y279315D01*
X332414Y279326D01*
X332403Y279345D01*
X332388Y279363D01*
X332373Y279389D01*
X332359Y279419D01*
X332344Y279452D01*
X332325Y279489D01*
X332310Y279530D01*
X332296Y279574D01*
X332281Y279626D01*
X332270Y279681D01*
X332262Y279741D01*
X332259Y279803D01*
X332255Y279870D01*
Y279874D01*
Y279885D01*
Y279903D01*
X332259Y279926D01*
Y279955D01*
X332262Y279989D01*
X332266Y280026D01*
X332270Y280070D01*
X332284Y280162D01*
X332307Y280262D01*
X332333Y280366D01*
X332373Y280469D01*
Y280473D01*
X332381Y280481D01*
X332384Y280495D01*
X332396Y280514D01*
X332407Y280536D01*
X332421Y280562D01*
X332458Y280625D01*
X332506Y280692D01*
X332566Y280762D01*
X332632Y280825D01*
X332706Y280884D01*
X332710D01*
X332717Y280891D01*
X332729Y280899D01*
X332743Y280906D01*
X332762Y280917D01*
X332788Y280928D01*
X332843Y280954D01*
X332906Y280980D01*
X332980Y281002D01*
X333062Y281017D01*
X333143Y281025D01*
X333172D01*
X333209Y281021D01*
D02*
G37*
G36*
X354792Y277360D02*
X354292D01*
X354388Y277811D01*
X354884D01*
X354792Y277360D01*
D02*
G37*
G36*
X345845Y277360D02*
X345345D01*
X345442Y277811D01*
X345937D01*
X345845Y277360D01*
D02*
G37*
G36*
X350699Y277856D02*
X350733Y277852D01*
X350773Y277848D01*
X350821Y277841D01*
X350870Y277830D01*
X350977Y277804D01*
X351032Y277785D01*
X351088Y277763D01*
X351147Y277737D01*
X351199Y277708D01*
X351254Y277675D01*
X351303Y277634D01*
X351306Y277630D01*
X351314Y277623D01*
X351325Y277612D01*
X351343Y277593D01*
X351362Y277571D01*
X351388Y277545D01*
X351410Y277512D01*
X351436Y277475D01*
X351462Y277434D01*
X351487Y277390D01*
X351513Y277338D01*
X351539Y277286D01*
X351561Y277227D01*
X351580Y277164D01*
X351595Y277097D01*
X351606Y277027D01*
X351103Y276979D01*
Y276983D01*
X351099Y276990D01*
Y277001D01*
X351095Y277016D01*
X351084Y277053D01*
X351066Y277101D01*
X351044Y277156D01*
X351014Y277208D01*
X350981Y277260D01*
X350940Y277301D01*
X350936Y277305D01*
X350918Y277316D01*
X350892Y277334D01*
X350855Y277353D01*
X350810Y277371D01*
X350755Y277390D01*
X350692Y277401D01*
X350622Y277404D01*
X350600D01*
X350585Y277401D01*
X350544Y277397D01*
X350488Y277386D01*
X350426Y277371D01*
X350359Y277345D01*
X350285Y277312D01*
X350215Y277268D01*
X350211D01*
X350207Y277260D01*
X350185Y277242D01*
X350148Y277212D01*
X350107Y277164D01*
X350059Y277108D01*
X350008Y277034D01*
X349956Y276949D01*
X349911Y276849D01*
Y276846D01*
X349908Y276838D01*
X349900Y276823D01*
X349893Y276801D01*
X349885Y276775D01*
X349878Y276746D01*
X349867Y276712D01*
X349856Y276676D01*
X349837Y276590D01*
X349819Y276494D01*
X349804Y276391D01*
X349800Y276287D01*
Y276283D01*
Y276272D01*
Y276257D01*
X349804Y276235D01*
Y276209D01*
X349808Y276180D01*
X349819Y276113D01*
X349837Y276035D01*
X349859Y275958D01*
X349897Y275880D01*
X349945Y275810D01*
X349952Y275802D01*
X349971Y275784D01*
X350004Y275758D01*
X350044Y275728D01*
X350100Y275695D01*
X350163Y275669D01*
X350233Y275651D01*
X350270Y275647D01*
X350311Y275643D01*
X350329D01*
X350344Y275647D01*
X350385Y275651D01*
X350433Y275658D01*
X350492Y275676D01*
X350555Y275699D01*
X350618Y275728D01*
X350685Y275773D01*
X350688D01*
X350692Y275780D01*
X350714Y275799D01*
X350744Y275828D01*
X350781Y275873D01*
X350821Y275928D01*
X350866Y275995D01*
X350903Y276076D01*
X350940Y276169D01*
X351473Y276087D01*
Y276083D01*
X351465Y276069D01*
X351458Y276046D01*
X351443Y276017D01*
X351425Y275980D01*
X351406Y275939D01*
X351384Y275891D01*
X351354Y275843D01*
X351288Y275736D01*
X351206Y275628D01*
X351114Y275521D01*
X351058Y275473D01*
X351003Y275429D01*
X350999Y275425D01*
X350988Y275417D01*
X350973Y275406D01*
X350947Y275395D01*
X350918Y275377D01*
X350884Y275358D01*
X350840Y275336D01*
X350796Y275318D01*
X350744Y275295D01*
X350688Y275273D01*
X350629Y275255D01*
X350566Y275240D01*
X350500Y275225D01*
X350429Y275214D01*
X350355Y275207D01*
X350278Y275203D01*
X350255D01*
X350233Y275207D01*
X350200D01*
X350159Y275210D01*
X350115Y275218D01*
X350063Y275225D01*
X350011Y275240D01*
X349952Y275255D01*
X349893Y275273D01*
X349830Y275295D01*
X349771Y275321D01*
X349708Y275355D01*
X349649Y275392D01*
X349593Y275436D01*
X349541Y275484D01*
X349538Y275488D01*
X349530Y275499D01*
X349515Y275514D01*
X349501Y275536D01*
X349482Y275566D01*
X349460Y275603D01*
X349434Y275647D01*
X349412Y275695D01*
X349386Y275750D01*
X349360Y275810D01*
X349338Y275880D01*
X349319Y275954D01*
X349305Y276032D01*
X349290Y276120D01*
X349282Y276209D01*
X349279Y276309D01*
Y276313D01*
Y276328D01*
Y276354D01*
X349282Y276383D01*
Y276420D01*
X349290Y276468D01*
X349293Y276516D01*
X349301Y276572D01*
X349308Y276631D01*
X349323Y276698D01*
X349353Y276831D01*
X349397Y276972D01*
X349423Y277038D01*
X349452Y277108D01*
X349456Y277112D01*
X349460Y277123D01*
X349471Y277142D01*
X349486Y277168D01*
X349504Y277197D01*
X349527Y277234D01*
X349552Y277271D01*
X349582Y277316D01*
X349652Y277404D01*
X349734Y277497D01*
X349834Y277586D01*
X349889Y277626D01*
X349945Y277663D01*
X349948Y277667D01*
X349959Y277671D01*
X349978Y277682D01*
X350000Y277693D01*
X350030Y277708D01*
X350063Y277726D01*
X350104Y277745D01*
X350148Y277763D01*
X350196Y277778D01*
X350252Y277797D01*
X350366Y277830D01*
X350492Y277852D01*
X350559Y277856D01*
X350629Y277859D01*
X350670D01*
X350699Y277856D01*
D02*
G37*
G36*
X356368Y277145D02*
X356412Y277142D01*
X356464Y277134D01*
X356523Y277116D01*
X356582Y277094D01*
X356642Y277060D01*
X356697Y277016D01*
X356704Y277009D01*
X356719Y276994D01*
X356738Y276964D01*
X356764Y276923D01*
X356790Y276872D01*
X356808Y276812D01*
X356823Y276746D01*
X356830Y276668D01*
Y276664D01*
Y276650D01*
X356827Y276624D01*
X356819Y276583D01*
X356812Y276535D01*
X356801Y276468D01*
X356793Y276431D01*
X356786Y276391D01*
X356775Y276346D01*
X356764Y276298D01*
X356538Y275251D01*
X356042D01*
X356268Y276302D01*
Y276306D01*
X356272Y276313D01*
Y276324D01*
X356275Y276339D01*
X356283Y276379D01*
X356294Y276424D01*
X356301Y276472D01*
X356309Y276520D01*
X356316Y276557D01*
X356320Y276572D01*
Y276583D01*
Y276587D01*
Y276598D01*
X356316Y276616D01*
X356312Y276639D01*
X356305Y276661D01*
X356294Y276687D01*
X356279Y276712D01*
X356260Y276735D01*
X356257Y276738D01*
X356249Y276742D01*
X356238Y276753D01*
X356220Y276764D01*
X356198Y276772D01*
X356172Y276783D01*
X356138Y276786D01*
X356101Y276790D01*
X356083D01*
X356061Y276786D01*
X356027Y276779D01*
X355990Y276768D01*
X355950Y276749D01*
X355905Y276727D01*
X355854Y276698D01*
X355846Y276694D01*
X355831Y276679D01*
X355805Y276661D01*
X355776Y276631D01*
X355743Y276598D01*
X355705Y276557D01*
X355672Y276509D01*
X355639Y276453D01*
X355635Y276450D01*
X355628Y276431D01*
X355617Y276402D01*
X355609Y276379D01*
X355602Y276357D01*
X355594Y276328D01*
X355583Y276298D01*
X355572Y276261D01*
X355561Y276220D01*
X355550Y276176D01*
X355535Y276124D01*
X355524Y276069D01*
X355509Y276009D01*
X355350Y275251D01*
X354854D01*
X355243Y277108D01*
X355717D01*
X355668Y276864D01*
X355672D01*
X355676Y276872D01*
X355698Y276890D01*
X355735Y276916D01*
X355780Y276949D01*
X355831Y276983D01*
X355887Y277020D01*
X355946Y277053D01*
X356005Y277082D01*
X356013Y277086D01*
X356031Y277094D01*
X356064Y277105D01*
X356105Y277116D01*
X356153Y277127D01*
X356209Y277138D01*
X356268Y277145D01*
X356331Y277149D01*
X356353D01*
X356368Y277145D01*
D02*
G37*
G36*
X347421Y277145D02*
X347466Y277142D01*
X347517Y277134D01*
X347577Y277116D01*
X347636Y277094D01*
X347695Y277060D01*
X347750Y277016D01*
X347758Y277009D01*
X347773Y276994D01*
X347791Y276964D01*
X347817Y276923D01*
X347843Y276872D01*
X347862Y276812D01*
X347876Y276746D01*
X347884Y276668D01*
Y276664D01*
Y276650D01*
X347880Y276624D01*
X347873Y276583D01*
X347865Y276535D01*
X347854Y276468D01*
X347847Y276431D01*
X347839Y276391D01*
X347828Y276346D01*
X347817Y276298D01*
X347591Y275251D01*
X347096D01*
X347321Y276302D01*
Y276306D01*
X347325Y276313D01*
Y276324D01*
X347329Y276339D01*
X347336Y276379D01*
X347347Y276424D01*
X347355Y276472D01*
X347362Y276520D01*
X347369Y276557D01*
X347373Y276572D01*
Y276583D01*
Y276587D01*
Y276598D01*
X347369Y276616D01*
X347366Y276639D01*
X347358Y276661D01*
X347347Y276687D01*
X347332Y276712D01*
X347314Y276735D01*
X347310Y276738D01*
X347303Y276742D01*
X347292Y276753D01*
X347273Y276764D01*
X347251Y276772D01*
X347225Y276783D01*
X347192Y276786D01*
X347155Y276790D01*
X347136D01*
X347114Y276786D01*
X347081Y276779D01*
X347044Y276768D01*
X347003Y276749D01*
X346959Y276727D01*
X346907Y276698D01*
X346900Y276694D01*
X346885Y276679D01*
X346859Y276661D01*
X346829Y276631D01*
X346796Y276598D01*
X346759Y276557D01*
X346726Y276509D01*
X346692Y276453D01*
X346689Y276450D01*
X346681Y276431D01*
X346670Y276402D01*
X346663Y276379D01*
X346655Y276357D01*
X346648Y276328D01*
X346637Y276298D01*
X346626Y276261D01*
X346615Y276220D01*
X346603Y276176D01*
X346589Y276124D01*
X346578Y276069D01*
X346563Y276009D01*
X346404Y275251D01*
X345908D01*
X346296Y277108D01*
X346770D01*
X346722Y276864D01*
X346726D01*
X346729Y276872D01*
X346751Y276890D01*
X346789Y276916D01*
X346833Y276949D01*
X346885Y276983D01*
X346940Y277020D01*
X346999Y277053D01*
X347059Y277082D01*
X347066Y277086D01*
X347084Y277094D01*
X347118Y277105D01*
X347159Y277116D01*
X347207Y277127D01*
X347262Y277138D01*
X347321Y277145D01*
X347384Y277149D01*
X347406D01*
X347421Y277145D01*
D02*
G37*
G36*
X343433Y275251D02*
X342963D01*
X343003Y275447D01*
X342996Y275440D01*
X342981Y275425D01*
X342952Y275403D01*
X342918Y275373D01*
X342878Y275343D01*
X342833Y275310D01*
X342785Y275284D01*
X342733Y275258D01*
X342726Y275255D01*
X342711Y275251D01*
X342682Y275240D01*
X342645Y275233D01*
X342600Y275221D01*
X342552Y275210D01*
X342493Y275207D01*
X342434Y275203D01*
X342408D01*
X342386Y275207D01*
X342360Y275210D01*
X342334Y275214D01*
X342267Y275229D01*
X342193Y275251D01*
X342115Y275284D01*
X342075Y275307D01*
X342038Y275336D01*
X342001Y275366D01*
X341967Y275399D01*
X341964Y275403D01*
X341960Y275410D01*
X341953Y275421D01*
X341941Y275436D01*
X341927Y275454D01*
X341912Y275480D01*
X341897Y275510D01*
X341879Y275547D01*
X341864Y275584D01*
X341845Y275628D01*
X341830Y275676D01*
X341819Y275728D01*
X341805Y275784D01*
X341797Y275843D01*
X341793Y275910D01*
X341790Y275980D01*
Y275984D01*
Y275998D01*
Y276024D01*
X341793Y276054D01*
X341797Y276095D01*
X341805Y276139D01*
X341812Y276191D01*
X341823Y276250D01*
X341834Y276309D01*
X341853Y276372D01*
X341871Y276439D01*
X341897Y276509D01*
X341927Y276579D01*
X341960Y276650D01*
X342001Y276720D01*
X342045Y276786D01*
X342049Y276790D01*
X342056Y276801D01*
X342071Y276820D01*
X342093Y276842D01*
X342115Y276872D01*
X342149Y276901D01*
X342186Y276935D01*
X342226Y276968D01*
X342271Y277001D01*
X342323Y277034D01*
X342378Y277064D01*
X342437Y277094D01*
X342500Y277116D01*
X342570Y277134D01*
X342641Y277145D01*
X342719Y277149D01*
X342737D01*
X342756Y277145D01*
X342781D01*
X342811Y277142D01*
X342848Y277134D01*
X342889Y277123D01*
X342933Y277112D01*
X342977Y277097D01*
X343026Y277075D01*
X343074Y277053D01*
X343118Y277023D01*
X343166Y276990D01*
X343211Y276949D01*
X343251Y276901D01*
X343288Y276849D01*
X343499Y277811D01*
X343995D01*
X343433Y275251D01*
D02*
G37*
G36*
X335951Y277142D02*
X335999Y277134D01*
X336055Y277119D01*
X336114Y277097D01*
X336170Y277068D01*
X336218Y277027D01*
X336221Y277023D01*
X336236Y277005D01*
X336258Y276979D01*
X336280Y276942D01*
X336303Y276898D01*
X336325Y276846D01*
X336340Y276783D01*
X336343Y276712D01*
Y276709D01*
Y276694D01*
X336340Y276668D01*
X336336Y276635D01*
X336332Y276590D01*
X336321Y276531D01*
X336310Y276461D01*
X336292Y276379D01*
X336047Y275251D01*
X335552D01*
X335792Y276379D01*
Y276383D01*
X335796Y276391D01*
Y276398D01*
X335800Y276413D01*
X335807Y276450D01*
X335814Y276490D01*
X335822Y276531D01*
X335829Y276572D01*
X335837Y276602D01*
Y276613D01*
Y276620D01*
Y276624D01*
Y276635D01*
X335833Y276646D01*
X335829Y276664D01*
X335818Y276705D01*
X335803Y276724D01*
X335788Y276742D01*
X335785Y276746D01*
X335781Y276749D01*
X335770Y276757D01*
X335755Y276768D01*
X335737Y276775D01*
X335711Y276783D01*
X335685Y276786D01*
X335651Y276790D01*
X335633D01*
X335618Y276786D01*
X335581Y276779D01*
X335537Y276764D01*
X335485Y276742D01*
X335426Y276705D01*
X335396Y276683D01*
X335367Y276657D01*
X335341Y276627D01*
X335311Y276590D01*
X335307Y276583D01*
X335300Y276576D01*
X335293Y276565D01*
X335285Y276546D01*
X335274Y276528D01*
X335259Y276502D01*
X335248Y276476D01*
X335233Y276442D01*
X335219Y276405D01*
X335204Y276365D01*
X335189Y276320D01*
X335171Y276272D01*
X335156Y276217D01*
X335141Y276157D01*
X335126Y276091D01*
X334948Y275251D01*
X334453D01*
X334686Y276368D01*
Y276372D01*
X334689Y276376D01*
X334693Y276402D01*
X334701Y276435D01*
X334708Y276472D01*
X334715Y276516D01*
X334719Y276557D01*
X334727Y276594D01*
Y276620D01*
Y276624D01*
Y276631D01*
X334723Y276646D01*
X334719Y276664D01*
X334704Y276701D01*
X334693Y276724D01*
X334675Y276742D01*
X334671Y276746D01*
X334667Y276749D01*
X334656Y276757D01*
X334641Y276768D01*
X334619Y276775D01*
X334597Y276783D01*
X334571Y276786D01*
X334538Y276790D01*
X334523D01*
X334508Y276786D01*
X334486Y276783D01*
X334460Y276779D01*
X334431Y276768D01*
X334401Y276757D01*
X334368Y276738D01*
X334364Y276735D01*
X334353Y276731D01*
X334334Y276720D01*
X334316Y276705D01*
X334290Y276687D01*
X334264Y276661D01*
X334238Y276635D01*
X334212Y276605D01*
X334208Y276602D01*
X334201Y276590D01*
X334190Y276572D01*
X334175Y276546D01*
X334157Y276516D01*
X334138Y276476D01*
X334120Y276435D01*
X334101Y276387D01*
Y276383D01*
X334098Y276372D01*
X334090Y276354D01*
X334083Y276328D01*
X334075Y276291D01*
X334061Y276239D01*
X334046Y276180D01*
X334038Y276143D01*
X334027Y276102D01*
X333850Y275251D01*
X333354D01*
X333742Y277108D01*
X334212D01*
X334168Y276883D01*
X334172Y276886D01*
X334179Y276894D01*
X334194Y276909D01*
X334216Y276923D01*
X334242Y276946D01*
X334271Y276968D01*
X334305Y276990D01*
X334345Y277016D01*
X334434Y277064D01*
X334530Y277108D01*
X334586Y277123D01*
X334638Y277138D01*
X334697Y277145D01*
X334752Y277149D01*
X334786D01*
X334826Y277145D01*
X334871Y277138D01*
X334923Y277127D01*
X334978Y277112D01*
X335030Y277090D01*
X335074Y277060D01*
X335078Y277057D01*
X335093Y277045D01*
X335111Y277023D01*
X335137Y276997D01*
X335159Y276964D01*
X335185Y276920D01*
X335208Y276875D01*
X335222Y276820D01*
X335226Y276827D01*
X335241Y276842D01*
X335263Y276868D01*
X335293Y276901D01*
X335333Y276938D01*
X335378Y276975D01*
X335433Y277016D01*
X335496Y277053D01*
X335500D01*
X335504Y277057D01*
X335515Y277060D01*
X335529Y277068D01*
X335563Y277082D01*
X335611Y277101D01*
X335666Y277119D01*
X335733Y277134D01*
X335800Y277145D01*
X335874Y277149D01*
X335911D01*
X335951Y277142D01*
D02*
G37*
G36*
X330501Y277145D02*
X330531D01*
X330564Y277142D01*
X330645Y277134D01*
X330731Y277116D01*
X330823Y277094D01*
X330908Y277060D01*
X330945Y277038D01*
X330982Y277016D01*
X330986D01*
X330990Y277009D01*
X331012Y276994D01*
X331045Y276964D01*
X331082Y276923D01*
X331123Y276872D01*
X331160Y276812D01*
X331193Y276742D01*
X331219Y276661D01*
X330756Y276583D01*
Y276587D01*
X330749Y276598D01*
X330742Y276616D01*
X330727Y276639D01*
X330712Y276664D01*
X330690Y276687D01*
X330664Y276712D01*
X330634Y276731D01*
X330631Y276735D01*
X330616Y276742D01*
X330590Y276753D01*
X330560Y276768D01*
X330520Y276779D01*
X330475Y276790D01*
X330423Y276798D01*
X330364Y276801D01*
X330338D01*
X330309Y276798D01*
X330275Y276794D01*
X330238Y276786D01*
X330201Y276779D01*
X330164Y276764D01*
X330135Y276746D01*
X330131Y276742D01*
X330124Y276738D01*
X330113Y276727D01*
X330101Y276712D01*
X330079Y276676D01*
X330072Y276653D01*
X330068Y276627D01*
Y276624D01*
Y276616D01*
X330072Y276602D01*
X330076Y276587D01*
X330083Y276568D01*
X330098Y276550D01*
X330113Y276531D01*
X330135Y276513D01*
X330138D01*
X330146Y276505D01*
X330161Y276498D01*
X330187Y276490D01*
X330224Y276476D01*
X330246Y276468D01*
X330275Y276457D01*
X330305Y276450D01*
X330338Y276439D01*
X330375Y276424D01*
X330420Y276413D01*
X330423D01*
X330434Y276409D01*
X330453Y276402D01*
X330479Y276394D01*
X330508Y276383D01*
X330542Y276372D01*
X330620Y276346D01*
X330701Y276317D01*
X330782Y276280D01*
X330819Y276261D01*
X330856Y276243D01*
X330886Y276224D01*
X330912Y276206D01*
X330915D01*
X330919Y276198D01*
X330941Y276180D01*
X330967Y276146D01*
X331001Y276106D01*
X331034Y276054D01*
X331064Y275995D01*
X331082Y275928D01*
X331086Y275891D01*
X331089Y275854D01*
Y275850D01*
Y275843D01*
Y275828D01*
X331086Y275810D01*
X331082Y275787D01*
X331078Y275762D01*
X331060Y275699D01*
X331034Y275628D01*
X331015Y275588D01*
X330993Y275551D01*
X330967Y275510D01*
X330938Y275473D01*
X330904Y275432D01*
X330864Y275395D01*
X330860Y275392D01*
X330853Y275388D01*
X330841Y275377D01*
X330823Y275366D01*
X330801Y275351D01*
X330771Y275336D01*
X330738Y275318D01*
X330701Y275299D01*
X330660Y275281D01*
X330612Y275262D01*
X330564Y275247D01*
X330505Y275233D01*
X330446Y275221D01*
X330383Y275210D01*
X330312Y275207D01*
X330238Y275203D01*
X330201D01*
X330172Y275207D01*
X330138D01*
X330098Y275210D01*
X330057Y275214D01*
X330009Y275221D01*
X329909Y275240D01*
X329805Y275262D01*
X329706Y275299D01*
X329661Y275321D01*
X329617Y275347D01*
X329613D01*
X329606Y275355D01*
X329595Y275362D01*
X329580Y275373D01*
X329543Y275410D01*
X329498Y275454D01*
X329450Y275514D01*
X329398Y275588D01*
X329354Y275669D01*
X329321Y275765D01*
X329805Y275843D01*
X329809Y275836D01*
X329817Y275817D01*
X329831Y275791D01*
X329850Y275758D01*
X329872Y275721D01*
X329898Y275684D01*
X329931Y275651D01*
X329965Y275625D01*
X329968Y275621D01*
X329983Y275614D01*
X330005Y275606D01*
X330035Y275595D01*
X330072Y275580D01*
X330116Y275573D01*
X330168Y275566D01*
X330227Y275562D01*
X330257D01*
X330287Y275566D01*
X330327Y275573D01*
X330372Y275580D01*
X330420Y275591D01*
X330464Y275610D01*
X330505Y275636D01*
X330508Y275640D01*
X330516Y275647D01*
X330527Y275658D01*
X330542Y275673D01*
X330568Y275713D01*
X330575Y275736D01*
X330579Y275765D01*
Y275769D01*
Y275773D01*
X330575Y275795D01*
X330564Y275824D01*
X330542Y275854D01*
X330538Y275858D01*
X330534Y275862D01*
X330520Y275869D01*
X330501Y275880D01*
X330471Y275895D01*
X330434Y275913D01*
X330390Y275932D01*
X330331Y275950D01*
X330327D01*
X330312Y275958D01*
X330287Y275965D01*
X330257Y275976D01*
X330224Y275987D01*
X330183Y276002D01*
X330090Y276035D01*
X329994Y276076D01*
X329902Y276113D01*
X329857Y276135D01*
X329820Y276154D01*
X329791Y276172D01*
X329765Y276187D01*
X329757Y276195D01*
X329739Y276213D01*
X329713Y276243D01*
X329683Y276283D01*
X329650Y276335D01*
X329624Y276398D01*
X329606Y276468D01*
X329602Y276505D01*
X329598Y276546D01*
Y276550D01*
Y276557D01*
Y276568D01*
X329602Y276583D01*
X329606Y276624D01*
X329621Y276676D01*
X329639Y276735D01*
X329669Y276798D01*
X329709Y276860D01*
X329731Y276894D01*
X329761Y276923D01*
X329765Y276927D01*
X329772Y276935D01*
X329787Y276946D01*
X329805Y276960D01*
X329828Y276975D01*
X329857Y276994D01*
X329891Y277016D01*
X329931Y277038D01*
X329979Y277057D01*
X330028Y277079D01*
X330083Y277097D01*
X330146Y277116D01*
X330212Y277127D01*
X330283Y277138D01*
X330361Y277145D01*
X330442Y277149D01*
X330475D01*
X330501Y277145D01*
D02*
G37*
G36*
X328510D02*
X328540D01*
X328573Y277142D01*
X328655Y277134D01*
X328740Y277116D01*
X328832Y277094D01*
X328918Y277060D01*
X328955Y277038D01*
X328992Y277016D01*
X328995D01*
X328999Y277009D01*
X329021Y276994D01*
X329054Y276964D01*
X329091Y276923D01*
X329132Y276872D01*
X329169Y276812D01*
X329202Y276742D01*
X329228Y276661D01*
X328766Y276583D01*
Y276587D01*
X328758Y276598D01*
X328751Y276616D01*
X328736Y276639D01*
X328721Y276664D01*
X328699Y276687D01*
X328673Y276712D01*
X328644Y276731D01*
X328640Y276735D01*
X328625Y276742D01*
X328599Y276753D01*
X328570Y276768D01*
X328529Y276779D01*
X328485Y276790D01*
X328433Y276798D01*
X328374Y276801D01*
X328348D01*
X328318Y276798D01*
X328285Y276794D01*
X328248Y276786D01*
X328211Y276779D01*
X328174Y276764D01*
X328144Y276746D01*
X328140Y276742D01*
X328133Y276738D01*
X328122Y276727D01*
X328111Y276712D01*
X328089Y276676D01*
X328081Y276653D01*
X328078Y276627D01*
Y276624D01*
Y276616D01*
X328081Y276602D01*
X328085Y276587D01*
X328092Y276568D01*
X328107Y276550D01*
X328122Y276531D01*
X328144Y276513D01*
X328148D01*
X328155Y276505D01*
X328170Y276498D01*
X328196Y276490D01*
X328233Y276476D01*
X328255Y276468D01*
X328285Y276457D01*
X328314Y276450D01*
X328348Y276439D01*
X328385Y276424D01*
X328429Y276413D01*
X328433D01*
X328444Y276409D01*
X328462Y276402D01*
X328488Y276394D01*
X328518Y276383D01*
X328551Y276372D01*
X328629Y276346D01*
X328710Y276317D01*
X328792Y276280D01*
X328829Y276261D01*
X328866Y276243D01*
X328895Y276224D01*
X328921Y276206D01*
X328925D01*
X328929Y276198D01*
X328951Y276180D01*
X328977Y276146D01*
X329010Y276106D01*
X329043Y276054D01*
X329073Y275995D01*
X329091Y275928D01*
X329095Y275891D01*
X329099Y275854D01*
Y275850D01*
Y275843D01*
Y275828D01*
X329095Y275810D01*
X329091Y275787D01*
X329088Y275762D01*
X329069Y275699D01*
X329043Y275628D01*
X329025Y275588D01*
X329003Y275551D01*
X328977Y275510D01*
X328947Y275473D01*
X328914Y275432D01*
X328873Y275395D01*
X328869Y275392D01*
X328862Y275388D01*
X328851Y275377D01*
X328832Y275366D01*
X328810Y275351D01*
X328781Y275336D01*
X328747Y275318D01*
X328710Y275299D01*
X328670Y275281D01*
X328622Y275262D01*
X328573Y275247D01*
X328514Y275233D01*
X328455Y275221D01*
X328392Y275210D01*
X328322Y275207D01*
X328248Y275203D01*
X328211D01*
X328181Y275207D01*
X328148D01*
X328107Y275210D01*
X328066Y275214D01*
X328018Y275221D01*
X327919Y275240D01*
X327815Y275262D01*
X327715Y275299D01*
X327671Y275321D01*
X327626Y275347D01*
X327623D01*
X327615Y275355D01*
X327604Y275362D01*
X327589Y275373D01*
X327552Y275410D01*
X327508Y275454D01*
X327460Y275514D01*
X327408Y275588D01*
X327363Y275669D01*
X327330Y275765D01*
X327815Y275843D01*
X327819Y275836D01*
X327826Y275817D01*
X327841Y275791D01*
X327859Y275758D01*
X327882Y275721D01*
X327907Y275684D01*
X327941Y275651D01*
X327974Y275625D01*
X327978Y275621D01*
X327993Y275614D01*
X328015Y275606D01*
X328044Y275595D01*
X328081Y275580D01*
X328126Y275573D01*
X328177Y275566D01*
X328237Y275562D01*
X328266D01*
X328296Y275566D01*
X328337Y275573D01*
X328381Y275580D01*
X328429Y275591D01*
X328473Y275610D01*
X328514Y275636D01*
X328518Y275640D01*
X328525Y275647D01*
X328536Y275658D01*
X328551Y275673D01*
X328577Y275713D01*
X328585Y275736D01*
X328588Y275765D01*
Y275769D01*
Y275773D01*
X328585Y275795D01*
X328573Y275824D01*
X328551Y275854D01*
X328548Y275858D01*
X328544Y275862D01*
X328529Y275869D01*
X328510Y275880D01*
X328481Y275895D01*
X328444Y275913D01*
X328399Y275932D01*
X328340Y275950D01*
X328337D01*
X328322Y275958D01*
X328296Y275965D01*
X328266Y275976D01*
X328233Y275987D01*
X328192Y276002D01*
X328100Y276035D01*
X328004Y276076D01*
X327911Y276113D01*
X327867Y276135D01*
X327830Y276154D01*
X327800Y276172D01*
X327774Y276187D01*
X327767Y276195D01*
X327748Y276213D01*
X327722Y276243D01*
X327693Y276283D01*
X327660Y276335D01*
X327634Y276398D01*
X327615Y276468D01*
X327611Y276505D01*
X327608Y276546D01*
Y276550D01*
Y276557D01*
Y276568D01*
X327611Y276583D01*
X327615Y276624D01*
X327630Y276676D01*
X327648Y276735D01*
X327678Y276798D01*
X327719Y276860D01*
X327741Y276894D01*
X327770Y276923D01*
X327774Y276927D01*
X327782Y276935D01*
X327796Y276946D01*
X327815Y276960D01*
X327837Y276975D01*
X327867Y276994D01*
X327900Y277016D01*
X327941Y277038D01*
X327989Y277057D01*
X328037Y277079D01*
X328092Y277097D01*
X328155Y277116D01*
X328222Y277127D01*
X328292Y277138D01*
X328370Y277145D01*
X328451Y277149D01*
X328485D01*
X328510Y277145D01*
D02*
G37*
G36*
X358151Y277145D02*
X358181D01*
X358214Y277142D01*
X358292Y277131D01*
X358381Y277116D01*
X358466Y277090D01*
X358551Y277053D01*
X358588Y277031D01*
X358621Y277005D01*
X358625D01*
X358629Y276997D01*
X358647Y276979D01*
X358677Y276949D01*
X358710Y276905D01*
X358739Y276853D01*
X358769Y276794D01*
X358788Y276727D01*
X358795Y276690D01*
Y276650D01*
Y276646D01*
Y276635D01*
Y276620D01*
X358791Y276598D01*
Y276572D01*
X358788Y276542D01*
X358776Y276472D01*
Y276468D01*
X358773Y276450D01*
X358769Y276439D01*
Y276420D01*
X358762Y276402D01*
X358758Y276376D01*
X358751Y276346D01*
X358743Y276309D01*
X358736Y276269D01*
X358728Y276224D01*
X358717Y276172D01*
X358702Y276113D01*
X358688Y276046D01*
X358673Y275976D01*
Y275973D01*
X358669Y275961D01*
X358665Y275947D01*
X358662Y275924D01*
X358658Y275895D01*
X358651Y275865D01*
X358640Y275795D01*
X358625Y275717D01*
X358614Y275643D01*
X358606Y275573D01*
X358603Y275540D01*
Y275514D01*
Y275510D01*
Y275491D01*
X358606Y275469D01*
Y275436D01*
X358614Y275399D01*
X358621Y275355D01*
X358629Y275303D01*
X358643Y275251D01*
X358159D01*
Y275255D01*
X358155Y275270D01*
X358148Y275288D01*
X358140Y275314D01*
X358136Y275347D01*
X358129Y275380D01*
X358122Y275458D01*
X358118Y275454D01*
X358103Y275440D01*
X358077Y275417D01*
X358048Y275388D01*
X358011Y275358D01*
X357966Y275329D01*
X357918Y275295D01*
X357866Y275270D01*
X357859Y275266D01*
X357840Y275258D01*
X357815Y275247D01*
X357778Y275236D01*
X357733Y275225D01*
X357685Y275214D01*
X357633Y275207D01*
X357578Y275203D01*
X357556D01*
X357541Y275207D01*
X357496Y275210D01*
X357445Y275221D01*
X357385Y275240D01*
X357319Y275266D01*
X357256Y275303D01*
X357197Y275351D01*
X357189Y275358D01*
X357174Y275377D01*
X357149Y275410D01*
X357123Y275458D01*
X357097Y275514D01*
X357071Y275580D01*
X357056Y275658D01*
X357049Y275743D01*
Y275747D01*
Y275754D01*
Y275769D01*
X357052Y275787D01*
Y275810D01*
X357056Y275836D01*
X357071Y275895D01*
X357089Y275965D01*
X357119Y276035D01*
X357160Y276106D01*
X357182Y276139D01*
X357211Y276169D01*
X357215Y276172D01*
X357219Y276176D01*
X357230Y276183D01*
X357245Y276195D01*
X357263Y276206D01*
X357285Y276220D01*
X357315Y276235D01*
X357348Y276254D01*
X357385Y276269D01*
X357430Y276287D01*
X357478Y276302D01*
X357533Y276317D01*
X357593Y276331D01*
X357655Y276343D01*
X357726Y276354D01*
X357803Y276361D01*
X357818D01*
X357837Y276365D01*
X357863D01*
X357889Y276368D01*
X357922Y276372D01*
X357996Y276383D01*
X358077Y276391D01*
X358155Y276405D01*
X358192Y276413D01*
X358225Y276420D01*
X358255Y276428D01*
X358281Y276435D01*
Y276439D01*
X358284Y276453D01*
X358292Y276472D01*
X358299Y276494D01*
X358310Y276550D01*
X358314Y276576D01*
Y276602D01*
Y276605D01*
Y276616D01*
X358310Y276627D01*
X358307Y276646D01*
X358299Y276668D01*
X358284Y276690D01*
X358270Y276712D01*
X358247Y276735D01*
X358244Y276738D01*
X358236Y276742D01*
X358222Y276753D01*
X358199Y276764D01*
X358170Y276772D01*
X358140Y276783D01*
X358099Y276786D01*
X358055Y276790D01*
X358033D01*
X358007Y276786D01*
X357977Y276783D01*
X357944Y276775D01*
X357907Y276768D01*
X357874Y276753D01*
X357840Y276735D01*
X357837Y276731D01*
X357829Y276724D01*
X357815Y276712D01*
X357800Y276694D01*
X357781Y276672D01*
X357763Y276646D01*
X357748Y276616D01*
X357737Y276583D01*
X357248Y276624D01*
Y276627D01*
X357252Y276635D01*
X357256Y276646D01*
X357263Y276664D01*
X357285Y276709D01*
X357315Y276764D01*
X357356Y276823D01*
X357404Y276890D01*
X357467Y276953D01*
X357537Y277009D01*
X357541D01*
X357548Y277016D01*
X357559Y277023D01*
X357574Y277031D01*
X357596Y277042D01*
X357622Y277053D01*
X357652Y277064D01*
X357685Y277079D01*
X357722Y277094D01*
X357766Y277105D01*
X357811Y277116D01*
X357859Y277127D01*
X357970Y277142D01*
X358092Y277149D01*
X358125D01*
X358151Y277145D01*
D02*
G37*
G36*
X354348Y275251D02*
X353852D01*
X354240Y277108D01*
X354740D01*
X354348Y275251D01*
D02*
G37*
G36*
X352516Y276898D02*
X352520D01*
X352523Y276905D01*
X352546Y276920D01*
X352579Y276942D01*
X352620Y276972D01*
X352668Y277005D01*
X352723Y277034D01*
X352779Y277064D01*
X352834Y277090D01*
X352842Y277094D01*
X352860Y277101D01*
X352890Y277108D01*
X352930Y277119D01*
X352979Y277131D01*
X353030Y277142D01*
X353090Y277145D01*
X353152Y277149D01*
X353175D01*
X353189Y277145D01*
X353230Y277142D01*
X353282Y277134D01*
X353341Y277116D01*
X353400Y277094D01*
X353460Y277060D01*
X353511Y277016D01*
X353519Y277009D01*
X353534Y276994D01*
X353552Y276964D01*
X353578Y276927D01*
X353604Y276875D01*
X353622Y276820D01*
X353637Y276753D01*
X353645Y276679D01*
Y276676D01*
Y276657D01*
X353641Y276631D01*
X353637Y276594D01*
X353630Y276546D01*
X353619Y276487D01*
X353608Y276413D01*
X353589Y276331D01*
X353356Y275251D01*
X352860Y275251D01*
X353097Y276354D01*
Y276357D01*
Y276361D01*
X353104Y276383D01*
X353108Y276413D01*
X353116Y276450D01*
X353123Y276487D01*
X353130Y276524D01*
X353134Y276557D01*
X353138Y276583D01*
Y276587D01*
Y276598D01*
X353134Y276616D01*
X353130Y276635D01*
X353123Y276661D01*
X353112Y276683D01*
X353097Y276709D01*
X353079Y276731D01*
X353075Y276735D01*
X353067Y276742D01*
X353056Y276749D01*
X353038Y276761D01*
X353016Y276772D01*
X352986Y276783D01*
X352956Y276786D01*
X352919Y276790D01*
X352897D01*
X352871Y276786D01*
X352842Y276779D01*
X352801Y276768D01*
X352760Y276753D01*
X352716Y276731D01*
X352672Y276701D01*
X352664Y276698D01*
X352646Y276679D01*
X352620Y276657D01*
X352586Y276624D01*
X352549Y276583D01*
X352509Y276535D01*
X352472Y276479D01*
X352438Y276420D01*
X352435Y276416D01*
X352431Y276402D01*
X352420Y276372D01*
X352416Y276354D01*
X352409Y276331D01*
X352401Y276306D01*
X352390Y276272D01*
X352383Y276239D01*
X352372Y276198D01*
X352361Y276150D01*
X352350Y276102D01*
X352339Y276046D01*
X352324Y275984D01*
X352168Y275251D01*
X351673D01*
X352209Y277811D01*
X352705D01*
X352516Y276898D01*
D02*
G37*
G36*
X345401Y275251D02*
X344905D01*
X345294Y277108D01*
X345793D01*
X345401Y275251D01*
D02*
G37*
G36*
X339229D02*
X338734D01*
X339270Y277811D01*
X339766D01*
X339229Y275251D01*
D02*
G37*
G36*
X327079D02*
X326579D01*
X326494Y275817D01*
X325480D01*
X325173Y275251D01*
X324633D01*
X326072Y277811D01*
X326668D01*
X327079Y275251D01*
D02*
G37*
G36*
X340883Y277145D02*
X340913Y277142D01*
X340946Y277138D01*
X340983Y277131D01*
X341024Y277123D01*
X341113Y277097D01*
X341157Y277082D01*
X341201Y277060D01*
X341246Y277034D01*
X341290Y277009D01*
X341331Y276975D01*
X341372Y276938D01*
X341375Y276935D01*
X341379Y276927D01*
X341390Y276916D01*
X341405Y276901D01*
X341420Y276879D01*
X341435Y276853D01*
X341453Y276820D01*
X341475Y276786D01*
X341494Y276746D01*
X341512Y276701D01*
X341527Y276653D01*
X341542Y276598D01*
X341557Y276542D01*
X341568Y276479D01*
X341571Y276416D01*
X341575Y276346D01*
Y276343D01*
Y276339D01*
Y276317D01*
Y276280D01*
X341571Y276239D01*
X341568Y276187D01*
X341560Y276132D01*
X341538Y276021D01*
X340280D01*
Y276017D01*
Y276002D01*
X340277Y275987D01*
Y275973D01*
Y275969D01*
Y275965D01*
Y275943D01*
X340284Y275910D01*
X340291Y275865D01*
X340302Y275817D01*
X340321Y275769D01*
X340347Y275717D01*
X340380Y275673D01*
X340384Y275669D01*
X340399Y275654D01*
X340421Y275640D01*
X340454Y275617D01*
X340491Y275599D01*
X340535Y275580D01*
X340587Y275566D01*
X340643Y275562D01*
X340669D01*
X340684Y275566D01*
X340706Y275569D01*
X340732Y275577D01*
X340787Y275595D01*
X340817Y275606D01*
X340850Y275625D01*
X340883Y275647D01*
X340913Y275673D01*
X340946Y275702D01*
X340980Y275736D01*
X341009Y275776D01*
X341035Y275821D01*
X341483Y275747D01*
Y275743D01*
X341475Y275736D01*
X341468Y275721D01*
X341457Y275702D01*
X341446Y275680D01*
X341427Y275654D01*
X341390Y275591D01*
X341338Y275525D01*
X341276Y275458D01*
X341205Y275392D01*
X341127Y275336D01*
X341124D01*
X341116Y275329D01*
X341105Y275325D01*
X341090Y275314D01*
X341068Y275307D01*
X341046Y275295D01*
X340983Y275270D01*
X340913Y275244D01*
X340828Y275225D01*
X340739Y275210D01*
X340639Y275203D01*
X340602D01*
X340576Y275207D01*
X340543Y275210D01*
X340506Y275214D01*
X340465Y275221D01*
X340421Y275233D01*
X340325Y275262D01*
X340273Y275281D01*
X340221Y275303D01*
X340173Y275329D01*
X340121Y275362D01*
X340073Y275399D01*
X340029Y275440D01*
X340025Y275443D01*
X340018Y275451D01*
X340006Y275466D01*
X339992Y275484D01*
X339973Y275506D01*
X339955Y275536D01*
X339932Y275569D01*
X339914Y275606D01*
X339892Y275651D01*
X339869Y275695D01*
X339851Y275747D01*
X339832Y275802D01*
X339818Y275862D01*
X339807Y275928D01*
X339799Y275995D01*
X339795Y276065D01*
Y276069D01*
Y276083D01*
Y276102D01*
X339799Y276128D01*
X339803Y276161D01*
X339807Y276202D01*
X339814Y276246D01*
X339821Y276294D01*
X339847Y276398D01*
X339866Y276453D01*
X339884Y276513D01*
X339910Y276572D01*
X339936Y276631D01*
X339969Y276690D01*
X340006Y276746D01*
X340010Y276749D01*
X340021Y276764D01*
X340036Y276783D01*
X340058Y276809D01*
X340091Y276838D01*
X340125Y276875D01*
X340169Y276909D01*
X340217Y276949D01*
X340273Y276986D01*
X340336Y277023D01*
X340402Y277057D01*
X340476Y277086D01*
X340554Y277112D01*
X340639Y277131D01*
X340732Y277145D01*
X340828Y277149D01*
X340861D01*
X340883Y277145D01*
D02*
G37*
G36*
X337387Y276953D02*
X337394Y276957D01*
X337409Y276972D01*
X337435Y276990D01*
X337472Y277012D01*
X337509Y277034D01*
X337553Y277060D01*
X337598Y277082D01*
X337642Y277101D01*
X337649Y277105D01*
X337664Y277108D01*
X337690Y277116D01*
X337720Y277127D01*
X337760Y277134D01*
X337805Y277142D01*
X337857Y277145D01*
X337909Y277149D01*
X337938D01*
X337957Y277145D01*
X337983Y277142D01*
X338012Y277138D01*
X338079Y277123D01*
X338153Y277101D01*
X338234Y277064D01*
X338271Y277042D01*
X338312Y277016D01*
X338349Y276986D01*
X338382Y276949D01*
X338386Y276946D01*
X338389Y276942D01*
X338397Y276927D01*
X338412Y276912D01*
X338423Y276894D01*
X338438Y276868D01*
X338456Y276838D01*
X338471Y276805D01*
X338489Y276764D01*
X338504Y276724D01*
X338519Y276676D01*
X338534Y276624D01*
X338545Y276568D01*
X338552Y276509D01*
X338556Y276446D01*
X338560Y276376D01*
Y276372D01*
Y276365D01*
Y276350D01*
Y276331D01*
X338556Y276309D01*
Y276283D01*
X338549Y276220D01*
X338538Y276146D01*
X338523Y276061D01*
X338504Y275973D01*
X338475Y275884D01*
Y275880D01*
X338471Y275873D01*
X338467Y275862D01*
X338460Y275843D01*
X338441Y275802D01*
X338415Y275747D01*
X338386Y275684D01*
X338345Y275621D01*
X338304Y275554D01*
X338253Y275495D01*
X338245Y275488D01*
X338227Y275469D01*
X338201Y275443D01*
X338164Y275414D01*
X338119Y275377D01*
X338068Y275340D01*
X338016Y275303D01*
X337957Y275273D01*
X337949Y275270D01*
X337931Y275262D01*
X337901Y275251D01*
X337860Y275240D01*
X337812Y275225D01*
X337757Y275214D01*
X337701Y275207D01*
X337638Y275203D01*
X337620D01*
X337601Y275207D01*
X337572Y275210D01*
X337539Y275214D01*
X337502Y275221D01*
X337461Y275233D01*
X337416Y275247D01*
X337368Y275266D01*
X337320Y275288D01*
X337272Y275318D01*
X337220Y275351D01*
X337176Y275388D01*
X337132Y275436D01*
X337087Y275488D01*
X337050Y275551D01*
X336987Y275251D01*
X336536D01*
X337072Y277811D01*
X337568D01*
X337387Y276953D01*
D02*
G37*
G36*
X332529Y277145D02*
X332558Y277142D01*
X332592Y277138D01*
X332629Y277131D01*
X332669Y277123D01*
X332758Y277097D01*
X332803Y277082D01*
X332847Y277060D01*
X332891Y277034D01*
X332936Y277009D01*
X332976Y276975D01*
X333017Y276938D01*
X333021Y276935D01*
X333025Y276927D01*
X333036Y276916D01*
X333050Y276901D01*
X333065Y276879D01*
X333080Y276853D01*
X333099Y276820D01*
X333121Y276786D01*
X333139Y276746D01*
X333158Y276701D01*
X333172Y276653D01*
X333187Y276598D01*
X333202Y276542D01*
X333213Y276479D01*
X333217Y276416D01*
X333221Y276346D01*
Y276343D01*
Y276339D01*
Y276317D01*
Y276280D01*
X333217Y276239D01*
X333213Y276187D01*
X333206Y276132D01*
X333184Y276021D01*
X331926D01*
Y276017D01*
Y276002D01*
X331922Y275987D01*
Y275973D01*
Y275969D01*
Y275965D01*
Y275943D01*
X331929Y275910D01*
X331937Y275865D01*
X331948Y275817D01*
X331966Y275769D01*
X331992Y275717D01*
X332026Y275673D01*
X332029Y275669D01*
X332044Y275654D01*
X332066Y275640D01*
X332100Y275617D01*
X332137Y275599D01*
X332181Y275580D01*
X332233Y275566D01*
X332288Y275562D01*
X332314D01*
X332329Y275566D01*
X332351Y275569D01*
X332377Y275577D01*
X332433Y275595D01*
X332462Y275606D01*
X332495Y275625D01*
X332529Y275647D01*
X332558Y275673D01*
X332592Y275702D01*
X332625Y275736D01*
X332655Y275776D01*
X332680Y275821D01*
X333128Y275747D01*
Y275743D01*
X333121Y275736D01*
X333113Y275721D01*
X333102Y275702D01*
X333091Y275680D01*
X333073Y275654D01*
X333036Y275591D01*
X332984Y275525D01*
X332921Y275458D01*
X332851Y275392D01*
X332773Y275336D01*
X332769D01*
X332762Y275329D01*
X332751Y275325D01*
X332736Y275314D01*
X332714Y275307D01*
X332692Y275295D01*
X332629Y275270D01*
X332558Y275244D01*
X332473Y275225D01*
X332384Y275210D01*
X332284Y275203D01*
X332247D01*
X332222Y275207D01*
X332188Y275210D01*
X332151Y275214D01*
X332111Y275221D01*
X332066Y275233D01*
X331970Y275262D01*
X331918Y275281D01*
X331866Y275303D01*
X331818Y275329D01*
X331767Y275362D01*
X331718Y275399D01*
X331674Y275440D01*
X331670Y275443D01*
X331663Y275451D01*
X331652Y275466D01*
X331637Y275484D01*
X331618Y275506D01*
X331600Y275536D01*
X331578Y275569D01*
X331559Y275606D01*
X331537Y275651D01*
X331515Y275695D01*
X331496Y275747D01*
X331478Y275802D01*
X331463Y275862D01*
X331452Y275928D01*
X331445Y275995D01*
X331441Y276065D01*
Y276069D01*
Y276083D01*
Y276102D01*
X331445Y276128D01*
X331448Y276161D01*
X331452Y276202D01*
X331459Y276246D01*
X331467Y276294D01*
X331493Y276398D01*
X331511Y276453D01*
X331530Y276513D01*
X331556Y276572D01*
X331581Y276631D01*
X331615Y276690D01*
X331652Y276746D01*
X331656Y276749D01*
X331667Y276764D01*
X331681Y276783D01*
X331704Y276809D01*
X331737Y276838D01*
X331770Y276875D01*
X331815Y276909D01*
X331863Y276949D01*
X331918Y276986D01*
X331981Y277023D01*
X332048Y277057D01*
X332122Y277086D01*
X332199Y277112D01*
X332284Y277131D01*
X332377Y277145D01*
X332473Y277149D01*
X332506D01*
X332529Y277145D01*
D02*
G37*
%LPC*%
G36*
X374491Y302121D02*
X370177D01*
Y301981D01*
X369759D01*
Y301842D01*
X369481D01*
Y301703D01*
X369342D01*
Y301564D01*
X369203D01*
Y301425D01*
X369063D01*
Y301286D01*
X368924D01*
Y301147D01*
Y301007D01*
Y300868D01*
X368785D01*
Y300729D01*
Y300590D01*
Y300451D01*
Y300311D01*
Y300172D01*
Y300033D01*
Y299894D01*
Y299755D01*
Y299616D01*
Y299477D01*
Y299337D01*
Y299198D01*
Y299059D01*
Y298920D01*
Y298781D01*
Y298641D01*
Y298502D01*
Y298363D01*
Y298224D01*
Y298085D01*
X368924D01*
Y297946D01*
Y297807D01*
Y297667D01*
X369063D01*
Y297528D01*
X369203D01*
Y297389D01*
X369342D01*
Y297250D01*
X369481D01*
Y297111D01*
X369759D01*
Y296972D01*
X370038D01*
Y296832D01*
X370455D01*
Y296972D01*
X370594D01*
Y297111D01*
X370733D01*
Y297250D01*
Y297389D01*
X370873D01*
Y297528D01*
Y297667D01*
Y297807D01*
X370733D01*
Y297946D01*
X370594D01*
Y298085D01*
X370455D01*
Y298224D01*
X370316D01*
Y298363D01*
Y298502D01*
Y298641D01*
Y298781D01*
Y298920D01*
Y299059D01*
Y299198D01*
Y299337D01*
Y299477D01*
Y299616D01*
Y299755D01*
Y299894D01*
Y300033D01*
Y300172D01*
Y300311D01*
Y300451D01*
Y300590D01*
Y300729D01*
X370455D01*
Y300868D01*
X370594D01*
Y301007D01*
X370733D01*
Y301147D01*
X373795D01*
Y301007D01*
X374074D01*
Y300868D01*
X374213D01*
Y300729D01*
X374352D01*
Y300590D01*
Y300451D01*
X374491D01*
Y300311D01*
Y300172D01*
Y300033D01*
Y299894D01*
Y299755D01*
Y299616D01*
Y299477D01*
Y299337D01*
Y299198D01*
Y299059D01*
Y298920D01*
Y298781D01*
Y298641D01*
Y298502D01*
Y298363D01*
X374352D01*
Y298224D01*
Y298085D01*
X374213D01*
Y297946D01*
X373934D01*
Y297807D01*
X372960D01*
Y297667D01*
X372821D01*
Y297528D01*
X372682D01*
Y297389D01*
Y297250D01*
X372543D01*
Y297111D01*
Y296972D01*
X373099D01*
Y296832D01*
X374630D01*
Y296972D01*
X375048D01*
Y297111D01*
X375187D01*
Y297250D01*
X375326D01*
Y297389D01*
X375465D01*
Y297528D01*
X375604D01*
Y297667D01*
X375744D01*
Y297807D01*
Y297946D01*
X375883D01*
Y298085D01*
Y298224D01*
Y298363D01*
Y298502D01*
Y298641D01*
Y298781D01*
Y298920D01*
Y299059D01*
Y299198D01*
Y299337D01*
Y299477D01*
Y299616D01*
Y299755D01*
Y299894D01*
Y300033D01*
Y300172D01*
Y300311D01*
Y300451D01*
Y300590D01*
Y300729D01*
Y300868D01*
Y301007D01*
X375744D01*
Y301147D01*
Y301286D01*
X375604D01*
Y301425D01*
X375465D01*
Y301564D01*
Y301703D01*
X375187D01*
Y301842D01*
X374908D01*
Y301981D01*
X374491D01*
Y302121D01*
D02*
G37*
G36*
X345683Y293631D02*
X338307D01*
Y293492D01*
X338029D01*
Y293353D01*
Y293214D01*
Y293075D01*
Y292935D01*
Y292796D01*
Y292657D01*
Y292518D01*
Y292379D01*
Y292240D01*
Y292101D01*
Y291961D01*
Y291822D01*
Y291683D01*
Y291544D01*
Y291405D01*
Y291266D01*
Y291126D01*
Y290987D01*
Y290848D01*
Y290709D01*
Y290570D01*
Y290430D01*
Y290291D01*
Y290152D01*
Y290013D01*
Y289874D01*
Y289735D01*
Y289595D01*
Y289456D01*
Y289317D01*
Y289178D01*
Y289039D01*
Y288900D01*
Y288760D01*
Y288621D01*
Y288482D01*
Y288343D01*
Y288204D01*
Y288065D01*
Y287925D01*
Y287786D01*
Y287647D01*
Y287508D01*
Y287369D01*
Y287230D01*
Y287090D01*
Y286951D01*
Y286812D01*
Y286673D01*
Y286534D01*
Y286395D01*
Y286255D01*
Y286116D01*
Y285977D01*
Y285838D01*
X338168D01*
Y285699D01*
X339838D01*
Y285838D01*
X339977D01*
Y285977D01*
Y286116D01*
Y286255D01*
Y286395D01*
Y286534D01*
Y286673D01*
Y286812D01*
Y286951D01*
Y287090D01*
Y287230D01*
Y287369D01*
Y287508D01*
Y287647D01*
Y287786D01*
Y287925D01*
Y288065D01*
Y288204D01*
X344152D01*
Y288065D01*
Y287925D01*
X344430D01*
Y287786D01*
Y287647D01*
X344570D01*
Y287508D01*
X344709D01*
Y287369D01*
X344848D01*
Y287230D01*
X344987D01*
Y287090D01*
X345126D01*
Y286951D01*
X345265D01*
Y286812D01*
Y286673D01*
X345405D01*
Y286534D01*
X345544D01*
Y286395D01*
X345683D01*
Y286255D01*
X345822D01*
Y286116D01*
X345961D01*
Y285977D01*
X346100D01*
Y285838D01*
X346240D01*
Y285699D01*
X348188D01*
Y285838D01*
X348327D01*
Y285977D01*
Y286116D01*
X348188D01*
Y286255D01*
X348049D01*
Y286395D01*
Y286534D01*
X347771D01*
Y286673D01*
Y286812D01*
X347631D01*
Y286951D01*
X347492D01*
Y287090D01*
X347353D01*
Y287230D01*
X347214D01*
Y287369D01*
X347075D01*
Y287508D01*
X346936D01*
Y287647D01*
X346796D01*
Y287786D01*
X346657D01*
Y287925D01*
X346518D01*
Y288065D01*
X346379D01*
Y288204D01*
X346240D01*
Y288343D01*
X346379D01*
Y288482D01*
X346796D01*
Y288621D01*
X347075D01*
Y288760D01*
X347353D01*
Y288900D01*
X347492D01*
Y289039D01*
X347631D01*
Y289178D01*
Y289317D01*
X347771D01*
Y289456D01*
X347910D01*
Y289595D01*
Y289735D01*
Y289874D01*
X348049D01*
Y290013D01*
Y290152D01*
Y290291D01*
Y290430D01*
Y290570D01*
Y290709D01*
Y290848D01*
Y290987D01*
Y291126D01*
Y291266D01*
Y291405D01*
Y291544D01*
Y291683D01*
Y291822D01*
Y291961D01*
X347910D01*
Y292101D01*
Y292240D01*
Y292379D01*
X347771D01*
Y292518D01*
Y292657D01*
X347631D01*
Y292796D01*
X347492D01*
Y292935D01*
X347353D01*
Y293075D01*
X347214D01*
Y293214D01*
X346936D01*
Y293353D01*
X346518D01*
Y293492D01*
X345683D01*
Y293631D01*
D02*
G37*
%LPD*%
G36*
X345405Y291822D02*
X345683D01*
Y291683D01*
X345822D01*
Y291544D01*
X345961D01*
Y291405D01*
Y291266D01*
Y291126D01*
Y290987D01*
Y290848D01*
Y290709D01*
Y290570D01*
Y290430D01*
Y290291D01*
Y290152D01*
Y290013D01*
X345822D01*
Y289874D01*
X345683D01*
Y289735D01*
X345265D01*
Y289595D01*
X339977D01*
Y289735D01*
Y289874D01*
Y290013D01*
Y290152D01*
Y290291D01*
Y290430D01*
Y290570D01*
Y290709D01*
Y290848D01*
Y290987D01*
Y291126D01*
Y291266D01*
Y291405D01*
Y291544D01*
Y291683D01*
Y291822D01*
Y291961D01*
X345405D01*
Y291822D01*
D02*
G37*
%LPC*%
G36*
X345265D02*
X340255D01*
Y291683D01*
Y291544D01*
Y291405D01*
Y291266D01*
Y291126D01*
Y290987D01*
Y290848D01*
Y290709D01*
Y290570D01*
Y290430D01*
Y290291D01*
Y290152D01*
Y290013D01*
Y289874D01*
X340673D01*
Y289735D01*
X345126D01*
Y289874D01*
X345544D01*
Y290013D01*
X345683D01*
Y290152D01*
X345822D01*
Y290291D01*
Y290430D01*
Y290570D01*
Y290709D01*
Y290848D01*
Y290987D01*
Y291126D01*
Y291266D01*
Y291405D01*
X345683D01*
Y291544D01*
X345544D01*
Y291683D01*
X345265D01*
Y291822D01*
D02*
G37*
G36*
X339607Y280655D02*
X339585D01*
X339570Y280651D01*
X339529Y280640D01*
X339477Y280625D01*
X339418Y280595D01*
X339388Y280573D01*
X339359Y280551D01*
X339329Y280521D01*
X339296Y280488D01*
X339270Y280451D01*
X339241Y280407D01*
Y280403D01*
X339233Y280396D01*
X339229Y280381D01*
X339218Y280366D01*
X339207Y280340D01*
X339196Y280314D01*
X339185Y280285D01*
X339170Y280247D01*
X339144Y280170D01*
X339122Y280081D01*
X339107Y279981D01*
X339100Y279877D01*
Y279874D01*
Y279870D01*
Y279859D01*
Y279844D01*
X339104Y279807D01*
X339111Y279763D01*
X339126Y279715D01*
X339141Y279663D01*
X339166Y279611D01*
X339200Y279567D01*
X339204Y279563D01*
X339218Y279548D01*
X339241Y279533D01*
X339270Y279511D01*
X339307Y279493D01*
X339352Y279474D01*
X339400Y279459D01*
X339451Y279456D01*
X339474D01*
X339499Y279459D01*
X339536Y279467D01*
X339574Y279478D01*
X339618Y279496D01*
X339662Y279519D01*
X339707Y279548D01*
X339710Y279552D01*
X339725Y279567D01*
X339747Y279589D01*
X339777Y279619D01*
X339807Y279659D01*
X339840Y279707D01*
X339869Y279767D01*
X339899Y279833D01*
Y279837D01*
X339903Y279840D01*
X339907Y279852D01*
X339910Y279866D01*
X339921Y279903D01*
X339936Y279952D01*
X339947Y280007D01*
X339958Y280070D01*
X339966Y280136D01*
X339969Y280203D01*
Y280207D01*
Y280210D01*
Y280222D01*
Y280236D01*
X339962Y280273D01*
X339955Y280318D01*
X339944Y280370D01*
X339921Y280425D01*
X339895Y280477D01*
X339858Y280529D01*
X339855Y280532D01*
X339840Y280547D01*
X339818Y280569D01*
X339788Y280592D01*
X339751Y280614D01*
X339707Y280636D01*
X339659Y280651D01*
X339607Y280655D01*
D02*
G37*
G36*
X378309Y279992D02*
X378305D01*
X378301Y279989D01*
X378290D01*
X378275Y279985D01*
X378239Y279974D01*
X378187Y279966D01*
X378183D01*
X378172Y279963D01*
X378150D01*
X378128Y279959D01*
X378094Y279955D01*
X378061Y279948D01*
X377983Y279933D01*
X377902Y279914D01*
X377820Y279892D01*
X377783Y279877D01*
X377750Y279863D01*
X377720Y279848D01*
X377695Y279833D01*
X377691Y279829D01*
X377683Y279822D01*
X377669Y279807D01*
X377654Y279789D01*
X377639Y279763D01*
X377624Y279733D01*
X377617Y279700D01*
X377613Y279663D01*
Y279659D01*
Y279648D01*
X377617Y279633D01*
X377621Y279611D01*
X377628Y279589D01*
X377639Y279563D01*
X377654Y279537D01*
X377676Y279515D01*
X377680Y279511D01*
X377687Y279507D01*
X377702Y279496D01*
X377720Y279485D01*
X377743Y279474D01*
X377772Y279467D01*
X377806Y279459D01*
X377843Y279456D01*
X377861D01*
X377883Y279459D01*
X377909Y279463D01*
X377942Y279467D01*
X377979Y279478D01*
X378016Y279489D01*
X378053Y279507D01*
X378057Y279511D01*
X378072Y279519D01*
X378091Y279530D01*
X378113Y279548D01*
X378135Y279567D01*
X378161Y279593D01*
X378187Y279619D01*
X378205Y279652D01*
X378209Y279656D01*
X378213Y279670D01*
X378224Y279689D01*
X378235Y279718D01*
X378250Y279755D01*
X378264Y279803D01*
X378279Y279859D01*
X378294Y279922D01*
X378309Y279992D01*
D02*
G37*
G36*
X372141D02*
X372137D01*
X372133Y279989D01*
X372122D01*
X372108Y279985D01*
X372071Y279974D01*
X372019Y279966D01*
X372015D01*
X372004Y279963D01*
X371982D01*
X371960Y279959D01*
X371926Y279955D01*
X371893Y279948D01*
X371815Y279933D01*
X371734Y279914D01*
X371653Y279892D01*
X371616Y279877D01*
X371582Y279863D01*
X371553Y279848D01*
X371527Y279833D01*
X371523Y279829D01*
X371516Y279822D01*
X371501Y279807D01*
X371486Y279789D01*
X371471Y279763D01*
X371456Y279733D01*
X371449Y279700D01*
X371445Y279663D01*
Y279659D01*
Y279648D01*
X371449Y279633D01*
X371453Y279611D01*
X371460Y279589D01*
X371471Y279563D01*
X371486Y279537D01*
X371508Y279515D01*
X371512Y279511D01*
X371519Y279507D01*
X371534Y279496D01*
X371553Y279485D01*
X371575Y279474D01*
X371604Y279467D01*
X371638Y279459D01*
X371675Y279456D01*
X371693D01*
X371715Y279459D01*
X371741Y279463D01*
X371775Y279467D01*
X371812Y279478D01*
X371849Y279489D01*
X371886Y279507D01*
X371889Y279511D01*
X371904Y279519D01*
X371923Y279530D01*
X371945Y279548D01*
X371967Y279567D01*
X371993Y279593D01*
X372019Y279619D01*
X372037Y279652D01*
X372041Y279656D01*
X372045Y279670D01*
X372056Y279689D01*
X372067Y279718D01*
X372082Y279755D01*
X372096Y279803D01*
X372111Y279859D01*
X372126Y279922D01*
X372141Y279992D01*
D02*
G37*
G36*
X351199Y281258D02*
X350651D01*
X350525Y280651D01*
X350995D01*
X351021Y280655D01*
X351080D01*
X351143Y280658D01*
X351206Y280666D01*
X351266Y280677D01*
X351317Y280688D01*
X351321Y280692D01*
X351336Y280695D01*
X351358Y280703D01*
X351384Y280717D01*
X351413Y280736D01*
X351443Y280758D01*
X351469Y280784D01*
X351495Y280814D01*
X351499Y280817D01*
X351506Y280828D01*
X351513Y280847D01*
X351528Y280869D01*
X351539Y280899D01*
X351547Y280932D01*
X351554Y280965D01*
X351558Y281002D01*
Y281006D01*
Y281017D01*
X351554Y281036D01*
X351550Y281058D01*
X351543Y281084D01*
X351532Y281110D01*
X351517Y281136D01*
X351499Y281161D01*
X351495Y281165D01*
X351487Y281172D01*
X351476Y281184D01*
X351458Y281195D01*
X351436Y281209D01*
X351410Y281224D01*
X351377Y281235D01*
X351340Y281246D01*
X351336D01*
X351328Y281250D01*
X351310D01*
X351284Y281254D01*
X351247D01*
X351199Y281258D01*
D02*
G37*
G36*
X351062Y280207D02*
X350433D01*
X350292Y279537D01*
X350877D01*
X350907Y279541D01*
X350973D01*
X351047Y279548D01*
X351117Y279556D01*
X351180Y279563D01*
X351206Y279570D01*
X351228Y279578D01*
X351232Y279581D01*
X351247Y279585D01*
X351266Y279596D01*
X351291Y279611D01*
X351321Y279630D01*
X351351Y279652D01*
X351380Y279678D01*
X351406Y279711D01*
X351410Y279715D01*
X351417Y279730D01*
X351428Y279748D01*
X351439Y279774D01*
X351450Y279803D01*
X351462Y279837D01*
X351469Y279874D01*
X351473Y279911D01*
Y279918D01*
Y279933D01*
X351469Y279955D01*
X351462Y279985D01*
X351450Y280018D01*
X351432Y280055D01*
X351410Y280088D01*
X351377Y280122D01*
X351373Y280125D01*
X351358Y280136D01*
X351336Y280148D01*
X351303Y280166D01*
X351258Y280181D01*
X351203Y280192D01*
X351140Y280203D01*
X351062Y280207D01*
D02*
G37*
G36*
X325991Y281265D02*
X325602D01*
X325240Y279537D01*
X325576D01*
X325606Y279541D01*
X325669D01*
X325739Y279544D01*
X325806Y279552D01*
X325872Y279559D01*
X325902Y279563D01*
X325928Y279570D01*
X325935Y279574D01*
X325950Y279578D01*
X325976Y279589D01*
X326009Y279600D01*
X326046Y279619D01*
X326087Y279641D01*
X326128Y279670D01*
X326168Y279704D01*
X326172D01*
X326176Y279711D01*
X326194Y279730D01*
X326224Y279763D01*
X326261Y279803D01*
X326305Y279859D01*
X326350Y279926D01*
X326394Y280000D01*
X326435Y280081D01*
Y280085D01*
X326438Y280092D01*
X326446Y280107D01*
X326453Y280122D01*
X326461Y280148D01*
X326468Y280173D01*
X326479Y280203D01*
X326490Y280240D01*
X326498Y280277D01*
X326509Y280322D01*
X326527Y280418D01*
X326538Y280525D01*
X326542Y280640D01*
Y280643D01*
Y280651D01*
Y280666D01*
Y280684D01*
X326538Y280706D01*
Y280732D01*
X326531Y280795D01*
X326520Y280862D01*
X326505Y280928D01*
X326483Y280995D01*
X326453Y281050D01*
X326450Y281058D01*
X326438Y281073D01*
X326420Y281095D01*
X326394Y281124D01*
X326361Y281154D01*
X326324Y281184D01*
X326279Y281209D01*
X326231Y281232D01*
X326228D01*
X326213Y281235D01*
X326191Y281243D01*
X326157Y281250D01*
X326113Y281254D01*
X326057Y281261D01*
X325991Y281265D01*
D02*
G37*
G36*
X342900Y280666D02*
X342881D01*
X342866Y280662D01*
X342833Y280658D01*
X342785Y280643D01*
X342733Y280621D01*
X342682Y280592D01*
X342622Y280547D01*
X342596Y280518D01*
X342570Y280488D01*
X342567Y280484D01*
X342563Y280477D01*
X342552Y280462D01*
X342541Y280444D01*
X342526Y280421D01*
X342511Y280392D01*
X342496Y280359D01*
X342478Y280322D01*
X342460Y280281D01*
X342445Y280233D01*
X342430Y280185D01*
X342415Y280129D01*
X342393Y280011D01*
X342389Y279944D01*
X342386Y279877D01*
Y279874D01*
Y279870D01*
Y279848D01*
X342393Y279811D01*
X342400Y279770D01*
X342411Y279718D01*
X342430Y279670D01*
X342456Y279619D01*
X342489Y279570D01*
X342493Y279567D01*
X342508Y279552D01*
X342530Y279533D01*
X342559Y279515D01*
X342596Y279493D01*
X342641Y279474D01*
X342689Y279459D01*
X342741Y279456D01*
X342763D01*
X342785Y279459D01*
X342818Y279467D01*
X342855Y279478D01*
X342896Y279493D01*
X342937Y279515D01*
X342981Y279544D01*
X342985Y279548D01*
X343000Y279563D01*
X343022Y279585D01*
X343048Y279615D01*
X343077Y279656D01*
X343111Y279707D01*
X343144Y279767D01*
X343174Y279837D01*
Y279840D01*
X343177Y279844D01*
X343181Y279855D01*
X343185Y279870D01*
X343199Y279911D01*
X343214Y279963D01*
X343225Y280022D01*
X343240Y280092D01*
X343248Y280166D01*
X343251Y280240D01*
Y280244D01*
Y280247D01*
Y280259D01*
Y280273D01*
X343248Y280307D01*
X343240Y280351D01*
X343225Y280403D01*
X343207Y280455D01*
X343181Y280506D01*
X343148Y280551D01*
X343144Y280555D01*
X343129Y280569D01*
X343107Y280588D01*
X343077Y280610D01*
X343040Y280629D01*
X343000Y280647D01*
X342952Y280662D01*
X342900Y280666D01*
D02*
G37*
G36*
X337598D02*
X337572D01*
X337542Y280658D01*
X337505Y280651D01*
X337461Y280636D01*
X337413Y280617D01*
X337365Y280588D01*
X337316Y280547D01*
X337313Y280543D01*
X337298Y280525D01*
X337276Y280499D01*
X337250Y280458D01*
X337224Y280410D01*
X337194Y280351D01*
X337169Y280285D01*
X337150Y280203D01*
X337938D01*
Y280207D01*
Y280222D01*
Y280236D01*
Y280251D01*
Y280255D01*
Y280259D01*
Y280270D01*
Y280285D01*
X337934Y280322D01*
X337927Y280370D01*
X337916Y280418D01*
X337897Y280469D01*
X337875Y280518D01*
X337846Y280562D01*
X337842Y280566D01*
X337827Y280577D01*
X337809Y280595D01*
X337779Y280614D01*
X337746Y280632D01*
X337701Y280651D01*
X337653Y280662D01*
X337598Y280666D01*
D02*
G37*
G36*
X328248D02*
X328222D01*
X328192Y280658D01*
X328155Y280651D01*
X328111Y280636D01*
X328063Y280617D01*
X328015Y280588D01*
X327967Y280547D01*
X327963Y280543D01*
X327948Y280525D01*
X327926Y280499D01*
X327900Y280458D01*
X327874Y280410D01*
X327845Y280351D01*
X327819Y280285D01*
X327800Y280203D01*
X328588D01*
Y280207D01*
Y280222D01*
Y280236D01*
Y280251D01*
Y280255D01*
Y280259D01*
Y280270D01*
Y280285D01*
X328585Y280322D01*
X328577Y280370D01*
X328566Y280418D01*
X328548Y280469D01*
X328525Y280518D01*
X328496Y280562D01*
X328492Y280566D01*
X328477Y280577D01*
X328459Y280595D01*
X328429Y280614D01*
X328396Y280632D01*
X328351Y280651D01*
X328303Y280662D01*
X328248Y280666D01*
D02*
G37*
G36*
X348505Y281295D02*
X348428D01*
X348394Y281291D01*
X348354Y281283D01*
X348306Y281276D01*
X348250Y281261D01*
X348195Y281239D01*
X348139Y281213D01*
X348132Y281209D01*
X348113Y281198D01*
X348087Y281180D01*
X348050Y281154D01*
X348009Y281121D01*
X347961Y281080D01*
X347917Y281036D01*
X347869Y280980D01*
X347865Y280973D01*
X347850Y280954D01*
X347825Y280921D01*
X347799Y280880D01*
X347765Y280825D01*
X347732Y280762D01*
X347699Y280692D01*
X347669Y280610D01*
Y280606D01*
X347665Y280599D01*
X347662Y280588D01*
X347658Y280573D01*
X347651Y280551D01*
X347643Y280529D01*
X347632Y280473D01*
X347617Y280403D01*
X347603Y280329D01*
X347595Y280247D01*
X347591Y280166D01*
Y280162D01*
Y280151D01*
Y280136D01*
X347595Y280118D01*
Y280092D01*
X347599Y280063D01*
X347614Y279996D01*
X347632Y279918D01*
X347662Y279840D01*
X347702Y279763D01*
X347725Y279726D01*
X347754Y279693D01*
X347758D01*
X347762Y279685D01*
X347784Y279667D01*
X347821Y279637D01*
X347869Y279607D01*
X347932Y279578D01*
X348002Y279548D01*
X348083Y279530D01*
X348128Y279526D01*
X348176Y279522D01*
X348224D01*
X348272Y279526D01*
X348328Y279530D01*
X348331D01*
X348342Y279533D01*
X348354Y279537D01*
X348361Y279541D01*
X348365Y279544D01*
X348368Y279559D01*
Y279563D01*
X348361Y279570D01*
X348346Y279589D01*
X348335Y279604D01*
X348317Y279622D01*
X348313Y279626D01*
X348298Y279641D01*
X348276Y279659D01*
X348246Y279681D01*
X348209Y279704D01*
X348172Y279730D01*
X348128Y279752D01*
X348083Y279770D01*
X348272Y280066D01*
X348276D01*
X348283Y280063D01*
X348294Y280055D01*
X348313Y280044D01*
X348331Y280033D01*
X348357Y280018D01*
X348413Y279981D01*
X348476Y279933D01*
X348546Y279877D01*
X348616Y279815D01*
X348683Y279744D01*
X348687Y279748D01*
X348690Y279752D01*
X348709Y279774D01*
X348738Y279811D01*
X348775Y279859D01*
X348816Y279918D01*
X348857Y279989D01*
X348901Y280070D01*
X348938Y280162D01*
Y280166D01*
X348942Y280173D01*
X348949Y280188D01*
X348953Y280207D01*
X348960Y280229D01*
X348972Y280255D01*
X348990Y280318D01*
X349005Y280392D01*
X349023Y280473D01*
X349034Y280558D01*
X349038Y280643D01*
Y280647D01*
Y280658D01*
Y280673D01*
X349034Y280695D01*
Y280717D01*
X349031Y280747D01*
X349020Y280817D01*
X348997Y280895D01*
X348968Y280973D01*
X348931Y281050D01*
X348905Y281087D01*
X348875Y281121D01*
Y281124D01*
X348868Y281128D01*
X348846Y281147D01*
X348809Y281176D01*
X348761Y281209D01*
X348701Y281239D01*
X348631Y281269D01*
X348550Y281287D01*
X348505Y281295D01*
D02*
G37*
G36*
X333232Y280666D02*
X333209D01*
X333184Y280662D01*
X333150Y280651D01*
X333110Y280640D01*
X333069Y280621D01*
X333025Y280595D01*
X332980Y280558D01*
X332976Y280555D01*
X332962Y280540D01*
X332943Y280514D01*
X332917Y280477D01*
X332888Y280433D01*
X332858Y280373D01*
X332828Y280307D01*
X332799Y280229D01*
X332795Y280222D01*
X332791Y280199D01*
X332780Y280170D01*
X332773Y280125D01*
X332762Y280081D01*
X332751Y280029D01*
X332747Y279974D01*
X332743Y279922D01*
Y279918D01*
Y279914D01*
Y279903D01*
Y279889D01*
X332747Y279848D01*
X332754Y279803D01*
X332766Y279752D01*
X332784Y279696D01*
X332806Y279644D01*
X332836Y279600D01*
X332839Y279596D01*
X332854Y279585D01*
X332873Y279567D01*
X332902Y279548D01*
X332936Y279526D01*
X332976Y279511D01*
X333025Y279496D01*
X333076Y279493D01*
X333099D01*
X333124Y279496D01*
X333158Y279504D01*
X333198Y279515D01*
X333243Y279533D01*
X333287Y279556D01*
X333335Y279589D01*
X333343Y279593D01*
X333358Y279607D01*
X333380Y279630D01*
X333406Y279663D01*
X333439Y279700D01*
X333469Y279748D01*
X333502Y279807D01*
X333528Y279870D01*
Y279874D01*
X333531Y279877D01*
X333535Y279889D01*
X333539Y279903D01*
X333550Y279937D01*
X333561Y279985D01*
X333572Y280037D01*
X333583Y280100D01*
X333591Y280162D01*
X333594Y280225D01*
Y280229D01*
Y280233D01*
Y280244D01*
Y280259D01*
X333587Y280296D01*
X333579Y280340D01*
X333568Y280392D01*
X333546Y280444D01*
X333520Y280495D01*
X333483Y280543D01*
X333480Y280547D01*
X333465Y280562D01*
X333443Y280580D01*
X333413Y280606D01*
X333376Y280629D01*
X333332Y280647D01*
X333283Y280662D01*
X333232Y280666D01*
D02*
G37*
G36*
X342785Y276779D02*
X342763D01*
X342748Y276775D01*
X342707Y276764D01*
X342656Y276749D01*
X342596Y276720D01*
X342567Y276698D01*
X342537Y276676D01*
X342508Y276646D01*
X342474Y276613D01*
X342448Y276576D01*
X342419Y276531D01*
Y276528D01*
X342411Y276520D01*
X342408Y276505D01*
X342397Y276490D01*
X342386Y276465D01*
X342374Y276439D01*
X342363Y276409D01*
X342349Y276372D01*
X342323Y276294D01*
X342300Y276206D01*
X342286Y276106D01*
X342278Y276002D01*
Y275998D01*
Y275995D01*
Y275984D01*
Y275969D01*
X342282Y275932D01*
X342289Y275887D01*
X342304Y275839D01*
X342319Y275787D01*
X342345Y275736D01*
X342378Y275691D01*
X342382Y275688D01*
X342397Y275673D01*
X342419Y275658D01*
X342448Y275636D01*
X342485Y275617D01*
X342530Y275599D01*
X342578Y275584D01*
X342630Y275580D01*
X342652D01*
X342678Y275584D01*
X342715Y275591D01*
X342752Y275603D01*
X342796Y275621D01*
X342841Y275643D01*
X342885Y275673D01*
X342889Y275676D01*
X342903Y275691D01*
X342926Y275713D01*
X342955Y275743D01*
X342985Y275784D01*
X343018Y275832D01*
X343048Y275891D01*
X343077Y275958D01*
Y275961D01*
X343081Y275965D01*
X343085Y275976D01*
X343089Y275991D01*
X343100Y276028D01*
X343114Y276076D01*
X343126Y276132D01*
X343137Y276195D01*
X343144Y276261D01*
X343148Y276328D01*
Y276331D01*
Y276335D01*
Y276346D01*
Y276361D01*
X343140Y276398D01*
X343133Y276442D01*
X343122Y276494D01*
X343100Y276550D01*
X343074Y276602D01*
X343037Y276653D01*
X343033Y276657D01*
X343018Y276672D01*
X342996Y276694D01*
X342966Y276716D01*
X342929Y276738D01*
X342885Y276761D01*
X342837Y276775D01*
X342785Y276779D01*
D02*
G37*
G36*
X358214Y276117D02*
X358210D01*
X358207Y276113D01*
X358196D01*
X358181Y276109D01*
X358144Y276098D01*
X358092Y276091D01*
X358088D01*
X358077Y276087D01*
X358055D01*
X358033Y276083D01*
X357999Y276080D01*
X357966Y276072D01*
X357889Y276058D01*
X357807Y276039D01*
X357726Y276017D01*
X357689Y276002D01*
X357655Y275987D01*
X357626Y275973D01*
X357600Y275958D01*
X357596Y275954D01*
X357589Y275947D01*
X357574Y275932D01*
X357559Y275913D01*
X357544Y275887D01*
X357530Y275858D01*
X357522Y275824D01*
X357519Y275787D01*
Y275784D01*
Y275773D01*
X357522Y275758D01*
X357526Y275736D01*
X357533Y275713D01*
X357544Y275688D01*
X357559Y275662D01*
X357581Y275640D01*
X357585Y275636D01*
X357593Y275632D01*
X357607Y275621D01*
X357626Y275610D01*
X357648Y275599D01*
X357678Y275591D01*
X357711Y275584D01*
X357748Y275580D01*
X357766D01*
X357789Y275584D01*
X357815Y275588D01*
X357848Y275591D01*
X357885Y275603D01*
X357922Y275614D01*
X357959Y275632D01*
X357962Y275636D01*
X357977Y275643D01*
X357996Y275654D01*
X358018Y275673D01*
X358040Y275691D01*
X358066Y275717D01*
X358092Y275743D01*
X358110Y275776D01*
X358114Y275780D01*
X358118Y275795D01*
X358129Y275813D01*
X358140Y275843D01*
X358155Y275880D01*
X358170Y275928D01*
X358185Y275984D01*
X358199Y276046D01*
X358214Y276117D01*
D02*
G37*
G36*
X326279Y277275D02*
X325717Y276246D01*
X326431D01*
X326279Y277275D01*
D02*
G37*
G36*
X340776Y276790D02*
X340750D01*
X340721Y276783D01*
X340684Y276775D01*
X340639Y276761D01*
X340591Y276742D01*
X340543Y276712D01*
X340495Y276672D01*
X340491Y276668D01*
X340476Y276650D01*
X340454Y276624D01*
X340428Y276583D01*
X340402Y276535D01*
X340373Y276476D01*
X340347Y276409D01*
X340328Y276328D01*
X341116D01*
Y276331D01*
Y276346D01*
Y276361D01*
Y276376D01*
Y276379D01*
Y276383D01*
Y276394D01*
Y276409D01*
X341113Y276446D01*
X341105Y276494D01*
X341094Y276542D01*
X341076Y276594D01*
X341054Y276642D01*
X341024Y276687D01*
X341020Y276690D01*
X341005Y276701D01*
X340987Y276720D01*
X340957Y276738D01*
X340924Y276757D01*
X340880Y276775D01*
X340831Y276786D01*
X340776Y276790D01*
D02*
G37*
G36*
X337723D02*
X337705D01*
X337690Y276786D01*
X337657Y276783D01*
X337609Y276768D01*
X337557Y276746D01*
X337505Y276716D01*
X337446Y276672D01*
X337420Y276642D01*
X337394Y276613D01*
X337390Y276609D01*
X337387Y276602D01*
X337376Y276587D01*
X337365Y276568D01*
X337350Y276546D01*
X337335Y276516D01*
X337320Y276483D01*
X337302Y276446D01*
X337283Y276405D01*
X337268Y276357D01*
X337254Y276309D01*
X337239Y276254D01*
X337217Y276135D01*
X337213Y276069D01*
X337209Y276002D01*
Y275998D01*
Y275995D01*
Y275973D01*
X337217Y275936D01*
X337224Y275895D01*
X337235Y275843D01*
X337254Y275795D01*
X337280Y275743D01*
X337313Y275695D01*
X337316Y275691D01*
X337331Y275676D01*
X337353Y275658D01*
X337383Y275640D01*
X337420Y275617D01*
X337464Y275599D01*
X337513Y275584D01*
X337564Y275580D01*
X337587D01*
X337609Y275584D01*
X337642Y275591D01*
X337679Y275603D01*
X337720Y275617D01*
X337760Y275640D01*
X337805Y275669D01*
X337809Y275673D01*
X337823Y275688D01*
X337846Y275710D01*
X337872Y275739D01*
X337901Y275780D01*
X337934Y275832D01*
X337968Y275891D01*
X337997Y275961D01*
Y275965D01*
X338001Y275969D01*
X338005Y275980D01*
X338008Y275995D01*
X338023Y276035D01*
X338038Y276087D01*
X338049Y276146D01*
X338064Y276217D01*
X338071Y276291D01*
X338075Y276365D01*
Y276368D01*
Y276372D01*
Y276383D01*
Y276398D01*
X338071Y276431D01*
X338064Y276476D01*
X338049Y276528D01*
X338031Y276579D01*
X338005Y276631D01*
X337971Y276676D01*
X337968Y276679D01*
X337953Y276694D01*
X337931Y276712D01*
X337901Y276735D01*
X337864Y276753D01*
X337823Y276772D01*
X337775Y276786D01*
X337723Y276790D01*
D02*
G37*
G36*
X332421D02*
X332396D01*
X332366Y276783D01*
X332329Y276775D01*
X332284Y276761D01*
X332236Y276742D01*
X332188Y276712D01*
X332140Y276672D01*
X332137Y276668D01*
X332122Y276650D01*
X332100Y276624D01*
X332074Y276583D01*
X332048Y276535D01*
X332018Y276476D01*
X331992Y276409D01*
X331974Y276328D01*
X332762D01*
Y276331D01*
Y276346D01*
Y276361D01*
Y276376D01*
Y276379D01*
Y276383D01*
Y276394D01*
Y276409D01*
X332758Y276446D01*
X332751Y276494D01*
X332740Y276542D01*
X332721Y276594D01*
X332699Y276642D01*
X332669Y276687D01*
X332666Y276690D01*
X332651Y276701D01*
X332632Y276720D01*
X332603Y276738D01*
X332569Y276757D01*
X332525Y276775D01*
X332477Y276786D01*
X332421Y276790D01*
D02*
G37*
%LPD*%
D10*
X395066Y286121D02*
G03*
X395606Y287422I-1302J1302D01*
G01*
X395236Y293657D02*
G03*
X395152Y293692I-84J-84D01*
G01*
X395336Y293416D02*
G03*
X395236Y293657I-341J0D01*
G01*
X395266Y292001D02*
G03*
X395336Y292168I-168J168D01*
G01*
X395606Y289202D02*
G03*
X395371Y289769I-802J0D01*
G01*
X395025Y291900D02*
G03*
X395266Y292001I0J341D01*
G01*
X395242Y289898D02*
G03*
X394083Y290378I-1158J-1158D01*
G01*
X393838Y285612D02*
G03*
X395066Y286121I0J1737D01*
G01*
X385699Y285747D02*
G03*
X386024Y285612I326J326D01*
G01*
X392880Y287369D02*
G03*
X393205Y287504I0J460D01*
G01*
D02*
G03*
X393340Y287829I-326J326D01*
G01*
Y288415D02*
G03*
X393240Y288656I-341J0D01*
G01*
X393240Y288656D02*
G03*
X392757Y288856I-483J-483D01*
G01*
X388099Y290617D02*
G03*
X388677Y290378I577J577D01*
G01*
X384720Y293253D02*
G03*
X384281Y293692I-439J0D01*
G01*
X386207Y293153D02*
G03*
X385768Y292092I1060J-1060D01*
G01*
X387509Y293692D02*
G03*
X386207Y293153I0J-1841D01*
G01*
X384211Y291766D02*
G03*
X384720Y292274I0J509D01*
G01*
X385598Y285988D02*
G03*
X385699Y285747I341J0D01*
G01*
X385768Y290208D02*
G03*
X386103Y289400I1143J0D01*
G01*
X385768Y287234D02*
G03*
X385598Y286824I410J-410D01*
G01*
X386094Y287369D02*
G03*
X385768Y287234I0J-460D01*
G01*
X386103Y289400D02*
G03*
X387415Y288856I1312J1312D01*
G01*
X387930Y291027D02*
G03*
X388099Y290617I579J0D01*
G01*
X388615Y291900D02*
G03*
X387964Y291631I0J-921D01*
G01*
X387964Y291631D02*
G03*
X387930Y291547I84J-84D01*
G01*
X372097Y293063D02*
G03*
X370695Y293644I-1402J-1402D01*
G01*
X370731Y291089D02*
G03*
X369837Y291983I-894J0D01*
G01*
X372712Y291579D02*
G03*
X372097Y293063I-2100J0D01*
G01*
X374269Y293692D02*
G03*
X373865Y293288I0J-404D01*
G01*
X373865Y292105D02*
G03*
X374204Y291766I339J0D01*
G01*
X372166Y286262D02*
G03*
X372712Y287580I-1319J1319D01*
G01*
X369764Y287506D02*
G03*
X370733Y288475I0J970D01*
G01*
X362646Y293124D02*
G03*
X362031Y291639I1485J-1485D01*
G01*
X364023Y293644D02*
G03*
X362538Y293029I0J-2100D01*
G01*
X362031Y287699D02*
G03*
X362646Y286214I2100J0D01*
G01*
X365053Y291983D02*
G03*
X364006Y290936I0J-1047D01*
G01*
X351937Y288961D02*
G03*
X351933Y288956I0J-4D01*
G01*
X351959Y288969D02*
G03*
X351933Y288943I0J-26D01*
G01*
X347486Y288841D02*
G03*
X348101Y290326I-1485J1485D01*
G01*
X351933Y287443D02*
G03*
X351946Y287430I13J0D01*
G01*
X346427Y288217D02*
G03*
X347169Y288524I0J1050D01*
G01*
X352024Y291909D02*
G03*
X351928Y291813I0J-96D01*
G01*
X350041Y293697D02*
G03*
X349767Y293423I0J-274D01*
G01*
X348101Y291669D02*
G03*
X347575Y292940I-1797J0D01*
G01*
X347433Y293082D02*
G03*
X345948Y293697I-1485J-1485D01*
G01*
X360117Y291770D02*
G03*
X359555Y293129I-1921J0D01*
G01*
X359546Y293137D02*
G03*
X358195Y293697I-1351J-1351D01*
G01*
X340216Y291900D02*
G03*
X340116Y291800I0J-100D01*
G01*
X336245Y291218D02*
G03*
X335630Y292703I-2100J0D01*
G01*
X340116Y289690D02*
G03*
X340125Y289669I30J0D01*
G01*
X333927Y288134D02*
G03*
X334049Y288428I-294J294D01*
G01*
X335630Y286688D02*
G03*
X336245Y288173I-1485J1485D01*
G01*
X333092Y287765D02*
G03*
X333887Y288094I0J1123D01*
G01*
X333980Y285907D02*
G03*
X335465Y286523I0J2100D01*
G01*
X338035Y293697D02*
G03*
X337972Y293671I0J-89D01*
G01*
X335282Y293051D02*
G03*
X333797Y293666I-1485J-1485D01*
G01*
X358200Y285642D02*
G03*
X359684Y286257I0J2100D01*
G01*
X359798Y286371D02*
G03*
X360235Y287425I-1054J1054D01*
G01*
X357543Y287430D02*
G03*
X357995Y287882I0J452D01*
G01*
X351928Y290517D02*
G03*
X351949Y290509I21J21D01*
G01*
X358017Y291392D02*
G03*
X357499Y291909I-518J0D01*
G01*
X358021Y291387D02*
G03*
X358017Y291392I-4J0D01*
G01*
X357547Y290509D02*
G03*
X358021Y290983I0J474D01*
G01*
X357995Y288343D02*
G03*
X357369Y288969I-626J0D01*
G01*
X345909Y291031D02*
G03*
X345039Y291900I-870J0D01*
G01*
X345148Y289669D02*
G03*
X345909Y290430I0J761D01*
G01*
X359875Y290336D02*
G03*
X360117Y290921I-584J584D01*
G01*
X359910Y289437D02*
G03*
X359235Y289717I-676J-676D01*
G01*
X360230Y288664D02*
G03*
X359910Y289437I-1094J0D01*
G01*
X346427Y288217D02*
G03*
X346442Y288180I52J0D01*
G01*
X334049Y290673D02*
G03*
X333680Y291566I-1262J0D01*
G01*
X333680Y291566D02*
G03*
X332934Y291874I-746J-746D01*
G01*
X327130Y288840D02*
G03*
X327500Y287947I1262J0D01*
G01*
Y287947D02*
G03*
X327941Y287765I441J441D01*
G01*
X325619Y286492D02*
G03*
X327104Y285877I1485J1485D01*
G01*
X324907Y288073D02*
G03*
X325523Y286588I2100J0D01*
G01*
X327260Y293666D02*
G03*
X325776Y293051I0J-2100D01*
G01*
X328440Y291874D02*
G03*
X327317Y291409I0J-1589D01*
G01*
X327317Y291409D02*
G03*
X327130Y290957I452J-452D01*
G01*
X325523Y292798D02*
G03*
X324907Y291313I1485J-1485D01*
G01*
X337972Y286291D02*
G03*
X338246Y285629I935J0D01*
G01*
X338246Y285629D02*
G03*
X338414Y285560I168J168D01*
G01*
X349780Y285955D02*
G03*
X350093Y285642I313J0D01*
G01*
X348252Y285667D02*
G03*
X348397Y286016I-349J349D01*
G01*
X348397D02*
G03*
X348249Y286373I-504J0D01*
G01*
X339739Y285560D02*
G03*
X340012Y285673I0J386D01*
G01*
D02*
G03*
X340081Y285841I-168J168D01*
G01*
X379984Y285577D02*
G03*
X380358Y285951I0J374D01*
G01*
X378192Y285916D02*
G03*
X378531Y285577I339J0D01*
G01*
X370681Y285647D02*
G03*
X372166Y286262I0J2100D01*
G01*
X362599D02*
G03*
X364084Y285647I1485J1485D01*
G01*
X364001Y288326D02*
G03*
X364798Y287528I797J0D01*
G01*
X395606Y287422D02*
Y289202D01*
X395336Y292168D02*
Y293416D01*
X395242Y289898D02*
X395371Y289769D01*
X386024Y285612D02*
X393838D01*
X388677Y290378D02*
X394083D01*
X387415Y288856D02*
X392757D01*
X386094Y287369D02*
X392880D01*
X393340Y287829D02*
Y288415D01*
X394692Y293692D02*
X395152D01*
X384720Y292274D02*
Y293253D01*
X387509Y293692D02*
X394962D01*
X385598Y285988D02*
Y286824D01*
X387930Y291027D02*
Y291547D01*
X385768Y290208D02*
Y292092D01*
X378192Y285916D02*
Y291766D01*
X380358D02*
X384211D01*
X388615Y291900D02*
X395025D01*
X373865Y292105D02*
Y293288D01*
X374204Y291766D02*
X378192D01*
X364023Y293644D02*
X370695D01*
X380358Y285951D02*
Y291766D01*
X374269Y293692D02*
X384281D01*
X372712Y287580D02*
Y291579D01*
X370733Y288475D02*
Y291131D01*
X362044Y287951D02*
Y291527D01*
X362031Y291561D02*
Y291639D01*
X362646Y293124D02*
X362775Y293253D01*
X364001Y288326D02*
Y290878D01*
X362031Y287699D02*
Y287978D01*
X359867Y290336D02*
X359875D01*
X364798Y287491D02*
X369764D01*
X332875Y284085D02*
X335224Y284116D01*
X333980Y285908D02*
X335224Y284116D01*
X345061Y289669D02*
X345148D01*
X351933Y287443D02*
Y288956D01*
X349780Y285955D02*
Y293431D01*
X350041Y293697D02*
X358217D01*
X352024Y291909D02*
X357499D01*
X347433Y293082D02*
X347575Y292940D01*
X359546Y293137D02*
X359555Y293129D01*
X340216Y291900D02*
X345039D01*
X338035Y293697D02*
X345948D01*
X340116Y289690D02*
Y291879D01*
X337972Y286291D02*
Y293697D01*
X336245Y288173D02*
Y291218D01*
X334049Y288428D02*
Y290673D01*
X340081Y285841D02*
Y288125D01*
X333887Y288094D02*
X333927Y288134D01*
X335465Y286523D02*
X335630Y286688D01*
X327260Y293666D02*
X328044D01*
X327995D02*
X333797D01*
X335282Y293051D02*
X335630Y292703D01*
X357995Y287882D02*
Y288343D01*
X350093Y285642D02*
X358200D01*
X351946Y287430D02*
X357543D01*
X359684Y286257D02*
X359798Y286371D01*
X351949Y290509D02*
X357547D01*
X351928Y290517D02*
Y291870D01*
X351959Y288969D02*
X357369D01*
X358021Y290983D02*
Y291387D01*
X347169Y288524D02*
X347486Y288841D01*
X348101Y290326D02*
Y291669D01*
X345909Y290430D02*
Y291031D01*
X360117Y290921D02*
Y291770D01*
X359443Y289891D02*
X359874Y290322D01*
X359248Y289717D02*
X359402Y289872D01*
X359235Y289717D02*
X359248D01*
X359874Y290322D02*
X359883D01*
X360230Y287595D02*
Y288664D01*
X360235Y287425D02*
Y288391D01*
X340081Y288125D02*
X344091D01*
X340125Y289669D02*
X345061D01*
X328643Y291874D02*
X332934D01*
X327941Y287765D02*
X333092D01*
X327160Y285877D02*
X331488Y285786D01*
X332875Y284085D01*
X327104Y285877D02*
X327160D01*
X324907Y288073D02*
Y291313D01*
X327130Y288840D02*
Y290957D01*
X325523Y286588D02*
X325619Y286492D01*
X325523Y292798D02*
X325776Y293051D01*
X346266Y285651D02*
X348214Y285629D01*
X348252Y285667D01*
X344091Y288125D02*
X346266Y285651D01*
X346442Y288180D02*
X348249Y286373D01*
X338414Y285560D02*
X339739D01*
X364084Y285647D02*
X370681D01*
X378531Y285577D02*
X379984D01*
X362646Y286214D02*
X362709Y286151D01*
X365053Y291983D02*
X369837D01*
D11*
X369098Y290873D02*
G03*
X369063Y290957I-119J0D01*
G01*
Y290957D02*
G03*
X368895Y291026I-168J-168D01*
G01*
X374796Y295710D02*
G03*
X376280Y296325I0J2100D01*
G01*
X376233Y302676D02*
G03*
X374748Y303291I-1485J-1485D01*
G01*
X376605Y296650D02*
G03*
X377044Y297710I-1060J1060D01*
G01*
X377044Y301129D02*
G03*
X376524Y302384I-1774J0D01*
G01*
X374058Y298198D02*
G03*
X374121Y298224I0J89D01*
G01*
X373956Y298198D02*
G03*
X373925Y298211I-32J-32D01*
G01*
X374108Y298255D02*
G03*
X374121Y298224I45J0D01*
G01*
X374108Y300733D02*
G03*
X374056Y300755I-52J-52D01*
G01*
X374130Y300681D02*
G03*
X374108Y300733I-74J0D01*
G01*
X361531Y306121D02*
G03*
X361509Y306174I-74J0D01*
G01*
X361483Y303839D02*
G03*
X361517Y303757I115J0D01*
G01*
X363900Y303599D02*
G03*
X364295Y303763I0J558D01*
G01*
Y303763D02*
G03*
X364910Y305248I-1485J1485D01*
G01*
X361653Y303621D02*
G03*
X361705Y303599I52J52D01*
G01*
X369076Y288456D02*
G03*
X369098Y288509I-52J52D01*
G01*
X365925Y291026D02*
G03*
X365736Y290948I0J-267D01*
G01*
X365736Y290948D02*
G03*
X365702Y290864I84J-84D01*
G01*
X369632Y303291D02*
G03*
X368359Y302763I0J-1800D01*
G01*
X367693Y297637D02*
G03*
X368229Y296345I1827J0D01*
G01*
X368428Y296145D02*
G03*
X369478Y295710I1050J1050D01*
G01*
X370695Y298273D02*
G03*
X370720Y298211I88J0D01*
G01*
X370720Y300755D02*
G03*
X370804Y300720I84J84D01*
G01*
X365702Y288561D02*
G03*
X365745Y288456I149J0D01*
G01*
X368259Y291026D02*
X368895D01*
X373830Y300755D02*
X374056D01*
X373695D02*
X373830D01*
X377044Y297710D02*
Y301129D01*
X376233Y302676D02*
X376524Y302384D01*
X376280Y296325D02*
X376605Y296650D01*
X373956Y298198D02*
X374058D01*
X374108Y298255D02*
Y298376D01*
X369098Y288509D02*
Y290873D01*
X361509Y306174D02*
X364910D01*
X361531Y305543D02*
Y306121D01*
X361517Y303757D02*
X361653Y303621D01*
X361705Y303599D02*
X363900D01*
X364910Y305248D02*
Y306174D01*
X361483Y303817D02*
Y303839D01*
X374130Y300520D02*
Y300681D01*
X368768Y302538D02*
X368781Y302551D01*
X369632Y303291D02*
X374748D01*
X364906Y304665D02*
X368768Y302538D01*
X364649Y303504D02*
X367811Y301860D01*
X365702Y288561D02*
Y289504D01*
X365745Y288456D02*
X369076D01*
X365702Y289817D02*
Y290864D01*
X369211Y293853D02*
X371416Y297850D01*
X370294Y293840D02*
X372978Y298437D01*
X368229Y296345D02*
X368428Y296145D01*
X369478Y295710D02*
X374796D01*
X373769Y298211D02*
X373925D01*
X370804Y300720D02*
X371134D01*
X370695Y298273D02*
Y298576D01*
X367624Y301542D02*
X367672Y300994D01*
X367624Y301542D02*
X368359Y302763D01*
X365925Y291026D02*
X366963D01*
D12*
X242874Y341535D02*
G03*
X242874Y341535I-394J0D01*
G01*
X447441D02*
G03*
X447441Y341535I-394J0D01*
G01*
D13*
X387082Y293536D02*
Y293553D01*
X386525Y293279D02*
X386664D01*
Y293536D01*
X387082D01*
X385829Y290413D02*
Y290613D01*
X385685D02*
X385829D01*
X373873Y293414D02*
Y293705D01*
X370807Y287995D02*
Y288204D01*
X370677Y287995D02*
X370807D01*
X363475Y293453D02*
Y293562D01*
X361892Y291714D02*
Y291944D01*
X362888Y293275D02*
X363166D01*
X362888Y293153D02*
Y293275D01*
X363166Y293453D02*
X363475D01*
Y293562D02*
X363931D01*
X361900Y287417D02*
Y287551D01*
X361757D02*
Y287712D01*
Y287551D02*
X361900D01*
X373873Y293705D02*
X374069D01*
X361753Y291666D02*
Y291714D01*
X361892D01*
X363166Y293275D02*
Y293453D01*
X333771Y287908D02*
Y288078D01*
X333479Y287908D02*
X333771D01*
X333479Y287712D02*
Y287908D01*
X333949Y288078D02*
Y288195D01*
X333771Y288078D02*
X333949D01*
X357978Y287638D02*
Y287791D01*
X357995Y288391D02*
X358013D01*
X357995Y287843D02*
Y288391D01*
X357791Y287638D02*
X357978D01*
X357791Y287434D02*
Y287638D01*
X357569Y287434D02*
X357791D01*
X357995Y290791D02*
Y291322D01*
X352407Y290517D02*
X357569D01*
Y290552D01*
X357756Y290639D02*
X357843D01*
X357756Y290552D02*
Y290639D01*
X357569Y290552D02*
X357756D01*
X328256Y287712D02*
X333479D01*
X325012Y288112D02*
Y288547D01*
X324877D02*
X325012D01*
X324881Y291131D02*
Y291431D01*
X325003D01*
X326412Y293292D02*
Y293405D01*
X326399Y293401D02*
X326469D01*
X326960Y293405D02*
Y293557D01*
X326469Y293405D02*
X326960D01*
D14*
X217750Y257677D02*
X227126D01*
X202323D02*
X204455D01*
X202323Y352559D02*
X204455D01*
X224055Y264961D02*
Y267860D01*
Y264961D02*
X227126D01*
X234213D02*
X239724D01*
Y257677D02*
Y264961D01*
X234213Y257677D02*
X239724D01*
X224055Y342376D02*
Y345276D01*
X228307D01*
X233032D02*
X239724D01*
Y352559D01*
X217750D02*
X239724D01*
X315821Y326152D02*
Y323153D01*
X317321D01*
X317821Y323653D01*
Y325652D01*
X317321Y326152D01*
X315821D01*
X320320Y323153D02*
X319320D01*
X318820Y323653D01*
Y324653D01*
X319320Y325153D01*
X320320D01*
X320820Y324653D01*
Y324153D01*
X318820D01*
X321819Y323153D02*
X323319D01*
X323819Y323653D01*
X323319Y324153D01*
X322319D01*
X321819Y324653D01*
X322319Y325153D01*
X323819D01*
X324818Y323153D02*
X325818D01*
X325318D01*
Y325153D01*
X324818D01*
X328317Y322153D02*
X328817D01*
X329317Y322653D01*
Y325153D01*
X327817D01*
X327318Y324653D01*
Y323653D01*
X327817Y323153D01*
X329317D01*
X330316D02*
Y325153D01*
X331816D01*
X332316Y324653D01*
Y323153D01*
X336315Y326152D02*
Y323153D01*
X337814D01*
X338314Y323653D01*
Y324153D01*
Y324653D01*
X337814Y325153D01*
X336315D01*
X339314D02*
Y323653D01*
X339813Y323153D01*
X341313D01*
Y322653D01*
X340813Y322153D01*
X340313D01*
X341313Y323153D02*
Y325153D01*
X345312Y323153D02*
Y326152D01*
X346811D01*
X347311Y325652D01*
Y324653D01*
X346811Y324153D01*
X345312D01*
X348311Y325153D02*
Y323153D01*
Y324153D01*
X348811Y324653D01*
X349310Y325153D01*
X349810D01*
X351810D02*
X352809D01*
X353309Y324653D01*
Y323153D01*
X351810D01*
X351310Y323653D01*
X351810Y324153D01*
X353309D01*
X354309Y323153D02*
Y325153D01*
X354809D01*
X355309Y324653D01*
Y323153D01*
Y324653D01*
X355808Y325153D01*
X356308Y324653D01*
Y323153D01*
X357808D02*
X358807D01*
X359307Y323653D01*
Y324653D01*
X358807Y325153D01*
X357808D01*
X357308Y324653D01*
Y323653D01*
X357808Y323153D01*
X362306Y326152D02*
Y323153D01*
X360807D01*
X360307Y323653D01*
Y324653D01*
X360807Y325153D01*
X362306D01*
X368304Y325652D02*
X367804Y326152D01*
X366805D01*
X366305Y325652D01*
Y325153D01*
X366805Y324653D01*
X367804D01*
X368304Y324153D01*
Y323653D01*
X367804Y323153D01*
X366805D01*
X366305Y323653D01*
X369804Y325153D02*
X370803D01*
X371303Y324653D01*
Y323153D01*
X369804D01*
X369304Y323653D01*
X369804Y324153D01*
X371303D01*
X372303Y323153D02*
Y325153D01*
X373802D01*
X374302Y324653D01*
Y323153D01*
X377301Y326152D02*
Y323153D01*
X375802D01*
X375302Y323653D01*
Y324653D01*
X375802Y325153D01*
X377301D01*
X378801D02*
X379801D01*
X380300Y324653D01*
Y323153D01*
X378801D01*
X378301Y323653D01*
X378801Y324153D01*
X380300D01*
X381300Y325153D02*
Y323153D01*
Y324153D01*
X381800Y324653D01*
X382300Y325153D01*
X382800D01*
X384299D02*
Y323653D01*
X384799Y323153D01*
X386298D01*
Y325153D01*
X387298D02*
Y323653D01*
X387798Y323153D01*
X388298Y323653D01*
X388798Y323153D01*
X389298Y323653D01*
Y325153D01*
X390797D02*
X391797D01*
X392297Y324653D01*
Y323153D01*
X390797D01*
X390297Y323653D01*
X390797Y324153D01*
X392297D01*
X393296Y323153D02*
Y325153D01*
X394796D01*
X395296Y324653D01*
Y323153D01*
D15*
X273835Y331315D02*
Y337313D01*
X275834Y335314D01*
X277833Y337313D01*
Y331315D01*
X279833D02*
Y332315D01*
X280832D01*
Y331315D01*
X279833D01*
X288830D02*
X284831D01*
X288830Y335314D01*
Y336313D01*
X287830Y337313D01*
X285831D01*
X284831Y336313D01*
X296827Y337313D02*
Y331315D01*
Y333314D01*
X300826Y337313D01*
X297827Y334314D01*
X300826Y331315D01*
X306824Y337313D02*
X302825D01*
Y331315D01*
X306824D01*
X302825Y334314D02*
X304825D01*
X308823Y337313D02*
Y336313D01*
X310823Y334314D01*
X312822Y336313D01*
Y337313D01*
X310823Y334314D02*
Y331315D01*
X324818Y337313D02*
X320819D01*
Y331315D01*
X324818D01*
X320819Y334314D02*
X322819D01*
X332816D02*
X336814D01*
X348810Y337313D02*
X344812D01*
Y331315D01*
X348810D01*
X344812Y334314D02*
X346811D01*
X350810Y335314D02*
X354808Y331315D01*
X352809Y333314D01*
X354808Y335314D01*
X350810Y331315D01*
X357807Y336313D02*
Y335314D01*
X356808D01*
X358807D01*
X357807D01*
Y332315D01*
X358807Y331315D01*
X364805D02*
X362806D01*
X361806Y332315D01*
Y334314D01*
X362806Y335314D01*
X364805D01*
X365805Y334314D01*
Y333314D01*
X361806D01*
X367804Y331315D02*
Y335314D01*
X370803D01*
X371803Y334314D01*
Y331315D01*
X373802D02*
X376801D01*
X377801Y332315D01*
X376801Y333314D01*
X374802D01*
X373802Y334314D01*
X374802Y335314D01*
X377801D01*
X379800Y331315D02*
X381800D01*
X380800D01*
Y335314D01*
X379800D01*
X385798Y331315D02*
X387798D01*
X388797Y332315D01*
Y334314D01*
X387798Y335314D01*
X385798D01*
X384799Y334314D01*
Y332315D01*
X385798Y331315D01*
X390797D02*
Y335314D01*
X393796D01*
X394795Y334314D01*
Y331315D01*
D16*
X422841Y269298D02*
Y271297D01*
X423507Y270631D01*
X424174Y271297D01*
Y269298D01*
X424840D02*
Y269631D01*
X425174D01*
Y269298D01*
X424840D01*
X427839D02*
X426506D01*
X427839Y270631D01*
Y270964D01*
X427506Y271297D01*
X426840D01*
X426506Y270964D01*
X430505Y271297D02*
Y269298D01*
Y269964D01*
X431838Y271297D01*
X430838Y270297D01*
X431838Y269298D01*
X433837Y271297D02*
X432505D01*
Y269298D01*
X433837D01*
X432505Y270297D02*
X433171D01*
X434504Y271297D02*
Y270964D01*
X435170Y270297D01*
X435837Y270964D01*
Y271297D01*
X435170Y270297D02*
Y269298D01*
X439835Y271297D02*
X438503D01*
Y269298D01*
X439835D01*
X438503Y270297D02*
X439169D01*
X437462Y345094D02*
X436796D01*
X437129D01*
Y343428D01*
X436796Y343095D01*
X436462D01*
X436129Y343428D01*
X439461Y343095D02*
X438129D01*
X439461Y344428D01*
Y344761D01*
X439128Y345094D01*
X438462D01*
X438129Y344761D01*
X247244Y344701D02*
X246578D01*
X246911D01*
Y343034D01*
X246578Y342701D01*
X246244D01*
X245911Y343034D01*
X247910Y342701D02*
X248577D01*
X248244D01*
Y344701D01*
X247910Y344367D01*
M02*
