G04*
G04 #@! TF.GenerationSoftware,Altium Limited,Altium Designer,21.7.2 (23)*
G04*
G04 Layer_Color=16711833*
%FSLAX25Y25*%
%MOIN*%
G70*
G04*
G04 #@! TF.SameCoordinates,AC63ED2E-E8E0-4B6E-8806-03F55A2ED641*
G04*
G04*
G04 #@! TF.FilePolarity,Positive*
G04*
G01*
G75*
%ADD14C,0.00500*%
D14*
X445866Y316831D02*
G03*
X445866Y312106I0J-2362D01*
G01*
X443898Y266043D02*
G03*
X441535Y263681I0J-2362D01*
G01*
Y346555D02*
G03*
X443898Y344193I2362J0D01*
G01*
X204134Y263779D02*
G03*
X203346Y262992I0J-787D01*
G01*
Y347441D02*
G03*
X203937Y346850I591J0D01*
G01*
X221260Y344882D02*
G03*
X219291Y346850I-1969J0D01*
G01*
Y263779D02*
G03*
X221260Y265748I0J1969D01*
G01*
X246063Y262992D02*
G03*
X244094Y261024I0J-1969D01*
G01*
Y349410D02*
G03*
X246063Y347441I1969J0D01*
G01*
X443898Y266240D02*
G03*
X441535Y263878I0J-2362D01*
G01*
Y346752D02*
G03*
X443898Y344390I2362J0D01*
G01*
X445866Y317028D02*
G03*
X445866Y312303I0J-2362D01*
G01*
X443898Y266043D02*
X456299D01*
X443898Y344193D02*
X456299D01*
X445866Y316831D02*
X456299D01*
Y266043D02*
X457283Y267028D01*
Y311122D01*
X445866Y312106D02*
X456299D01*
Y316831D02*
X457283Y317815D01*
X456299Y312106D02*
X457283Y311122D01*
Y317815D02*
Y343209D01*
X456299Y344193D02*
X457283Y343209D01*
X203346Y347441D02*
Y354724D01*
X203937Y346850D02*
X219291D01*
X221260Y265748D02*
Y344882D01*
X204134Y263779D02*
X219291D01*
X203346Y255709D02*
Y262992D01*
X246063Y262992D02*
X438583Y262992D01*
X246063Y347441D02*
X410236Y347441D01*
X244094Y255709D02*
Y261024D01*
X203346Y255709D02*
X244094D01*
Y349410D02*
Y354724D01*
X203346D02*
X244094D01*
X410236Y347441D02*
X417323D01*
X438583D01*
X441535D01*
Y346752D02*
Y347441D01*
X438583Y262992D02*
X441535D01*
Y263681D01*
X456299Y317028D02*
X457283Y318012D01*
X443898Y266240D02*
X456299D01*
X457283Y267224D02*
Y311319D01*
X456299Y344390D02*
X457283Y343406D01*
X456299Y266240D02*
X457283Y267224D01*
X456299Y312303D02*
X457283Y311319D01*
Y318012D02*
Y343406D01*
X445866Y317028D02*
X456299D01*
X443898Y344390D02*
X456299D01*
X445866Y312303D02*
X456299D01*
M02*
