G04*
G04 #@! TF.GenerationSoftware,Altium Limited,Altium Designer,21.7.2 (23)*
G04*
G04 Layer_Physical_Order=1*
G04 Layer_Color=255*
%FSLAX25Y25*%
%MOIN*%
G70*
G04*
G04 #@! TF.SameCoordinates,AC63ED2E-E8E0-4B6E-8806-03F55A2ED641*
G04*
G04*
G04 #@! TF.FilePolarity,Positive*
G04*
G01*
G75*
%ADD17R,0.05906X0.01181*%
%ADD18R,0.10827X0.04724*%
%ADD19R,0.05906X0.01378*%
%ADD26C,0.00753*%
%ADD27C,0.06496*%
%ADD28C,0.04528*%
%ADD29C,0.01378*%
D17*
X226378Y291339D02*
D03*
X236772Y292323D02*
D03*
X226378Y293307D02*
D03*
X236772Y294291D02*
D03*
X226378Y295276D02*
D03*
X236772Y296260D02*
D03*
X226378Y297244D02*
D03*
X236772Y298228D02*
D03*
Y268701D02*
D03*
X226378Y269685D02*
D03*
X236772Y270669D02*
D03*
X226378Y271654D02*
D03*
X236772Y272638D02*
D03*
X226378Y273622D02*
D03*
X236772Y274606D02*
D03*
X226378Y275590D02*
D03*
X236772Y276575D02*
D03*
X226378Y277559D02*
D03*
X236772Y278543D02*
D03*
X226378Y279528D02*
D03*
X236772Y280512D02*
D03*
X226378Y281496D02*
D03*
X236772Y282480D02*
D03*
X226378Y283465D02*
D03*
X236772Y284449D02*
D03*
X226378Y285433D02*
D03*
X236772Y286417D02*
D03*
X226378Y287402D02*
D03*
X236772Y288386D02*
D03*
X226378Y289370D02*
D03*
X236772Y290354D02*
D03*
X226378Y299213D02*
D03*
X236772Y300197D02*
D03*
X226378Y301181D02*
D03*
X236772Y302165D02*
D03*
X226378Y303150D02*
D03*
X236772Y304134D02*
D03*
X226378Y305118D02*
D03*
X236772Y306102D02*
D03*
X226378Y307087D02*
D03*
X236772Y308071D02*
D03*
X226378Y309055D02*
D03*
X236772Y310039D02*
D03*
X226378Y311024D02*
D03*
X236772Y319882D02*
D03*
X226378Y320866D02*
D03*
X236772Y321850D02*
D03*
X226378Y322835D02*
D03*
X236772Y323819D02*
D03*
X226378Y324803D02*
D03*
X236772Y325787D02*
D03*
X226378Y326772D02*
D03*
X236772Y327756D02*
D03*
X226378Y328740D02*
D03*
X236772Y329724D02*
D03*
X226378Y330709D02*
D03*
X236772Y331693D02*
D03*
X226378Y332677D02*
D03*
X236772Y333661D02*
D03*
X226378Y334646D02*
D03*
X236772Y335630D02*
D03*
X226378Y336614D02*
D03*
X236772Y337598D02*
D03*
X226378Y338583D02*
D03*
X236772Y339567D02*
D03*
X226378Y340551D02*
D03*
X236772Y341535D02*
D03*
D18*
X211102Y260295D02*
D03*
Y349941D02*
D03*
D19*
X452362Y341535D02*
D03*
Y339567D02*
D03*
Y337598D02*
D03*
Y335630D02*
D03*
Y333661D02*
D03*
Y331693D02*
D03*
Y329724D02*
D03*
Y327756D02*
D03*
Y325787D02*
D03*
Y323819D02*
D03*
Y321850D02*
D03*
Y319882D02*
D03*
Y310039D02*
D03*
Y308071D02*
D03*
Y306102D02*
D03*
Y304134D02*
D03*
Y302165D02*
D03*
Y300197D02*
D03*
Y290354D02*
D03*
Y288386D02*
D03*
Y286417D02*
D03*
Y284449D02*
D03*
Y282480D02*
D03*
Y280512D02*
D03*
Y278543D02*
D03*
Y276575D02*
D03*
Y274606D02*
D03*
Y272638D02*
D03*
Y270669D02*
D03*
Y268701D02*
D03*
Y298228D02*
D03*
Y296260D02*
D03*
Y294291D02*
D03*
Y292323D02*
D03*
D26*
X211102Y349941D02*
X220472D01*
X211102Y260295D02*
X220472D01*
X226378Y311024D02*
X230315D01*
X226378Y309055D02*
X230315D01*
X226378Y307087D02*
X230315D01*
X226378Y305118D02*
X230315D01*
X226378Y303150D02*
X230315D01*
X226378Y301181D02*
X230315D01*
X226378Y299213D02*
X230315D01*
X226378Y297244D02*
X230315D01*
X226378Y295276D02*
X230315D01*
X226378Y293307D02*
X230315D01*
X226378Y291339D02*
X230315D01*
X226378Y269685D02*
X230315D01*
X229707Y271654D02*
X230315D01*
X229707Y271654D02*
X229707Y271654D01*
X226378Y271654D02*
X229707D01*
X226378Y273622D02*
X230315D01*
X226378Y275590D02*
X230315D01*
X229707Y277559D02*
X230315D01*
X229707Y277559D02*
X229707Y277559D01*
X226378Y277559D02*
X229707D01*
X226378Y279528D02*
X230315D01*
X229707Y281496D02*
X230315D01*
X229707Y281496D02*
X229707Y281496D01*
X226378Y281496D02*
X229707D01*
X226378Y283465D02*
X230315D01*
X226378Y285433D02*
X230315D01*
X229707Y287402D02*
X230315D01*
X229707Y287402D02*
X229707Y287402D01*
X226378Y287402D02*
X229707D01*
X226378Y289370D02*
X230315D01*
X236772Y310039D02*
X452362D01*
X236772Y308071D02*
X452362D01*
X236772Y306102D02*
X452362D01*
X236772Y304134D02*
X452362D01*
X236772Y302165D02*
X452362D01*
X236772Y300197D02*
X452362D01*
X236772Y298228D02*
X452362D01*
X236772Y296260D02*
X452362D01*
X236772Y294291D02*
X452362D01*
X236772Y292323D02*
X452362D01*
X236772Y290354D02*
X452362D01*
X236772Y268701D02*
X452362D01*
X236772Y270669D02*
X452362D01*
X236772Y272638D02*
X452362D01*
X236772Y274606D02*
X452362D01*
X236772Y276575D02*
X452362D01*
X236772Y278543D02*
X452362D01*
X236772Y280512D02*
X452362D01*
X236772Y282480D02*
X452362D01*
X236772Y284449D02*
X452362D01*
X236772Y286417D02*
X452362D01*
X236772Y288386D02*
X452362D01*
X226378Y340551D02*
X230315D01*
X226378Y338583D02*
X230315D01*
X226378Y336614D02*
X230315D01*
X226378Y334646D02*
X230315D01*
X226378Y332677D02*
X230315D01*
X226378Y320866D02*
X230315D01*
X226378Y322835D02*
X230315D01*
X226378Y324803D02*
X230315D01*
X226378Y326772D02*
X230315D01*
X226378Y328740D02*
X230315D01*
X226378Y330709D02*
X230315D01*
X236772Y319882D02*
X452362D01*
X236772Y321850D02*
X452362D01*
X236772Y323819D02*
X452362D01*
X236772Y325787D02*
X452362D01*
X236772Y327756D02*
X452362D01*
X236772Y329724D02*
X452362D01*
X236772Y331693D02*
X452362D01*
X236772Y333661D02*
X452362D01*
X236772Y335630D02*
X452362D01*
X236772Y337598D02*
X452362D01*
X236772Y339567D02*
X452362D01*
X236772Y341535D02*
X452362D01*
D27*
X230669Y261811D02*
D03*
D28*
Y348425D02*
D03*
D29*
X220472Y260295D02*
D03*
Y349941D02*
D03*
X230315Y311024D02*
D03*
Y309055D02*
D03*
Y307087D02*
D03*
Y305118D02*
D03*
Y303150D02*
D03*
Y301181D02*
D03*
Y299213D02*
D03*
Y297244D02*
D03*
Y295276D02*
D03*
Y293307D02*
D03*
Y291339D02*
D03*
Y269685D02*
D03*
Y271654D02*
D03*
Y273622D02*
D03*
Y275590D02*
D03*
Y277559D02*
D03*
Y279528D02*
D03*
Y281496D02*
D03*
Y283465D02*
D03*
Y285433D02*
D03*
Y287402D02*
D03*
Y289370D02*
D03*
Y340551D02*
D03*
Y338583D02*
D03*
Y336614D02*
D03*
Y334646D02*
D03*
Y332677D02*
D03*
Y330709D02*
D03*
Y328740D02*
D03*
Y326772D02*
D03*
Y324803D02*
D03*
Y322835D02*
D03*
Y320866D02*
D03*
M02*
